<svg xmlns="http://www.w3.org/2000/svg" height="16.001" width="16">
<path fill="#CCC" d="m8.0005,3.2833c-3.4339,0-6.4103,1.9996-7.8729,4.9206,1.4626,2.9209,4.439,4.9206,7.8729,4.9206,3.4338,0,6.4102-1.9996,7.8729-4.9206-1.462-2.9204-4.439-4.9201-7.8725-4.9201zm3.8819,2.6095c0.9251,0.59007,1.709,1.3804,2.2978,2.3111-0.58881,0.93063-1.3727,1.721-2.2978,2.3111-1.1624,0.7414-2.5047,1.1333-3.8818,1.1333s-2.7195-0.39189-3.8819-1.1333c-0.92507-0.59004-1.709-1.3804-2.2978-2.3111,0.58881-0.93066,1.3727-1.721,2.2978-2.3111,0.06025-0.038442,0.12111-0.075682,0.18234-0.11225-0.15312,0.42021-0.23692,0.87374-0.23692,1.3469,0,2.174,1.7624,3.9364,3.9364,3.9364s3.9365-1.7624,3.9365-3.9364c0-0.4732-0.0838-0.92673-0.23692-1.347,0.0612,0.036566,0.12206,0.073839,0.18234,0.11228zm-3.8815,0.7427c0,0.81528-0.66089,1.4762-1.4762,1.4762-0.81528,0-1.4762-0.66089-1.4762-1.4762,0-0.81528,0.66089-1.4762,1.4762-1.4762,0.81527,0,1.4762,0.66089,1.4762,1.4762z"/>
</svg>