<?xml version="1.0" encoding="UTF-8" standalone="no"?>
<svg
   xmlns:dc="http://purl.org/dc/elements/1.1/"
   xmlns:cc="http://creativecommons.org/ns#"
   xmlns:rdf="http://www.w3.org/1999/02/22-rdf-syntax-ns#"
   xmlns:svg="http://www.w3.org/2000/svg"
   xmlns="http://www.w3.org/2000/svg"
   xmlns:sodipodi="http://sodipodi.sourceforge.net/DTD/sodipodi-0.dtd"
   xmlns:inkscape="http://www.inkscape.org/namespaces/inkscape"
   height="16"
   width="16"
   id="svg2"
   version="1.1"
   inkscape:version="0.48.4 r9939"
   sodipodi:docname="bookmark.svg">
  <metadata
     id="metadata12">
    <rdf:RDF>
      <cc:Work
         rdf:about="">
        <dc:format>image/svg+xml</dc:format>
        <dc:type
           rdf:resource="http://purl.org/dc/dcmitype/StillImage" />
      </cc:Work>
    </rdf:RDF>
  </metadata>
  <defs
     id="defs10" />
  <sodipodi:namedview
     pagecolor="#ffffff"
     bordercolor="#666666"
     borderopacity="1"
     objecttolerance="10"
     gridtolerance="10"
     guidetolerance="10"
     inkscape:pageopacity="0"
     inkscape:pageshadow="2"
     inkscape:window-width="1366"
     inkscape:window-height="745"
     id="namedview8"
     showgrid="false"
     inkscape:zoom="14.75"
     inkscape:cx="-2.2033898"
     inkscape:cy="8"
     inkscape:window-x="0"
     inkscape:window-y="0"
     inkscape:window-maximized="1"
     inkscape:current-layer="svg2" />
  <g
     transform="translate(-41.000202,-397)"
     id="g4">
    <path
       style="enable-background:accumulate;color:#000000;fill:#d18104;fill-opacity:1"
       d="m530.95,186.71c-0.77941,0.55189-3.1576-1.906-4.1125-1.9179-0.95532-0.0119-3.3949,2.3858-4.161,1.8149-0.76573-0.57072,0.83698-3.592,0.55319-4.5039-0.2839-0.91223-3.3182-2.4915-3.0119-3.3965,0.30617-0.90461,3.6749-0.31399,4.4544-0.86567,0.77986-0.5519,1.3442-3.9257,2.2995-3.914,0.95494,0.0116,1.4342,3.398,2.1998,3.9689,0.76588,0.57114,4.1489,0.0653,4.4331,0.97746,0.28402,0.9118-2.7885,2.414-3.0949,3.3186-0.30652,0.90489,1.22,3.966,0.44027,4.5182z"
       fill-rule="nonzero"
       transform="matrix(1.0472113,-0.00871584,0.00871584,1.0472113,-504.35434,220.15425)"
       fill="#f1c40f"
       id="path6" />
  </g>
</svg>
