<svg xmlns="http://www.w3.org/2000/svg" height="16" width="16">
<g transform="translate(-60,-518)">
<g transform="translate(19,-242)">
<path style="block-progression:tb;color:#bebebe;direction:ltr;text-indent:0;text-align:start;enable-background:new;text-transform:none;" d="m45,764,1,0c0.01037-0.00012,0.02079-0.00046,0.03125,0,0.25495,0.0112,0.50987,0.12858,0.6875,0.3125l2.282,2.28,2.312-2.28c0.266-0.23,0.447-0.3,0.688-0.31h1v1c0,0.28647-0.03434,0.55065-0.25,0.75l-2.2812,2.2812,2.25,2.25c0.188,0.19,0.281,0.45,0.281,0.72v1h-1c-0.2653-0.00001-0.53059-0.0931-0.71875-0.28125l-2.281-2.28-2.281,2.28c-0.188,0.19-0.454,0.28-0.719,0.28h-1v-1c-0.000003-0.26529,0.09306-0.53058,0.28125-0.71875l2.2812-2.25-2.281-2.28c-0.21-0.19-0.303-0.47-0.281-0.75v-1z" fill-rule="nonzero" fill="#bebebe"/>
</g>
</g>
</svg>