<svg xmlns="http://www.w3.org/2000/svg" height="16" width="16">
<g transform="translate(-441.0002,-400.99999)">
<path style="color:#666666;enable-background:accumulate;" d="m449,402c-0.22065,0-0.44081,0.0113-0.65625,0.0312l-0.40625,2.0938c-0.33446,0.0733-0.66305,0.17589-0.96875,0.3125l-1.5312-1.4688c-0.38863,0.23011-0.72695,0.51408-1.0625,0.8125l0.90625,1.9062c-0.22242,0.24899-0.42425,0.5225-0.59375,0.8125l-2.0938-0.28125c-0.17772,0.40877-0.30872,0.83637-0.40625,1.2812l1.8438,1c-0.0171,0.16809-0.0312,0.3274-0.0312,0.5s0.0142,0.33191,0.0312,0.5l-1.8438,1c0.0975,0.44488,0.22853,0.87248,0.40625,1.2812l2.0938-0.28125c0.1695,0.29,0.37133,0.56351,0.59375,0.8125l-0.90625,1.9062c0.33555,0.29842,0.67387,0.58239,1.0625,0.8125l1.5312-1.4688c0.3057,0.13661,0.63429,0.23916,0.96875,0.3125l0.40625,2.0938c0.21544,0.02,0.4356,0.0312,0.65625,0.0312s0.44081-0.0113,0.65625-0.0312l0.40625-2.0938c0.33446-0.0733,0.66305-0.17589,0.96875-0.3125l1.5312,1.4688c0.38863-0.23011,0.72695-0.51408,1.0625-0.8125l-0.90625-1.9062c0.22242-0.24899,0.42425-0.5225,0.59375-0.8125l2.0938,0.28125c0.17772-0.40877,0.30872-0.83637,0.40625-1.2812l-1.8438-1c0.0171-0.16809,0.0312-0.3274,0.0312-0.5s-0.0142-0.33191-0.0312-0.5l1.8438-1c-0.0975-0.44488-0.22853-0.87248-0.40625-1.2812l-2.0938,0.28125c-0.1695-0.29-0.37133-0.56351-0.59375-0.8125l0.90625-1.9062c-0.33555-0.29842-0.67387-0.58239-1.0625-0.8125l-1.5312,1.4688c-0.3057-0.13661-0.63429-0.23916-0.96875-0.3125l-0.40625-2.0938c-0.21544-0.02-0.4356-0.0312-0.65625-0.0312zm0,4c1.6568,0,3,1.3432,3,3s-1.3432,3-3,3-3-1.3432-3-3,1.3432-3,3-3z" fill-rule="nonzero" fill="#666"/>
</g>
</svg>