<?xml version="1.0"?>
<!--Icons from directory ""-->
<svg xmlns="http://www.w3.org/2000/svg" width="16" height="64" viewBox="0 0 16 64"><svg width="16" height="16" id="bookmark" y="0"><g transform="translate(-41 -397)"><path style="color:#000000" transform="matrix(1.0472 -.0087158 .0087158 1.0472 -504.35 220.15)" fill="#d18104" d="m530.95 186.71c-0.77941 0.55189-3.1576-1.906-4.1125-1.9179-0.95532-0.0119-3.3949 2.3858-4.161 1.8149-0.76573-0.57072 0.83698-3.592 0.55319-4.5039-0.2839-0.91223-3.3182-2.4915-3.0119-3.3965 0.30617-0.90461 3.6749-0.31399 4.4544-0.86567 0.77986-0.5519 1.3442-3.9257 2.2995-3.914 0.95494 0.0116 1.4342 3.398 2.1998 3.9689 0.76588 0.57114 4.1489 0.0653 4.4331 0.97746 0.28402 0.9118-2.7885 2.414-3.0949 3.3186-0.30652 0.90489 1.22 3.966 0.44027 4.5182z"/></g></svg><svg width="16" height="16" id="read" y="16"><path d="m8.0005 3.2833c-3.4339 0-6.4103 1.9996-7.8729 4.9206 1.4626 2.9209 4.439 4.9206 7.8729 4.9206 3.4338 0 6.4102-1.9996 7.8729-4.9206-1.462-2.9204-4.439-4.9201-7.8725-4.9201zm3.8819 2.6095c0.9251 0.59007 1.709 1.3804 2.2978 2.3111-0.58881 0.93063-1.3727 1.721-2.2978 2.3111-1.1624 0.7414-2.5047 1.1333-3.8818 1.1333s-2.7195-0.39189-3.8819-1.1333c-0.92507-0.59004-1.709-1.3804-2.2978-2.3111 0.58881-0.93066 1.3727-1.721 2.2978-2.3111 0.06025-0.038442 0.12111-0.075682 0.18234-0.11225-0.15312 0.42021-0.23692 0.87374-0.23692 1.3469 0 2.174 1.7624 3.9364 3.9364 3.9364s3.9365-1.7624 3.9365-3.9364c0-0.4732-0.0838-0.92673-0.23692-1.347 0.0612 0.036566 0.12206 0.073839 0.18234 0.11228zm-3.8815 0.7427c0 0.81528-0.66089 1.4762-1.4762 1.4762-0.81528 0-1.4762-0.66089-1.4762-1.4762 0-0.81528 0.66089-1.4762 1.4762-1.4762 0.81527 0 1.4762 0.66089 1.4762 1.4762z" fill="#CCC"/></svg><svg width="16" height="16" id="starred" y="32"><g transform="translate(-41 -397)"><path style="color:#000000" transform="matrix(1.0472 -.0087158 .0087158 1.0472 -504.35 220.15)" fill="#eaa904" d="m530.95 186.71c-0.77941 0.55189-3.1576-1.906-4.1125-1.9179-0.95532-0.0119-3.3949 2.3858-4.161 1.8149-0.76573-0.57072 0.83698-3.592 0.55319-4.5039-0.2839-0.91223-3.3182-2.4915-3.0119-3.3965 0.30617-0.90461 3.6749-0.31399 4.4544-0.86567 0.77986-0.5519 1.3442-3.9257 2.2995-3.914 0.95494 0.0116 1.4342 3.398 2.1998 3.9689 0.76588 0.57114 4.1489 0.0653 4.4331 0.97746 0.28402 0.9118-2.7885 2.414-3.0949 3.3186-0.30652 0.90489 1.22 3.966 0.44027 4.5182z"/></g></svg><svg width="16" height="16" id="unread" y="48"><path d="m7.9824 3.529c-3.4339 0-6.4103 1.9996-7.8729 4.9206 1.4626 2.9214 4.439 4.9204 7.8729 4.9204 3.4338 0 6.4102-1.9996 7.8729-4.9206-1.462-2.9207-4.439-4.9204-7.8726-4.9204zm3.8819 2.6095c0.9251 0.59007 1.709 1.3804 2.2978 2.3111-0.58881 0.93063-1.3727 1.721-2.2978 2.3111-1.1624 0.7414-2.5047 1.1333-3.8818 1.1333s-2.7195-0.39189-3.8819-1.1333c-0.9248-0.59-1.7087-1.3807-2.2975-2.3114 0.5888-0.9307 1.3727-1.721 2.2978-2.3111 0.0602-0.0384 0.1211-0.0757 0.1823-0.1122-0.15312 0.42021-0.23692 0.87374-0.23692 1.3469 0 2.174 1.7624 3.9364 3.9365 3.9364 2.174 0 3.9365-1.7624 3.9365-3.9364 0-0.4732-0.0838-0.92673-0.23692-1.347 0.0612 0.036566 0.12206 0.073839 0.18234 0.11228zm-3.8816 0.7427c0 0.81528-0.66089 1.4762-1.4762 1.4762-0.81528 0-1.4762-0.66089-1.4762-1.4762 0-0.81528 0.66089-1.4762 1.4762-1.4762 0.81527 0 1.4762 0.66089 1.4762 1.4762z" fill="#666"/></svg></svg>
