<?xml version="1.0" encoding="UTF-8" standalone="no"?>
<svg
   xmlns:dc="http://purl.org/dc/elements/1.1/"
   xmlns:cc="http://creativecommons.org/ns#"
   xmlns:rdf="http://www.w3.org/1999/02/22-rdf-syntax-ns#"
   xmlns:svg="http://www.w3.org/2000/svg"
   xmlns="http://www.w3.org/2000/svg"
   xmlns:sodipodi="http://sodipodi.sourceforge.net/DTD/sodipodi-0.dtd"
   xmlns:inkscape="http://www.inkscape.org/namespaces/inkscape"
   height="16.001"
   width="16"
   id="svg2"
   version="1.1"
   inkscape:version="0.48.4 r9939"
   sodipodi:docname="read.svg">
  <metadata
     id="metadata12">
    <rdf:RDF>
      <cc:Work
         rdf:about="">
        <dc:format>image/svg+xml</dc:format>
        <dc:type
           rdf:resource="http://purl.org/dc/dcmitype/StillImage" />
      </cc:Work>
    </rdf:RDF>
  </metadata>
  <defs
     id="defs10" />
  <sodipodi:namedview
     pagecolor="#ffffff"
     bordercolor="#666666"
     borderopacity="1"
     objecttolerance="10"
     gridtolerance="10"
     guidetolerance="10"
     inkscape:pageopacity="0"
     inkscape:pageshadow="2"
     inkscape:window-width="1366"
     inkscape:window-height="745"
     id="namedview8"
     showgrid="false"
     inkscape:zoom="14.749079"
     inkscape:cx="-2.2040272"
     inkscape:cy="8.0004997"
     inkscape:window-x="0"
     inkscape:window-y="0"
     inkscape:window-maximized="1"
     inkscape:current-layer="svg2" />
  <g
     transform="translate(-60.99995,-296.9989)"
     id="g4" />
  <path
     style="fill:#cccccc;fill-opacity:1"
     inkscape:connector-curvature="0"
     d="m 8.0004996,3.2833392 c -3.433907,0 -6.410294,1.9996259 -7.87290101,4.9205634 1.46260701,2.9209364 4.43899401,4.9205624 7.87290101,4.9205624 3.4338474,0 6.4102344,-1.999626 7.8729014,-4.9205624 C 14.410824,5.2829651 11.434347,3.2833392 8.0004996,3.2833392 z m 3.8818634,2.6094965 c 0.925096,0.590068 1.709004,1.3804357 2.29781,2.3110669 -0.588806,0.9306312 -1.372744,1.7209988 -2.29784,2.3110964 -1.162392,0.741404 -2.5047194,1.133295 -3.8818334,1.133295 -1.377143,0 -2.719472,-0.391891 -3.881863,-1.133326 -0.925066,-0.5900366 -1.708974,-1.3804016 -2.29781,-2.3110654 0.588806,-0.9306638 1.372744,-1.7210288 2.29781,-2.3110669 0.06025,-0.038442 0.121108,-0.075682 0.182338,-0.1122479 -0.153123,0.4202145 -0.236925,0.873738 -0.236925,1.3469419 0,2.1740274 1.762423,3.9364493 3.93645,3.9364493 2.1740274,0 3.9364514,-1.7624219 3.9364514,-3.9364493 0,-0.4732039 -0.0838,-0.9267274 -0.236925,-1.3469745 0.0612,0.036566 0.122061,0.073839 0.182337,0.1122805 z M 8.0004996,6.6354719 c 0,0.8152761 -0.660894,1.4761705 -1.476168,1.4761705 -0.815275,0 -1.476169,-0.6608944 -1.476169,-1.4761705 0,-0.8152759 0.660894,-1.4761676 1.476169,-1.4761676 0.815274,0 1.476168,0.6608917 1.476168,1.4761676 z"
     id="path3167" />
</svg>
