<svg xmlns="http://www.w3.org/2000/svg" height="16" width="16">
<path fill="#666" d="m7.9824,3.529c-3.4339,0-6.4103,1.9996-7.8729,4.9206,1.4626,2.9214,4.439,4.9204,7.8729,4.9204,3.4338,0,6.4102-1.9996,7.8729-4.9206-1.462-2.9207-4.439-4.9204-7.8726-4.9204zm3.8819,2.6095c0.9251,0.59007,1.709,1.3804,2.2978,2.3111-0.58881,0.93063-1.3727,1.721-2.2978,2.3111-1.1624,0.7414-2.5047,1.1333-3.8818,1.1333s-2.7195-0.39189-3.8819-1.1333c-0.9248-0.59-1.7087-1.3807-2.2975-2.3114,0.5888-0.9307,1.3727-1.721,2.2978-2.3111,0.0602-0.0384,0.1211-0.0757,0.1823-0.1122-0.15312,0.42021-0.23692,0.87374-0.23692,1.3469,0,2.174,1.7624,3.9364,3.9365,3.9364,2.174,0,3.9365-1.7624,3.9365-3.9364,0-0.4732-0.0838-0.92673-0.23692-1.347,0.0612,0.036566,0.12206,0.073839,0.18234,0.11228zm-3.8816,0.7427c0,0.81528-0.66089,1.4762-1.4762,1.4762-0.81528,0-1.4762-0.66089-1.4762-1.4762,0-0.81528,0.66089-1.4762,1.4762-1.4762,0.81527,0,1.4762,0.66089,1.4762,1.4762z"/>
</svg>