<svg width="16px" height="16px" viewBox="0 0 16 16" version="1.1" xmlns="http://www.w3.org/2000/svg" xmlns:xlink="http://www.w3.org/1999/xlink"><path d="M5.48847867,3.08727725 C5.25813834,3.08727725 5.06397458,3.00722867 4.90598737,2.84713149 C4.74800016,2.68703432 4.66900656,2.49085307 4.66900656,2.25858774 C4.66900656,2.02580397 4.748154,1.82936349 4.90644887,1.66926632 C5.06474375,1.50916915 5.25875368,1.42912056 5.48847867,1.42912056 L14.1805279,1.42912056 C14.4107657,1.42912056 14.6049038,1.50932468 14.7629423,1.66973292 C14.9209808,1.83014117 15,2.02642611 15,2.25858774 C15,2.49085307 14.9208269,2.68703432 14.7624808,2.84713149 C14.6041346,3.00722867 14.4101503,3.08727725 14.1805279,3.08727725 L5.48847867,3.08727725 Z M5.48847867,8.82806737 C5.25813834,8.82806737 5.06397458,8.74804471 4.90598737,8.58799938 C4.74800016,8.42795405 4.66900656,8.23179872 4.66900656,7.9995334 C4.66900656,7.76664593 4.748154,7.57033507 4.90644887,7.41060081 C5.06474375,7.25086655 5.25875368,7.17099942 5.48847867,7.17099942 L14.1805279,7.17099942 C14.4107657,7.17099942 14.6049038,7.25102209 14.7629423,7.41106741 C14.9209808,7.57111274 15,7.76726807 15,7.9995334 C15,8.23242086 14.9208269,8.42873172 14.7624808,8.58846598 C14.6041346,8.74820024 14.4101503,8.82806737 14.1805279,8.82806737 L5.48847867,8.82806737 Z M5.48847867,14.5699462 C5.25813834,14.5699462 5.06397458,14.4897421 4.90598737,14.3293339 C4.74800016,14.1689256 4.66900656,13.9726407 4.66900656,13.740479 C4.66900656,13.5082137 4.748154,13.3120325 4.90644887,13.1519353 C5.06474375,12.9918381 5.25875368,12.9117895 5.48847867,12.9117895 L14.1805279,12.9117895 C14.4107657,12.9117895 14.6049038,12.9919937 14.7629423,13.1524019 C14.9209808,13.3128101 15,13.5088359 15,13.740479 C15,13.9732628 14.9208269,14.1697033 14.7624808,14.3298005 C14.6041346,14.4898976 14.4101503,14.5699462 14.1805279,14.5699462 L5.48847867,14.5699462 Z M2.24482228,3.51717549 C1.90351658,3.51717549 1.61071978,3.39518435 1.36643187,3.15120206 C1.12214396,2.90721978 1,2.60968167 1,2.25858774 C1,1.91298938 1.12214396,1.61682516 1.36643187,1.3700951 C1.61071978,1.12336503 1.90351658,1 2.24482228,1 C2.59258899,1 2.88715489,1.12336503 3.12851996,1.3700951 C3.36988503,1.61682516 3.49056757,1.91298938 3.49056757,2.25858774 C3.49056757,2.60968167 3.36988503,2.90721978 3.12851996,3.15120206 C2.88715489,3.39518435 2.59258899,3.51717549 2.24482228,3.51717549 Z M2.24482228,9.25812114 C1.90351658,9.25812114 1.61071978,9.13628553 1.36643187,8.89261432 C1.12214396,8.6489431 1,8.35124946 1,7.9995334 C1,7.65383134 1.12214396,7.3576412 1.36643187,7.11096298 C1.61071978,6.86428476 1.90351658,6.74094565 2.24482228,6.74094565 C2.59258899,6.74094565 2.88715489,6.86428476 3.12851996,7.11096298 C3.36988503,7.3576412 3.49056757,7.65383134 3.49056757,7.9995334 C3.49056757,8.35124946 3.36988503,8.6489431 3.12851996,8.89261432 C2.88715489,9.13628553 2.59258899,9.25812114 2.24482228,9.25812114 Z M2.24482228,15 C1.90351658,15 1.61071978,14.8764794 1.36643187,14.6294383 C1.12214396,14.3823972 1,14.0860774 1,13.740479 C1,13.3953991 1.12214396,13.0993645 1.36643187,12.8523752 C1.61071978,12.6053859 1.90351658,12.4818913 2.24482228,12.4818913 C2.59258899,12.4818913 2.88715489,12.6053859 3.12851996,12.8523752 C3.36988503,13.0993645 3.49056757,13.3953991 3.49056757,13.740479 C3.49056757,14.0860774 3.36988503,14.3823972 3.12851996,14.6294383 C2.88715489,14.8764794 2.59258899,15 2.24482228,15 Z" fill="#FFFFFF" fill-rule="nonzero"/></svg>