<svg width="24px" height="24px" viewBox="0 0 24 24" version="1.1" xmlns="http://www.w3.org/2000/svg" xmlns:xlink="http://www.w3.org/1999/xlink"><path d="M7.03253937,22.0387039 C6.71256765,22.0387039 6.46048482,21.9359283 6.27629089,21.7303772 C6.09209696,21.524826 6,21.2382431 6,20.8706284 L6,5.59026337 C6,4.74177297 6.21680959,4.09793981 6.65042877,3.65876389 C7.08404795,3.21958796 7.72201029,3 8.5643158,3 L15.4904327,3 C16.3333181,3 16.9701691,3.21958796 17.4009857,3.65876389 C17.8318024,4.09793981 18.0472107,4.74177297 18.0472107,5.59026337 L18.0472107,20.8706284 C18.0472107,21.2382431 17.9550896,21.524826 17.7708473,21.7303772 C17.5866051,21.9359283 17.3345464,22.0387039 17.0146713,22.0387039 C16.7856369,22.0387039 16.5744565,21.9666354 16.3811302,21.8224983 C16.1878039,21.6783613 15.8980077,21.4187164 15.5117416,21.0435638 L12.1089859,17.6792221 C12.0545781,17.6252975 12.000412,17.6252975 11.9464874,17.6792221 L8.53633881,21.0426941 C8.15065257,21.41775 7.86071142,21.6775157 7.66651535,21.821991 C7.47231929,21.9664663 7.26099396,22.0387039 7.03253937,22.0387039 Z M7.816185,19.4159698 L11.4976959,15.8439026 C11.6620789,15.6806793 11.8372129,15.5990677 12.023098,15.5990677 C12.2089831,15.5990677 12.384407,15.6806793 12.5493698,15.8439026 L16.2394333,19.4159698 C16.3000259,19.4709574 16.3578644,19.4919764 16.4129486,19.4790268 C16.4680328,19.4660772 16.495575,19.4144236 16.495575,19.3240662 L16.495575,5.65839386 C16.495575,5.28990936 16.4019801,5.01472982 16.2147903,4.83285522 C16.0276006,4.65098063 15.7497635,4.56004333 15.381279,4.56004333 L8.6659317,4.56004333 C8.29735057,4.56004333 8.01948929,4.65098063 7.83234787,4.83285522 C7.64520645,5.01472982 7.55163574,5.28990936 7.55163574,5.65839386 L7.55163574,19.3240662 C7.55163574,19.4144236 7.58055496,19.4660772 7.6383934,19.4790268 C7.69623184,19.4919764 7.75549571,19.4709574 7.816185,19.4159698 Z" fill="#FFFFFF" fill-rule="nonzero"/></svg>