<svg width="16px" height="16px" viewBox="0 0 16 16" version="1.1" xmlns="http://www.w3.org/2000/svg" xmlns:xlink="http://www.w3.org/1999/xlink"><path d="M2.24118601,13.754291 C2.13180376,13.6480118 2.05981317,13.5227652 2.02521425,13.3785513 C1.99061532,13.2343374 1.99162381,13.0907829 2.02823972,12.9478878 C2.06485562,12.8049927 2.13448013,12.6822673 2.23711326,12.5797118 L6.81487674,7.99438465 L2.23711326,3.41790119 C2.13448013,3.31526805 2.06609683,3.1922906 2.03196337,3.04896883 C1.9978299,2.90564705 1.9978299,2.76211194 2.03196337,2.61836349 C2.06609683,2.47461505 2.13583771,2.34960122 2.24118601,2.24332202 C2.34746521,2.13300886 2.47271177,2.06078554 2.61692567,2.02665207 C2.76113957,1.99251861 2.90570256,1.99251861 3.05061465,2.02665207 C3.19552673,2.06078554 3.31972601,2.13118582 3.42321248,2.23785291 L8.00109232,6.81433637 L12.5761794,2.23924927 C12.6815277,2.13072036 12.80563,2.05938917 12.9484863,2.0252557 C13.0913427,1.99112224 13.234199,1.99158769 13.3770553,2.02665207 C13.5199116,2.06171645 13.6464964,2.13440523 13.7568095,2.24471839 C13.8630887,2.35092002 13.934769,2.47546839 13.9718504,2.61836349 C14.0089317,2.7612586 14.0093778,2.90413432 13.9731885,3.04699064 C13.9369993,3.18984696 13.866696,3.31394926 13.7622786,3.41929756 L9.18719153,7.99438465 L13.7622786,12.5769191 C13.866696,12.6822673 13.9359714,12.8063697 13.9701049,12.949226 C14.0042384,13.0920823 14.0037923,13.2351713 13.9687667,13.3784931 C13.9337411,13.5218149 13.8630887,13.6466154 13.7568095,13.7528946 C13.6506079,13.8622768 13.525051,13.9345002 13.3801389,13.9695645 C13.2352269,14.0046289 13.0913427,14.0042992 12.9484863,13.9685754 C12.80563,13.9328517 12.6815277,13.8623156 12.5761794,13.7569673 L8.00109232,9.18048387 L3.42321248,13.7583637 C3.31972601,13.8618502 3.19653522,13.931688 3.05364011,13.9678773 C2.91074501,14.0040665 2.7671905,14.0040665 2.6229766,13.9678773 C2.4787627,13.931688 2.35149917,13.8604926 2.24118601,13.754291 Z" fill="#FFFFFF" fill-rule="nonzero"/></svg>