<svg width="24px" height="24px" viewBox="0 0 24 24" version="1.1" xmlns="http://www.w3.org/2000/svg" xmlns:xlink="http://www.w3.org/1999/xlink"><path d="M12,21 C10.7705882,21 9.61323529,20.7647059 8.52794118,20.2941176 C7.44264706,19.8235294 6.48529412,19.1735294 5.65588235,18.3441176 C4.82647059,17.5147059 4.17647059,16.5573529 3.70588235,15.4720588 C3.23529412,14.3867647 3,13.2294118 3,12 C3,10.7705882 3.23529412,9.61323529 3.70588235,8.52794118 C4.17647059,7.44264706 4.825,6.48529412 5.65147059,5.65588235 C6.47794118,4.82647059 7.43382353,4.17647059 8.51911765,3.70588235 C9.60441176,3.23529412 10.7617647,3 11.9911765,3 C13.2205882,3 14.3794118,3.23529412 15.4676471,3.70588235 C16.5558824,4.17647059 17.5147059,4.82647059 18.3441176,5.65588235 C19.1735294,6.48529412 19.8235294,7.44264706 20.2941176,8.52794118 C20.7647059,9.61323529 21,10.7705882 21,12 C21,13.2294118 20.7647059,14.3867647 20.2941176,15.4720588 C19.8235294,16.5573529 19.1735294,17.5147059 18.3441176,18.3441176 C17.5147059,19.1735294 16.5573529,19.8235294 15.4720588,20.2941176 C14.3867647,20.7647059 13.2294118,21 12,21 Z M12,19.5 C13.0411765,19.5 14.0147059,19.3058824 14.9205882,18.9176471 C15.8264706,18.5294118 16.6235294,17.9926471 17.3117647,17.3073529 C18,16.6220588 18.5367647,15.8264706 18.9220588,14.9205882 C19.3073529,14.0147059 19.5,13.0411765 19.5,12 C19.5,10.9588235 19.3058824,9.98529412 18.9176471,9.07941176 C18.5294118,8.17352941 17.9926471,7.37647059 17.3073529,6.68823529 C16.6220588,6 15.825,5.46323529 14.9161765,5.07794118 C14.0073529,4.69264706 13.0323529,4.5 11.9911765,4.5 C10.95,4.5 9.97647059,4.69264706 9.07058824,5.07794118 C8.16470588,5.46323529 7.37058824,6 6.68823529,6.68823529 C6.00588235,7.37647059 5.47205882,8.17352941 5.08676471,9.07941176 C4.70147059,9.98529412 4.50882353,10.9588235 4.50882353,12 C4.50882353,13.0411765 4.70147059,14.0147059 5.08676471,14.9205882 C5.47205882,15.8264706 6.00735294,16.6220588 6.69264706,17.3073529 C7.37794118,17.9926471 8.17352941,18.5294118 9.07941176,18.9176471 C9.98529412,19.3058824 10.9588235,19.5 12,19.5 Z M7.87941176,13.2705882 C7.52647059,13.2705882 7.225,13.1455882 6.975,12.8955882 C6.725,12.6455882 6.6,12.3441176 6.6,11.9911765 C6.6,11.6382353 6.725,11.3367647 6.975,11.0867647 C7.225,10.8367647 7.52647059,10.7117647 7.87941176,10.7117647 C8.22647059,10.7117647 8.52647059,10.8367647 8.77941176,11.0867647 C9.03235294,11.3367647 9.15882353,11.6382353 9.15882353,11.9911765 C9.15882353,12.3441176 9.03382353,12.6455882 8.78382353,12.8955882 C8.53382353,13.1455882 8.23235294,13.2705882 7.87941176,13.2705882 Z M11.9911765,13.2705882 C11.6441176,13.2705882 11.3455882,13.1455882 11.0955882,12.8955882 C10.8455882,12.6455882 10.7205882,12.3441176 10.7205882,11.9911765 C10.7205882,11.6382353 10.8455882,11.3367647 11.0955882,11.0867647 C11.3455882,10.8367647 11.6441176,10.7117647 11.9911765,10.7117647 C12.3441176,10.7117647 12.6455882,10.8367647 12.8955882,11.0867647 C13.1455882,11.3367647 13.2705882,11.6382353 13.2705882,11.9911765 C13.2705882,12.3441176 13.1455882,12.6455882 12.8955882,12.8955882 C12.6455882,13.1455882 12.3441176,13.2705882 11.9911765,13.2705882 Z M16.1117647,13.2705882 C15.7588235,13.2705882 15.4573529,13.1455882 15.2073529,12.8955882 C14.9573529,12.6455882 14.8323529,12.3441176 14.8323529,11.9911765 C14.8323529,11.6382353 14.9573529,11.3367647 15.2073529,11.0867647 C15.4573529,10.8367647 15.7588235,10.7117647 16.1117647,10.7117647 C16.4647059,10.7117647 16.7661765,10.8367647 17.0161765,11.0867647 C17.2661765,11.3367647 17.3911765,11.6382353 17.3911765,11.9911765 C17.3911765,12.3441176 17.2661765,12.6455882 17.0161765,12.8955882 C16.7661765,13.1455882 16.4647059,13.2705882 16.1117647,13.2705882 Z" fill="#FFFFFF" fill-rule="nonzero"/></svg>