<svg width="16px" height="16px" viewBox="0 0 16 16" version="1.1" xmlns="http://www.w3.org/2000/svg" xmlns:xlink="http://www.w3.org/1999/xlink"><path d="M7.99661345,15.0029297 C7.03934849,15.0029297 6.13852604,14.8210968 5.29414611,14.4574311 C4.44976617,14.0937654 3.70585389,13.5889252 3.06240929,12.9429103 C2.41896468,12.2968955 1.91436865,11.5514937 1.54862119,10.7067051 C1.18287373,9.86191646 1,8.96065799 1,8.00292969 C1,7.04520139 1.18287373,6.14394292 1.54862119,5.29915428 C1.91436865,4.45436563 2.41896468,3.71009329 3.06240929,3.06633724 C3.70585389,2.42258119 4.44863732,1.91774092 5.29075955,1.55181643 C6.13288179,1.18589193 7.03257539,1.00292969 7.98984035,1.00292969 C8.95162071,1.00292969 9.85470085,1.18589193 10.6990808,1.55181643 C11.5434607,1.91774092 12.2885019,2.42258119 12.9342042,3.06633724 C13.5799065,3.71009329 14.0856313,4.45436563 14.4513788,5.29915428 C14.8171263,6.14394292 15,7.04520139 15,8.00292969 C15,8.96065799 14.8171263,9.86191646 14.4513788,10.7067051 C14.0856313,11.5514937 13.5799065,12.2968955 12.9342042,12.9429103 C12.2885019,13.5889252 11.5434607,14.0937654 10.6990808,14.4574311 C9.85470085,14.8210968 8.95387841,15.0029297 7.99661345,15.0029297 Z M7.99661345,13.6205483 C8.77777778,13.6205483 9.507015,13.4759855 10.1843251,13.18686 C10.8616352,12.8977345 11.4576681,12.4956693 11.9724238,11.9806644 C12.4871795,11.4656596 12.8890502,10.8693382 13.1780358,10.1917003 C13.4670214,9.51406231 13.6115143,8.78447212 13.6115143,8.00292969 C13.6115143,7.22590484 13.4670214,6.49744405 13.1780358,5.81754731 C12.8890502,5.13765057 12.4871795,4.54019977 11.9724238,4.02519493 C11.4576681,3.51019009 10.8605064,3.10812491 10.1809386,2.81899939 C9.50137075,2.52987386 8.77100468,2.3853111 7.98984035,2.3853111 C7.21319142,2.3853111 6.48508305,2.52987386 5.80551524,2.81899939 C5.12594743,3.10812491 4.53104338,3.51019009 4.0208031,4.02519493 C3.51056281,4.54019977 3.11094985,5.13765057 2.8219642,5.81754731 C2.53297855,6.49744405 2.38848573,7.22590484 2.38848573,8.00292969 C2.38848573,8.78447212 2.53297855,9.51406231 2.8219642,10.1917003 C3.11094985,10.8693382 3.51169166,11.4656596 4.02418965,11.9806644 C4.53668763,12.4956693 5.13272053,12.8977345 5.81228834,13.18686 C6.49185615,13.4759855 7.21996452,13.6205483 7.99661345,13.6205483 Z M7.26511853,11.2217099 C7.13868731,11.2217099 7.02580229,11.193475 6.92646347,11.1370052 C6.82712466,11.0805354 6.73004354,10.9958306 6.63522013,10.882891 L5.03676826,8.93129368 C4.91936784,8.78221333 4.86066763,8.63087419 4.86066763,8.47727625 C4.86066763,8.31012556 4.91823899,8.16669219 5.03338171,8.04697615 C5.14852443,7.92726012 5.287373,7.8674021 5.44992743,7.8674021 C5.55378165,7.8674021 5.64747621,7.88886063 5.73101113,7.9317777 C5.81454604,7.97469477 5.8969521,8.05036434 5.97822932,8.15878642 L7.23802612,9.75801197 L9.91340106,5.46856376 C10.0533785,5.23816686 10.2294791,5.12296841 10.441703,5.12296841 C10.599742,5.12296841 10.7419771,5.17492065 10.8684083,5.27882514 C10.9948395,5.38272962 11.0580552,5.51825721 11.0580552,5.68540791 C11.0580552,5.76220687 11.0411224,5.84013524 11.0072569,5.919193 C10.9733914,5.99825076 10.9338816,6.07166154 10.8887276,6.13942533 L7.86115143,10.8761146 C7.7166586,11.1065115 7.51798097,11.2217099 7.26511853,11.2217099 Z" fill="#FFFFFF" fill-rule="nonzero"/></svg>