<svg width="16px" height="16px" viewBox="0 0 16 16" version="1.1" xmlns="http://www.w3.org/2000/svg" xmlns:xlink="http://www.w3.org/1999/xlink"><path d="M7.99661345,15.0029297 C7.03934849,15.0029297 6.13852604,14.8210968 5.29414611,14.4574311 C4.44976617,14.0937654 3.70585389,13.5889252 3.06240929,12.9429103 C2.41896468,12.2968955 1.91436865,11.5514937 1.54862119,10.7067051 C1.18287373,9.86191646 1,8.96065799 1,8.00292969 C1,7.04520139 1.18287373,6.14394292 1.54862119,5.29915428 C1.91436865,4.45436563 2.41896468,3.71009329 3.06240929,3.06633724 C3.70585389,2.42258119 4.44863732,1.91774092 5.29075955,1.55181643 C6.13288179,1.18589193 7.03257539,1.00292969 7.98984035,1.00292969 C8.95162071,1.00292969 9.85470085,1.18589193 10.6990808,1.55181643 C11.5434607,1.91774092 12.2885019,2.42258119 12.9342042,3.06633724 C13.5799065,3.71009329 14.0856313,4.45436563 14.4513788,5.29915428 C14.8171263,6.14394292 15,7.04520139 15,8.00292969 C15,8.96065799 14.8171263,9.86191646 14.4513788,10.7067051 C14.0856313,11.5514937 13.5799065,12.2968955 12.9342042,12.9429103 C12.2885019,13.5889252 11.5434607,14.0937654 10.6990808,14.4574311 C9.85470085,14.8210968 8.95387841,15.0029297 7.99661345,15.0029297 Z M7.99661345,13.6205483 C8.77777778,13.6205483 9.507015,13.4759855 10.1843251,13.18686 C10.8616352,12.8977345 11.4576681,12.4956693 11.9724238,11.9806644 C12.4871795,11.4656596 12.8890502,10.8693382 13.1780358,10.1917003 C13.4670214,9.51406231 13.6115143,8.78447212 13.6115143,8.00292969 C13.6115143,7.22590484 13.4670214,6.49744405 13.1780358,5.81754731 C12.8890502,5.13765057 12.4871795,4.54019977 11.9724238,4.02519493 C11.4576681,3.51019009 10.8605064,3.10812491 10.1809386,2.81899939 C9.50137075,2.52987386 8.77100468,2.3853111 7.98984035,2.3853111 C7.21319142,2.3853111 6.48508305,2.52987386 5.80551524,2.81899939 C5.12594743,3.10812491 4.53104338,3.51019009 4.0208031,4.02519493 C3.51056281,4.54019977 3.11094985,5.13765057 2.8219642,5.81754731 C2.53297855,6.49744405 2.38848573,7.22590484 2.38848573,8.00292969 C2.38848573,8.78447212 2.53297855,9.51406231 2.8219642,10.1917003 C3.11094985,10.8693382 3.51169166,11.4656596 4.02418965,11.9806644 C4.53668763,12.4956693 5.13272053,12.8977345 5.81228834,13.18686 C6.49185615,13.4759855 7.21996452,13.6205483 7.99661345,13.6205483 Z M5.76826318,10.8490091 C5.60119336,10.8490091 5.45782938,10.789151 5.33817126,10.669435 C5.21851314,10.549719 5.15868408,10.4040268 5.15868408,10.2323585 C5.15868408,10.0652078 5.21964199,9.92290387 5.34155781,9.80544663 L7.12965651,8.00970607 L5.34155781,6.21396551 C5.21964199,6.09650826 5.15868408,5.95420429 5.15868408,5.7870536 C5.15868408,5.6199029 5.21851314,5.47759894 5.33817126,5.36014169 C5.45782938,5.24268445 5.60119336,5.18395582 5.76826318,5.18395582 C5.94436381,5.18395582 6.09111434,5.24494324 6.20851476,5.36691807 L7.99661345,7.14910587 L9.80503145,5.36014169 C9.92694727,5.23364927 10.0691824,5.17040307 10.2317368,5.17040307 C10.403322,5.17040307 10.5478149,5.23026108 10.6652153,5.34997712 C10.7826157,5.46969316 10.8413159,5.61538532 10.8413159,5.7870536 C10.8413159,5.94516912 10.780358,6.0852143 10.6584422,6.20718913 L8.87034349,8.00970607 L10.6516691,9.79867025 C10.7781003,9.92064508 10.8413159,10.0652078 10.8413159,10.2323585 C10.8413159,10.4040268 10.7814869,10.549719 10.6618287,10.669435 C10.5421706,10.789151 10.3988066,10.8490091 10.2317368,10.8490091 C10.0556362,10.8490091 9.90662796,10.7857629 9.78471214,10.6592704 L7.99661345,8.87708264 L6.21528786,10.6592704 C6.09788744,10.7857629 5.94887921,10.8490091 5.76826318,10.8490091 Z" fill="#FFFFFF" fill-rule="nonzero"/></svg>