<svg width="16px" height="16px" viewBox="0 0 16 16" version="1.1" xmlns="http://www.w3.org/2000/svg" xmlns:xlink="http://www.w3.org/1999/xlink"><g stroke="none" stroke-width="1" fill="none" fill-rule="evenodd"><path d="M12.5624532,0 C13.3208311,0 13.9306091,0.208222441 14.3623068,0.640410328 C14.7930777,1.07167039 15,1.6800768 15,2.43811873 L14.9991846,6.50009952 L14.9990843,7 L5,7 L5.00012417,6.49987691 L5.00113263,2.43801921 C5.00113263,1.68017757 5.20778903,1.07186804 5.63807231,0.64061051 C6.06947527,0.208230778 6.67951183,0 7.4386794,0 L12.5624532,0 Z M12.5624532,1 L7.4386794,1 C6.92984893,1 6.57845009,1.119947 6.35498025,1.34392282 C6.13039074,1.56902084 6.00961074,1.92454634 6.00961073,2.4381423 L6.00759379,6 L13.9907065,6 L13.9915219,2.43801921 C13.9915219,1.98881862 13.8989707,1.66054351 13.7252075,1.4346971 L13.6457985,1.344123 C13.4218851,1.11995533 13.0705968,1 12.5624532,1 Z" fill="#FFFFFF" fill-rule="nonzero"/><path d="M2.83036764,14.1337865 C2.57437373,14.1337865 2.37198065,14.0513948 2.22318839,13.8866113 C2.07439613,13.7218278 2,13.4954143 2,13.2073707 L2,1.95653927 C2,1.31480756 2.16389321,0.828284751 2.49167964,0.496970851 C2.81946606,0.16565695 3.30069766,-9.36916249e-07 3.93537442,-9.36916249e-07 L9.06462558,-9.36916249e-07 C9.69856325,-9.36916249e-07 11.9773707,0.318830819 11.9773707,0.999999063 C11.1976024,1.11119343 11,1.41372575 11,1.95653927 L11,13.2073707 C11,13.4954143 10.9256207,13.7218278 10.776862,13.8866113 C10.6281033,14.0513948 10.4256935,14.1337865 10.1696324,14.1337865 C9.99319141,14.1337865 9.83191861,14.0810255 9.68581395,13.9755036 C9.53970929,13.8699817 9.32717052,13.6829752 9.04819763,13.4144839 L6.55568371,10.950089 C6.51859483,10.9094391 6.48147236,10.9094391 6.44431629,10.950089 L3.95301179,13.4132745 C3.67484518,13.6852596 3.46123137,13.8733412 3.31217035,13.9775193 C3.16310933,14.0816974 3.00250843,14.1337865 2.83036764,14.1337865 Z" fill="#FFFFFF" fill-rule="nonzero"/></g></svg>