<svg width="16px" height="16px" viewBox="0 0 16 16" version="1.1" xmlns="http://www.w3.org/2000/svg" xmlns:xlink="http://www.w3.org/1999/xlink"><path d="M8.29012479,5.25993935 C8.66769447,5.33123686 8.98975416,5.43571175 9.25630385,5.57336402 C9.52285354,5.71101628 9.75053776,5.8762938 9.9393565,6.06919655 C10.4799137,6.60463882 10.8391609,7.1951623 11.0170979,7.84076701 C11.195035,8.48637171 11.1943401,9.1310962 11.0150131,9.77494047 C10.8356862,10.4187847 10.4797103,11.0066676 9.94708553,11.538589 L7.68288778,13.8038591 C7.15385631,14.3322597 6.56719614,14.6859881 5.92290726,14.8650444 C5.27861839,15.0441006 4.63324475,15.0449809 3.98678632,14.867685 C3.3403279,14.6903892 2.74685398,14.3314472 2.20636457,13.790859 C1.66940068,13.2554168 1.31174679,12.6646901 1.13340291,12.0186792 C0.955059033,11.3726682 0.955533622,10.7277406 1.13482668,10.0838963 C1.31411974,9.44005207 1.66912948,8.85257549 2.19985591,8.3214666 L4.06916146,6.46458288 C4.01221075,6.71666325 3.99885445,6.98027107 4.02909257,7.25540633 C4.05933069,7.53054159 4.12634947,7.78544881 4.23014893,8.02012798 L3.11564376,9.13204412 C2.74926083,9.49868801 2.50513548,9.90216556 2.38326773,10.3424768 C2.26139998,10.782788 2.26178982,11.2243857 2.38443725,11.6672698 C2.50708469,12.110154 2.75200666,12.516306 3.11920318,12.885726 C3.48551832,13.2523699 3.8902074,13.4958512 4.33327041,13.61617 C4.77633342,13.7364887 5.21851505,13.7358117 5.6598153,13.6141387 C6.10111555,13.4924657 6.50495714,13.2486797 6.87134008,12.8827806 L9.03546728,10.7280115 C9.40178242,10.3621124 9.64499249,9.95882101 9.76509748,9.5181374 C9.88520247,9.0774538 9.88393125,8.63566992 9.76128381,8.19278577 C9.63863638,7.74990162 9.3937144,7.34374956 9.02651788,6.97432961 C8.82820735,6.77553617 8.58818382,6.61528605 8.30644727,6.49357924 C8.02471072,6.37187242 7.68895574,6.29327928 7.29918233,6.25779979 L8.29012479,5.25993935 Z M7.70973597,10.7398944 C7.33291207,10.6694094 7.01122527,10.5651376 6.74467559,10.4270791 C6.4781259,10.2890206 6.25003489,10.1235399 6.06040256,9.93063717 C5.51991315,9.3951949 5.1609033,8.80467142 4.983373,8.15906672 C4.8058427,7.51346201 4.80652069,6.86894065 4.98540695,6.22550263 C5.16429322,5.58206461 5.52045554,4.99401251 6.05389391,4.46134631 L8.311583,2.2025762 C8.84495358,1.6698423 9.4337833,1.31393027 10.0780722,1.13484014 C10.722361,0.955750004 11.3675482,0.955055987 12.0136338,1.13275809 C12.6597193,1.31046019 13.2534136,1.66923292 13.7947166,2.20907626 C14.3308669,2.74533103 14.688114,3.33624385 14.8664579,3.9818147 C15.0448017,4.62738554 15.0445136,5.27209311 14.8655934,5.91593738 C14.6866733,6.55978165 14.3318839,7.14725823 13.8012252,7.67836712 L11.931818,9.5364696 C11.9887687,9.28357672 12.0021419,9.0204598 11.9719377,8.74711882 C11.9417335,8.47377785 11.8746978,8.21800734 11.7708305,7.97980731 L12.884217,6.8677896 C13.2505999,6.50195822 13.4947083,6.0986838 13.6165422,5.65796633 C13.738376,5.21724887 13.7379692,4.77565119 13.6153218,4.33317329 C13.4926744,3.89069539 13.2481592,3.4861345 12.8817763,3.11949061 C12.511122,2.75007066 12.1053482,2.50499817 11.6644547,2.38427313 C11.2235612,2.2635481 10.7824644,2.26403899 10.3411641,2.3857458 C9.89986389,2.50745262 9.49425954,2.75162797 9.12435108,3.11827185 L6.96561385,5.27304103 C6.59923091,5.63894012 6.35490217,6.04204527 6.23262763,6.48235648 C6.11035309,6.92266769 6.11055648,7.36424844 6.23323782,7.80709874 C6.35591915,8.24994903 6.60258694,8.65649041 6.97324118,9.02672287 C7.17236529,9.22477151 7.41260917,9.38463231 7.69397283,9.50630527 C7.97533649,9.62797823 8.31090502,9.70655445 8.70067843,9.74203393 L7.70973597,10.7398944 Z" fill="#FFFFFF" fill-rule="nonzero"/></svg>