<svg width="24px" height="24px" viewBox="0 0 24 24" version="1.1" xmlns="http://www.w3.org/2000/svg" xmlns:xlink="http://www.w3.org/1999/xlink"><path d="M4.64371329,21 C3.77619322,21 3.11869433,20.7799635 2.6712166,20.3398905 C2.22373887,19.8998174 2,19.2479607 2,18.3843202 L2,10.078707 C2,9.66942316 2.03399998,9.31811293 2.10199993,9.02477626 C2.16999989,8.73143958 2.28689462,8.47245173 2.45268412,8.2478127 C2.61847362,8.02317367 2.84538159,7.81322641 3.13340803,7.61797093 L10.2562901,2.66820362 C10.8959967,2.22273454 11.4720043,2 11.9843129,2 C12.4966215,2 13.0725838,2.22273454 13.7121999,2.66820362 L20.8674069,7.61797093 C21.1554333,7.81322641 21.3822055,8.02317367 21.5477233,8.2478127 C21.7132412,8.47245173 21.8300001,8.73143958 21.8980001,9.02477626 C21.966,9.31811293 22,9.66942316 22,10.078707 L22,18.3843202 C22,19.2479607 21.7868776,19.8998174 21.3606329,20.3398905 C20.9343882,20.7799635 20.3403846,21 19.5786221,21 L4.64371329,21 Z M4.62456283,19.602241 L19.3754372,19.602241 C19.7659615,19.602241 20.06843,19.4974714 20.2828427,19.2879323 C20.4972553,19.0783931 20.6044616,18.7701606 20.6044616,18.3632348 L20.6044616,9.88376888 C20.6044616,9.683072 20.5859677,9.50980884 20.5489797,9.36397938 C20.5119917,9.21814992 20.451258,9.0898463 20.3667787,8.97906852 C20.2822994,8.86829073 20.1711543,8.7653803 20.0333435,8.67033722 L12.7761366,3.70478986 C12.4824963,3.50046538 12.2185551,3.39830314 11.9843129,3.39830314 C11.7500707,3.39830314 11.4864011,3.50046538 11.1933041,3.70478986 L3.96665648,8.67033722 C3.82884565,8.7653803 3.71770059,8.86829073 3.63322128,8.97906852 C3.54874198,9.0898463 3.48814415,9.21814992 3.4514278,9.36397938 C3.41471144,9.50980884 3.39635326,9.683072 3.39635326,9.88376888 L3.39635326,18.3553447 C3.39635326,18.7622706 3.50342377,19.0718181 3.71756477,19.2839873 C3.93170577,19.4961564 4.23403846,19.602241 4.62456283,19.602241 Z M11.9961292,11.9606143 C12.2722035,11.9606143 12.5382273,12.0125116 12.7942005,12.1163063 C13.0501737,12.220101 13.2985411,12.3833202 13.5393026,12.6059641 L21.2565278,19.5543567 L20.3280704,20.4852438 L12.7610607,13.6524808 C12.5185789,13.4375456 12.2636017,13.330078 11.9961292,13.330078 C11.7285661,13.330078 11.4761695,13.4375456 11.2389393,13.6524808 L3.66500289,20.4852438 L2.74428712,19.5543567 L10.4528199,12.6059641 C10.6935814,12.3833202 10.9419714,12.220101 11.1979899,12.1163063 C11.4540084,12.0125116 11.7200548,11.9606143 11.9961292,11.9606143 Z M3.71566331,8.21040309 L9.54609351,14.0499749 L8.61328987,14.9774612 L2.78639095,9.14115415 L3.71566331,8.21040309 Z M20.2922142,8.20251307 L21.2145598,9.13340016 L15.3796476,14.9774612 L14.4539065,14.0499749 L20.2922142,8.20251307 Z" fill="#FFFFFF" fill-rule="nonzero"/></svg>