<svg width="15px" height="16px" viewBox="0 0 15 16" version="1.1" xmlns="http://www.w3.org/2000/svg" xmlns:xlink="http://www.w3.org/1999/xlink"><path d="M3.81598963,14 C3.21812158,14 2.76598963,13.8443938 2.45959378,13.5331815 C2.15319793,13.2219692 2,12.7621034 2,12.1535841 L2,6.56365598 C2,5.95519582 2.15319793,5.49535959 2.45959378,5.18414728 C2.76598963,4.87293497 3.21812158,4.71732882 3.81598963,4.71732882 L5.42013829,4.71732882 L5.42013829,5.83398308 L3.87977528,5.83398308 C3.62284644,5.83398308 3.42653414,5.90294742 3.29083838,6.0408761 C3.15514261,6.17880478 3.08729473,6.38572739 3.08729473,6.66164392 L3.08729473,12.0555961 C3.08729473,12.3308618 3.15514261,12.5376365 3.29083838,12.6759202 C3.42653414,12.8142039 3.62284644,12.8833457 3.87977528,12.8833457 L11.1157303,12.8833457 C11.3696629,12.8833457 11.5659752,12.8142039 11.7046672,12.6759202 C11.8433593,12.5376365 11.9127053,12.3308618 11.9127053,12.0555961 L11.9127053,6.66164392 C11.9127053,6.38572739 11.8433593,6.17880478 11.7046672,6.0408761 C11.5659752,5.90294742 11.3696629,5.83398308 11.1157303,5.83398308 L9.57986171,5.83398308 L9.57986171,4.71732882 L11.1840104,4.71732882 C11.7825699,4.71732882 12.2348747,4.8737042 12.5409248,5.18645497 C12.8469749,5.49920574 13,5.95827274 13,6.56365598 L13,12.1535841 C13,12.7590265 12.8469749,13.2181231 12.5409248,13.5308738 C12.2348747,13.8436246 11.7825699,14 11.1840104,14 L3.81598963,14 Z M7.48867761,9.47196297 C7.34906367,9.47196297 7.228983,9.42077965 7.12843561,9.31841302 C7.02788822,9.21604639 6.97761452,9.09421235 6.97761452,8.95291089 L6.97761452,3.2304683 L7.01892826,2.38567732 L6.67424373,2.80256986 L5.9008643,3.6530413 C5.81057332,3.75641385 5.69495823,3.80810012 5.55401901,3.80810012 C5.42587151,3.80810012 5.31816479,3.76536353 5.23089888,3.67989035 C5.14363296,3.59441717 5.1,3.48499434 5.1,3.35162187 C5.1,3.23032037 5.14747911,3.11901885 5.24243734,3.0177173 L7.09991357,1.18150846 C7.16905791,1.11428968 7.23460098,1.06723357 7.29654278,1.04034014 C7.35848459,1.01344671 7.42252953,1 7.48867761,1 C7.55782195,1 7.62353789,1.01344671 7.68582541,1.04034014 C7.74811294,1.06723357 7.81198502,1.11428968 7.87744166,1.18150846 L9.73491789,3.0177173 C9.83292999,3.11901885 9.88193604,3.23032037 9.88193604,3.35162187 C9.88193604,3.48499434 9.83679055,3.59441717 9.74649957,3.67989035 C9.65620859,3.76536353 9.54848747,3.80810012 9.42333621,3.80810012 C9.28539326,3.80810012 9.1713051,3.75641385 9.08107174,3.6530413 L8.3031115,2.80256986 L7.96292135,2.38567732 L8.00423509,3.2304683 L8.00423509,8.95291089 C8.00423509,9.09421235 7.95414866,9.21604639 7.8539758,9.31841302 C7.75380294,9.42077965 7.63203688,9.47196297 7.48867761,9.47196297 Z" fill="#FFFFFF" fill-rule="nonzero"/></svg>