<svg width="24px" height="24px" viewBox="0 0 24 24" version="1.1" xmlns="http://www.w3.org/2000/svg" xmlns:xlink="http://www.w3.org/1999/xlink"><g stroke="none" stroke-width="1" fill="none" fill-rule="evenodd"><path d="M11.9992736,3 C12.2490618,3 12.4527259,3.0809425 12.6102659,3.24282751 C12.767806,3.40471252 12.846576,3.61589551 12.846576,3.87637648 L12.846576,11.6805837 L12.7534805,14.2595921 L12.2380049,13.9987408 L14.8248255,11.0617253 L16.5841976,9.2919362 C16.660385,9.21325696 16.7498689,9.15184024 16.8526492,9.10768604 C16.9554296,9.06353184 17.0670272,9.04145474 17.187442,9.04145474 C17.4192325,9.04145474 17.6126064,9.12081296 17.7675639,9.27952941 C17.9225213,9.43824585 18,9.6387092 18,9.88091946 C18,10.1139944 17.91324,10.3228318 17.7397199,10.5074317 L12.6320568,15.7238408 C12.5483637,15.813466 12.4514951,15.8818988 12.3414511,15.9291393 C12.2314071,15.9763798 12.117348,16 11.9992736,16 C11.8845083,16 11.7723457,15.9763798 11.662786,15.9291393 C11.5532263,15.8818988 11.4545014,15.813466 11.3666115,15.7238408 L6.26524353,10.5074317 C6.08841451,10.3228318 6,10.1139944 6,9.88091946 C6,9.6387092 6.07747871,9.43824585 6.23243614,9.27952941 C6.38739357,9.12081296 6.58080788,9.04145474 6.81267907,9.04145474 C6.9330939,9.04145474 7.0444292,9.06353184 7.14668496,9.10768604 C7.24894072,9.15184024 7.33864654,9.21325696 7.41580243,9.2919362 L9.17239014,11.0617253 L11.7543683,13.9987408 L11.2437351,14.2595921 L11.1506396,11.6805837 L11.1506396,3.87637648 C11.1506396,3.61589551 11.2294096,3.40471252 11.3869497,3.24282751 C11.5444897,3.0809425 11.7485977,3 11.9992736,3 Z" fill="#FFFFFF" fill-rule="nonzero"/><rect fill="#FFFFFF" x="5" y="18" width="14" height="1.75" rx="0.875"/></g></svg>