<svg width="24px" height="24px" viewBox="0 0 24 24" version="1.1" xmlns="http://www.w3.org/2000/svg" xmlns:xlink="http://www.w3.org/1999/xlink"><path d="M5.83729907,20.8214101 C5.64115745,20.6733538 5.52250752,20.4774702 5.48134928,20.2337594 C5.44019105,19.9900486 5.47588449,19.7012506 5.58842961,19.3673654 L7.44365171,13.8867351 L2.71395047,10.5177431 C2.42328276,10.3083309 2.21960859,10.0931697 2.10292795,9.87225937 C1.98624732,9.65134908 1.96876984,9.42312404 2.05049552,9.18758425 C2.12591946,8.95830725 2.27570884,8.78681432 2.49986366,8.67310546 C2.72401848,8.5593966 3.01387386,8.50567356 3.36942979,8.51193636 L9.1761376,8.55039383 L10.9368336,3.0389389 C11.0487879,2.69820374 11.1923248,2.43986346 11.3674442,2.26391808 C11.5425637,2.08797269 11.7520719,2 11.9959689,2 C12.2455768,2 12.4579159,2.08797269 12.632986,2.26391808 C12.8080562,2.43986346 12.9516177,2.69820374 13.0636705,3.0389389 L14.8252527,8.55039383 L20.6301882,8.51193636 C20.9863349,8.50567356 21.2764856,8.55956784 21.5006405,8.6736192 C21.7247953,8.78767056 21.8745847,8.95928581 21.9500086,9.18846495 C22.0311435,9.4234176 22.0135183,9.65134908 21.8971331,9.87225937 C21.7807478,10.0931697 21.5772214,10.3083309 21.2865537,10.5177431 L16.5568524,13.8867351 L18.4119268,19.3673654 C18.5245704,19.7012506 18.5604608,19.9900486 18.5195979,20.2337594 C18.4787351,20.4774702 18.3602329,20.6733538 18.1640912,20.8214101 C17.9673588,20.9751422 17.7448041,21.0296236 17.4964269,20.9848544 C17.2480498,20.9400852 16.9785274,20.8123584 16.6878597,20.6016741 L11.9959689,17.1763169 L7.31161059,20.6016741 C7.02153367,20.8123584 6.75230664,20.9400852 6.50392951,20.9848544 C6.25555238,21.0296236 6.03334223,20.9751422 5.83729907,20.8214101 Z" fill="#FFFFFF" fill-rule="nonzero"/></svg>