<svg width="16px" height="16px" viewBox="0 0 16 16" version="1.1" xmlns="http://www.w3.org/2000/svg" xmlns:xlink="http://www.w3.org/1999/xlink"><path d="M8.44138847,13.3108579 C7.98434394,13.7686075 7.51680129,13.9983156 7.03876053,14 C6.56071977,14.0016489 6.08775977,13.7702421 5.61988054,13.3057619 L1.69688823,9.38841681 C1.229009,8.92137253 0.996736264,8.44867129 1.00003464,7.97031309 C1.00340377,7.49195488 1.23362497,7.02425357 1.69073361,6.56720914 L7.73591532,0.534030448 C7.89446086,0.374737966 8.03987975,0.257207679 8.17217199,0.181439585 C8.30446424,0.105671491 8.44917791,0.0564895369 8.60631302,0.0338937221 C8.76344812,0.0112979074 8.95696599,-5.32907052e-14 9.18686664,-5.32907052e-14 L11.5272565,-5.32907052e-14 C11.7522206,-5.32907052e-14 11.9381414,0.0204323857 12.0850188,0.0612971571 C12.2318962,0.102161928 12.3680351,0.171183329 12.4934354,0.268361357 C12.6188358,0.365539386 12.7647515,0.49569769 12.9311827,0.658836267 L14.3411673,2.06737282 C14.5068291,2.23378058 14.6376148,2.38052517 14.7335243,2.5076066 C14.8294337,2.63468803 14.8978237,2.77165713 14.9386942,2.9185139 C14.9795647,3.06537067 15,3.25164992 15,3.47735166 L15,5.81231662 C15,6.04481314 14.9890691,6.23932945 14.9672074,6.39586556 C14.9453457,6.55240167 14.8975673,6.69719117 14.8238721,6.83023404 C14.750177,6.96327692 14.6323577,7.11075868 14.4704143,7.27267933 L8.44138847,13.3108579 Z M7.65936726,12.3766412 L13.6248274,6.41201916 C13.6848991,6.35202006 13.730674,6.28883191 13.7621523,6.2224547 C13.7936307,6.15607749 13.8093698,6.07199221 13.8093698,5.97019887 L13.8093698,3.48052469 C13.8093698,3.3168092 13.747471,3.1727088 13.6236734,3.04822349 L11.9502904,1.37997929 C11.8264928,1.25292992 11.6823721,1.18940523 11.5179284,1.18940523 L9.03290501,1.18940523 C8.93481578,1.18940523 8.85212912,1.20672869 8.78484504,1.2413756 C8.71756095,1.27602252 8.65276115,1.32411475 8.59044564,1.38565228 L2.61998484,7.34527439 C2.41829287,7.54687393 2.31605247,7.7539862 2.31320919,7.96661122 C2.31047485,8.17923623 2.41476678,8.39083562 2.62613946,8.60140939 L6.40305575,12.3716413 C6.82387779,12.7950324 7.24264829,12.796699 7.65936726,12.3766412 Z M10.7631221,5.12271159 C10.5112957,5.12271159 10.3012373,5.03691159 10.1329469,4.8653116 C9.96465656,4.69371162 9.88051138,4.48534936 9.88051138,4.24022483 C9.88051138,3.9909978 9.96465656,3.78140159 10.1329469,3.61143619 C10.3012373,3.44147079 10.5112957,3.35648809 10.7631221,3.35648809 C11.0157821,3.35648809 11.2262572,3.44147079 11.3945475,3.61143619 C11.5628379,3.78140159 11.6469831,3.9909978 11.6469831,4.24022483 C11.6469831,4.48534936 11.5628379,4.69371162 11.3945475,4.8653116 C11.2262572,5.03691159 11.0157821,5.12271159 10.7631221,5.12271159 Z" fill="#FFFFFF" fill-rule="nonzero"/></svg>