<svg width="24px" height="24px" viewBox="0 0 24 24" version="1.1" xmlns="http://www.w3.org/2000/svg" xmlns:xlink="http://www.w3.org/1999/xlink"><path d="M3.86343928,11.7620481 C3.24269502,11.7620481 2.77693574,11.6060177 2.46616144,11.2939568 C2.15538715,10.9818959 2,10.5021943 2,9.85485222 L2,5.89841259 C2,5.25692601 2.15538715,4.78015227 2.46616144,4.46809136 C2.77693574,4.15603045 3.24269502,4 3.86343928,4 L5.82339856,4 C6.44997424,4 6.91719137,4.15603045 7.22504996,4.46809136 C7.53290854,4.78015227 7.68683784,5.25692601 7.68683784,5.89841259 L7.68683784,9.85485222 C7.68683784,10.5021943 7.53290854,10.9818959 7.22504996,11.2939568 C6.91719137,11.6060177 6.44997424,11.7620481 5.82339856,11.7620481 L3.86343928,11.7620481 Z M3.87912378,10.3579255 L5.80786487,10.3579255 C5.96873154,10.3579255 6.08905478,10.3164066 6.1688346,10.2333687 C6.24861441,10.1503308 6.28850432,10.0251177 6.28850432,9.85772952 L6.28850432,5.89644391 C6.28850432,5.72915665 6.24861441,5.60543272 6.1688346,5.52527214 C6.08905478,5.44511156 5.96873154,5.40503127 5.80786487,5.40503127 L3.87912378,5.40503127 C3.71825711,5.40503127 3.5995174,5.44511156 3.52290465,5.52527214 C3.4462919,5.60543272 3.40798552,5.72915665 3.40798552,5.89644391 L3.40798552,9.85772952 C3.40798552,10.0251177 3.4462919,10.1503308 3.52290465,10.2333687 C3.5995174,10.3164066 3.71825711,10.3579255 3.87912378,10.3579255 Z M11.0200958,11.7620481 C10.3993515,11.7620481 9.93359223,11.6060177 9.62281793,11.2939568 C9.31204364,10.9818959 9.15665649,10.5021943 9.15665649,9.85485222 L9.15665649,5.89841259 C9.15665649,5.25692601 9.31204364,4.78015227 9.62281793,4.46809136 C9.93359223,4.15603045 10.3993515,4 11.0200958,4 L12.9799042,4 C13.6064799,4 14.0737222,4.15603045 14.381631,4.46809136 C14.6895399,4.78015227 14.8434943,5.25692601 14.8434943,5.89841259 L14.8434943,9.85485222 C14.8434943,10.5021943 14.6895399,10.9818959 14.381631,11.2939568 C14.0737222,11.6060177 13.6064799,11.7620481 12.9799042,11.7620481 L11.0200958,11.7620481 Z M11.0356295,10.3579255 L12.9731177,10.3579255 C13.1339843,10.3579255 13.2527241,10.3164066 13.3293368,10.2333687 C13.4059496,10.1503308 13.4442559,10.0251177 13.4442559,9.85772952 L13.4442559,5.89644391 C13.4442559,5.72915665 13.4059496,5.60543272 13.3293368,5.52527214 C13.2527241,5.44511156 13.1339843,5.40503127 12.9731177,5.40503127 L11.0356295,5.40503127 C10.8747628,5.40503127 10.7558723,5.44511156 10.6789579,5.52527214 C10.6020435,5.60543272 10.5635863,5.72915665 10.5635863,5.89644391 L10.5635863,9.85772952 C10.5635863,10.0251177 10.6020435,10.1503308 10.6789579,10.2333687 C10.7558723,10.3164066 10.8747628,10.3579255 11.0356295,10.3579255 Z M18.1766014,11.7620481 C17.5552539,11.7620481 17.0893438,11.6060177 16.7788712,11.2939568 C16.4683985,10.9818959 16.3131622,10.5021943 16.3131622,9.85485222 L16.3131622,5.89841259 C16.3131622,5.25692601 16.4683985,4.78015227 16.7788712,4.46809136 C17.0893438,4.15603045 17.5552539,4 18.1766014,4 L20.1356558,4 C20.7628348,4 21.2303535,4.15603045 21.5382121,4.46809136 C21.8460707,4.78015227 22,5.25692601 22,5.89841259 L22,9.85485222 C22,10.5021943 21.8460707,10.9818959 21.5382121,11.2939568 C21.2303535,11.6060177 20.7628348,11.7620481 20.1356558,11.7620481 L18.1766014,11.7620481 Z M18.1835388,10.3579255 L20.1201222,10.3579255 C20.2809888,10.3579255 20.4013121,10.3164066 20.4810919,10.2333687 C20.5608717,10.1503308 20.6007616,10.0251177 20.6007616,9.85772952 L20.6007616,5.89644391 C20.6007616,5.72915665 20.5608717,5.60543272 20.4810919,5.52527214 C20.4013121,5.44511156 20.2809888,5.40503127 20.1201222,5.40503127 L18.1835388,5.40503127 C18.0285036,5.40503127 17.9110709,5.44511156 17.8312408,5.52527214 C17.7514107,5.60543272 17.7114957,5.72915665 17.7114957,5.89644391 L17.7114957,9.85772952 C17.7114957,10.0251177 17.7514107,10.1503308 17.8312408,10.2333687 C17.9110709,10.3164066 18.0285036,10.3579255 18.1835388,10.3579255 Z M3.86343928,21 C3.24269502,21 2.77693574,20.8439695 2.46616144,20.5319086 C2.15538715,20.2198477 2,19.743074 2,19.1015874 L2,15.1363644 C2,14.4948779 2.15538715,14.0181041 2.46616144,13.7060432 C2.77693574,13.3939823 3.24269502,13.2379519 3.86343928,13.2379519 L5.82339856,13.2379519 C6.44997424,13.2379519 6.91719137,13.3939823 7.22504996,13.7060432 C7.53290854,14.0181041 7.68683784,14.4948779 7.68683784,15.1363644 L7.68683784,19.1015874 C7.68683784,19.743074 7.53290854,20.2198477 7.22504996,20.5319086 C6.91719137,20.8439695 6.44997424,21 5.82339856,21 L3.86343928,21 Z M3.87912378,19.5958774 L5.80786487,19.5958774 C5.96873154,19.5958774 6.08905478,19.5543584 6.1688346,19.4713205 C6.24861441,19.3882826 6.28850432,19.2659974 6.28850432,19.1044647 L6.28850432,15.1431791 C6.28850432,14.9751851 6.24861441,14.8498207 6.1688346,14.7670856 C6.08905478,14.6843506 5.96873154,14.6429831 5.80786487,14.6429831 L3.87912378,14.6429831 C3.71825711,14.6429831 3.5995174,14.6843506 3.52290465,14.7670856 C3.4462919,14.8498207 3.40798552,14.9751851 3.40798552,15.1431791 L3.40798552,19.1044647 C3.40798552,19.2659974 3.4462919,19.3882826 3.52290465,19.4713205 C3.5995174,19.5543584 3.71825711,19.5958774 3.87912378,19.5958774 Z M11.0200958,21 C10.3993515,21 9.93359223,20.8439695 9.62281793,20.5319086 C9.31204364,20.2198477 9.15665649,19.743074 9.15665649,19.1015874 L9.15665649,15.1363644 C9.15665649,14.4948779 9.31204364,14.0181041 9.62281793,13.7060432 C9.93359223,13.3939823 10.3993515,13.2379519 11.0200958,13.2379519 L12.9799042,13.2379519 C13.6064799,13.2379519 14.0737222,13.3939823 14.381631,13.7060432 C14.6895399,14.0181041 14.8434943,14.4948779 14.8434943,15.1363644 L14.8434943,19.1015874 C14.8434943,19.743074 14.6895399,20.2198477 14.381631,20.5319086 C14.0737222,20.8439695 13.6064799,21 12.9799042,21 L11.0200958,21 Z M11.0356295,19.5958774 L12.9731177,19.5958774 C13.1339843,19.5958774 13.2527241,19.5543584 13.3293368,19.4713205 C13.4059496,19.3882826 13.4442559,19.2659974 13.4442559,19.1044647 L13.4442559,15.1431791 C13.4442559,14.9751851 13.4059496,14.8498207 13.3293368,14.7670856 C13.2527241,14.6843506 13.1339843,14.6429831 12.9731177,14.6429831 L11.0356295,14.6429831 C10.8747628,14.6429831 10.7558723,14.6843506 10.6789579,14.7670856 C10.6020435,14.8498207 10.5635863,14.9751851 10.5635863,15.1431791 L10.5635863,19.1044647 C10.5635863,19.2659974 10.6020435,19.3882826 10.6789579,19.4713205 C10.7558723,19.5543584 10.8747628,19.5958774 11.0356295,19.5958774 Z M18.1766014,21 C17.5552539,21 17.0893438,20.8439695 16.7788712,20.5319086 C16.4683985,20.2198477 16.3131622,19.743074 16.3131622,19.1015874 L16.3131622,15.1363644 C16.3131622,14.4948779 16.4683985,14.0181041 16.7788712,13.7060432 C17.0893438,13.3939823 17.5552539,13.2379519 18.1766014,13.2379519 L20.1356558,13.2379519 C20.7628348,13.2379519 21.2303535,13.3939823 21.5382121,13.7060432 C21.8460707,14.0181041 22,14.4948779 22,15.1363644 L22,19.1015874 C22,19.743074 21.8460707,20.2198477 21.5382121,20.5319086 C21.2303535,20.8439695 20.7628348,21 20.1356558,21 L18.1766014,21 Z M18.1835388,19.5958774 L20.1201222,19.5958774 C20.2809888,19.5958774 20.4013121,19.5543584 20.4810919,19.4713205 C20.5608717,19.3882826 20.6007616,19.2659974 20.6007616,19.1044647 L20.6007616,15.1431791 C20.6007616,14.9751851 20.5608717,14.8498207 20.4810919,14.7670856 C20.4013121,14.6843506 20.2809888,14.6429831 20.1201222,14.6429831 L18.1835388,14.6429831 C18.0285036,14.6429831 17.9110709,14.6843506 17.8312408,14.7670856 C17.7514107,14.8498207 17.7114957,14.9751851 17.7114957,15.1431791 L17.7114957,19.1044647 C17.7114957,19.2659974 17.7514107,19.3882826 17.8312408,19.4713205 C17.9110709,19.5543584 18.0285036,19.5958774 18.1835388,19.5958774 Z" fill="#FFFFFF" fill-rule="nonzero"/></svg>