<svg width="24px" height="24px" viewBox="0 0 24 24" version="1.1" xmlns="http://www.w3.org/2000/svg" xmlns:xlink="http://www.w3.org/1999/xlink"><path d="M9.05718562,7.96514614 C8.89960056,7.96514614 8.7693293,7.91425659 8.66637186,7.81247748 C8.56341442,7.71069838 8.5119357,7.5850727 8.5119357,7.43560046 C8.5119357,7.29201512 8.56341442,7.17096559 8.66637186,7.07245188 C8.7693293,6.97393817 8.89960056,6.92468132 9.05718562,6.92468132 L14.9879646,6.92468132 C15.1395784,6.92468132 15.2655112,6.97393817 15.3657629,7.07245188 C15.4660146,7.17096559 15.5161405,7.29201512 15.5161405,7.43560046 C15.5161405,7.5850727 15.4660146,7.71069838 15.3657629,7.81247748 C15.2655112,7.91425659 15.1395784,7.96514614 14.9879646,7.96514614 L9.05718562,7.96514614 Z M9.05718562,10.847569 C8.89960056,10.847569 8.7693293,10.7966794 8.66637186,10.6949003 C8.56341442,10.5931212 8.5119357,10.4675415 8.5119357,10.3181613 C8.5119357,10.1745759 8.56341442,10.0535034 8.66637186,9.9549437 C8.7693293,9.856384 8.89960056,9.80710415 9.05718562,9.80710415 L14.9879646,9.80710415 C15.1395784,9.80710415 15.2655112,9.856384 15.3657629,9.9549437 C15.4660146,10.0535034 15.5161405,10.1745759 15.5161405,10.3181613 C15.5161405,10.4675415 15.4660146,10.5931212 15.3657629,10.6949003 C15.2655112,10.7966794 15.1395784,10.847569 14.9879646,10.847569 L9.05718562,10.847569 Z M9.05718562,13.7301298 C8.89960056,13.7301298 8.7693293,13.6808499 8.66637186,13.5822902 C8.56341442,13.4837305 8.5119357,13.362658 8.5119357,13.2190727 C8.5119357,13.0696004 8.56341442,12.9439747 8.66637186,12.8421956 C8.7693293,12.7404165 8.89960056,12.689527 9.05718562,12.689527 L12.0701953,12.689527 C12.2218091,12.689527 12.3490947,12.7404165 12.4520521,12.8421956 C12.5550096,12.9439747 12.6064883,13.0696004 12.6064883,13.2190727 C12.6064883,13.362658 12.5550096,13.4837305 12.4520521,13.5822902 C12.3490947,13.6808499 12.2218091,13.7301298 12.0701953,13.7301298 L9.05718562,13.7301298 Z M5,18.3213653 L5,5.68649921 C5,4.79932393 5.22651104,4.12978024 5.67953311,3.67786814 C6.13255518,3.22595605 6.80331801,3 7.6918216,3 L16.3362546,3 C17.2301696,3 17.9022853,3.22595605 18.3526016,3.67786814 C18.802918,4.12978024 19.0280762,4.79932393 19.0280762,5.68649921 L19.0280762,18.3213653 C19.0280762,19.2085406 18.802918,19.8767735 18.3526016,20.3260641 C17.9022853,20.7753547 17.2301696,21 16.3362546,21 L7.6918216,21 C6.80331801,21 6.13255518,20.7753547 5.67953311,20.3260641 C5.22651104,19.8767735 5,19.2085406 5,18.3213653 Z M6.52868708,18.2540338 C6.52868708,18.6566431 6.63558648,18.9651078 6.84938528,19.179428 C7.06318408,19.3937482 7.38057011,19.5009083 7.80154335,19.5009083 L16.2265328,19.5009083 C16.6528242,19.5009083 16.9728926,19.3937482 17.1867381,19.179428 C17.4005835,18.9651078 17.5075063,18.6566431 17.5075063,18.2540338 L17.5075063,5.75396868 C17.5075063,5.35126745 17.4005835,5.04275673 17.1867381,4.82843652 C16.9728926,4.61411631 16.6528242,4.50695621 16.2265328,4.50695621 L7.80154335,4.50695621 C7.38057011,4.50695621 7.06318408,4.61411631 6.84938528,4.82843652 C6.63558648,5.04275673 6.52868708,5.35126745 6.52868708,5.75396868 L6.52868708,18.2540338 Z" fill="#FFFFFF" fill-rule="nonzero"/></svg>