<svg width="16px" height="16px" viewBox="0 0 16 16" version="1.1" xmlns="http://www.w3.org/2000/svg" xmlns:xlink="http://www.w3.org/1999/xlink"><path d="M2.8807947,15 C2.49668874,15 2.16335541,14.9141914 1.8807947,14.7425743 C1.598234,14.5709571 1.3807947,14.3406288 1.22847682,14.0515894 C1.07615894,13.7625499 1,13.4418968 1,13.08963 C1,12.7463957 1.08830022,12.4189682 1.26490066,12.1073476 L6.39072848,2.96873372 C6.56291391,2.6480806 6.79470199,2.4064617 7.08609272,2.24387702 C7.37748344,2.08129234 7.68211921,2 8,2 C8.31788079,2 8.62030905,2.08016328 8.90728477,2.24048984 C9.19426049,2.4008164 9.42825607,2.64356436 9.60927152,2.96873372 L14.7350993,12.1073476 C14.8233996,12.2608998 14.8896247,12.4212263 14.9337748,12.5883273 C14.9779249,12.7554282 15,12.9225291 15,13.08963 C15,13.4418968 14.9227373,13.7625499 14.7682119,14.0515894 C14.6136865,14.3406288 14.3962472,14.5709571 14.115894,14.7425743 C13.8355408,14.9141914 13.5033113,15 13.1192053,15 L2.8807947,15 Z M3,13.7196456 L13,13.7196456 C13.2075055,13.7196456 13.3708609,13.6496439 13.4900662,13.5096404 C13.6092715,13.369637 13.6688742,13.2070523 13.6688742,13.0218864 C13.6688742,12.8909154 13.6379691,12.7644607 13.5761589,12.6425221 L8.56953642,3.67326733 C8.50331126,3.5603613 8.41942605,3.4779399 8.31788079,3.42600313 C8.21633554,3.37406635 8.11037528,3.34809797 8,3.34809797 C7.88962472,3.34809797 7.78256071,3.37406635 7.67880795,3.42600313 C7.57505519,3.4779399 7.49227373,3.5603613 7.43046358,3.67326733 L2.41721854,12.6289734 C2.38631347,12.6922008 2.36423841,12.7588154 2.35099338,12.8288171 C2.33774834,12.8988188 2.33112583,12.9631753 2.33112583,13.0218864 C2.33112583,13.2070523 2.39072848,13.369637 2.50993377,13.5096404 C2.62913907,13.6496439 2.79249448,13.7196456 3,13.7196456 Z M8.00662252,10.3121417 C7.62251656,10.3121417 7.42384106,10.1134271 7.41059603,9.71599792 L7.31788079,6.42365816 C7.30905077,6.22494355 7.36865342,6.06235887 7.49668874,5.93590412 C7.62472406,5.80944937 7.79028698,5.74622199 7.99337748,5.74622199 C8.19646799,5.74622199 8.36423841,5.81057843 8.49668874,5.9392913 C8.62913907,6.06800417 8.69094923,6.22945979 8.68211921,6.42365816 L8.57615894,9.71599792 C8.56732892,10.1134271 8.37748344,10.3121417 8.00662252,10.3121417 Z M8.00662252,12.5612298 C7.79028698,12.5612298 7.60596026,12.490099 7.45364238,12.3478374 C7.3013245,12.2055758 7.22516556,12.0283134 7.22516556,11.81605 C7.22516556,11.6037867 7.3013245,11.4265242 7.45364238,11.2842626 C7.60596026,11.142001 7.79028698,11.0708702 8.00662252,11.0708702 C8.21854305,11.0708702 8.40066225,11.140872 8.55298013,11.2808755 C8.70529801,11.4208789 8.78145695,11.5992705 8.78145695,11.81605 C8.78145695,12.0328296 8.70419426,12.2112211 8.54966887,12.3512246 C8.39514349,12.4912281 8.21412804,12.5612298 8.00662252,12.5612298 Z" fill="#FFFFFF" fill-rule="nonzero"/></svg>