<?xml version="1.0" encoding="UTF-8"?>
<svg enable-background="new 0 0 16 16" version="1.1" viewBox="0 0 16 16" xml:space="preserve" xmlns="http://www.w3.org/2000/svg">
<style type="text/css">.st0{fill:#FFFFFF;}</style>
<g transform="translate(-60 -726)">
<path class="st0" d="m67 729.5v3c0 0.3-0.2 0.5-0.5 0.5h-3c-0.3 0-0.5 0.2-0.5 0.5v1c0 0.3 0.2 0.5 0.5 0.5h3c0.3 0 0.5 0.2 0.5 0.5v3c0 0.3 0.2 0.5 0.5 0.5h1c0.3 0 0.5-0.2 0.5-0.5v-3c0-0.3 0.2-0.5 0.5-0.5h3c0.3 0 0.5-0.2 0.5-0.5v-1c0-0.3-0.2-0.5-0.5-0.5h-3c-0.3 0-0.5-0.2-0.5-0.5v-3c0-0.3-0.2-0.5-0.5-0.5h-1c-0.3 0-0.5 0.2-0.5 0.5z"/>
</g>
</svg>
