<?xml version="1.0" encoding="UTF-8"?>
<svg enable-background="new 0 0 16 16" version="1.1" viewBox="0 0 16 16" xml:space="preserve" xmlns="http://www.w3.org/2000/svg">
<style type="text/css">
        .st0{fill:none;}
        .st1{fill:#FFFFFF;}
</style>
<path class="st0" d="M-2-1h20v20H-2V-1z"/>
<path class="st1" d="M13.9,8.8C14,8.5,14,8.3,14,8s0-0.5-0.1-0.8l1.7-1.3c0.1-0.1,0.2-0.3,0.1-0.5l-1.6-2.8  c-0.1-0.2-0.3-0.2-0.5-0.2l-2,0.8c-0.4-0.3-0.9-0.6-1.4-0.8L10,0.3C10,0.1,9.8,0,9.6,0H6.4C6.2,0,6,0.1,6,0.3L5.7,2.5  
C5.2,2.7,4.8,2.9,4.4,3.2l-2-0.8C2.2,2.4,2,2.4,1.9,2.6L0.3,5.4C0.2,5.6,0.2,5.8,0.4,5.9l1.7,1.3C2,7.5,2,7.7,2,8s0,0.5,0.1,0.8  l-1.7,1.3c-0.2,0.1-0.2,0.3-0.1,0.5l1.6,2.8c0.1,0.2,0.3,0.2,0.5,0.2l2-0.8c0.4,0.3,0.9,0.6,1.3,0.8L6,15.7C6,15.9,6.2,16,6.4,16  
h3.2c0.2,0,0.4-0.1,0.4-0.3l0.3-2.1c0.5-0.2,0.9-0.5,1.4-0.8l2,0.8c0.2,0.1,0.4,0,0.5-0.2l1.6-2.8c0.1-0.2,0.1-0.4-0.1-0.5         C15.6,10.1,14,8.8,13.9,8.8z M8,11c-1.6,0-3-1.4-3-3s1.4-3,3-3s3,1.4,3,3S9.6,11,8,11z"/>
</svg>

