<svg xmlns="http://www.w3.org/2000/svg" width="16" height="16"><path fill="#f1c40f" d="M12.301 14.632c-.812.585-3.324-1.968-4.323-1.972-1.002-.004-3.534 2.53-4.341 1.938-.808-.59.843-3.769.538-4.721C3.87 8.924.677 7.298.99 6.347c.313-.95 3.846-.361 4.657-.946.812-.585 1.372-4.124 2.373-4.12 1 .004 1.532 3.546 2.34 4.137.806.59 4.344.03 4.65.983.306.952-2.898 2.553-3.21 3.503-.314.95 1.313 4.143.501 4.728z" style="color:#000;fill:#666;fill-opacity:1;stroke-width:1.04725;enable-background:accumulate"/></svg>