<?xml version="1.0" encoding="UTF-8" standalone="no"?>
<svg
   height="16"
   width="16"
   version="1.1"
   id="svg26"
   sodipodi:docname="unread.svg"
   inkscape:version="1.2 (dc2aedaf03, 2022-05-15)"
   xmlns:inkscape="http://www.inkscape.org/namespaces/inkscape"
   xmlns:sodipodi="http://sodipodi.sourceforge.net/DTD/sodipodi-0.dtd"
   xmlns="http://www.w3.org/2000/svg"
   xmlns:svg="http://www.w3.org/2000/svg">
  <defs
     id="defs30" />
  <sodipodi:namedview
     id="namedview28"
     pagecolor="#ffffff"
     bordercolor="#666666"
     borderopacity="1.0"
     inkscape:showpageshadow="2"
     inkscape:pageopacity="0.0"
     inkscape:pagecheckerboard="0"
     inkscape:deskcolor="#d1d1d1"
     showgrid="false"
     inkscape:current-layer="svg26" />
  <g
     transform="translate(-40.99995,-297)"
     fill="#e74c3c"
     id="g24"
     style="fill:#666666;fill-opacity:1">
    <path
       style="block-progression:tb;color:#000000;direction:ltr;text-indent:0;text-align:start;enable-background:accumulate;text-transform:none;fill:#666666;fill-opacity:1"
       d="m43.781,301a1.0001,1.0001,0,0,0,-0.40625,1.7812l5,4,0.625,0.5,0.625-0.5,5-4a1.0005,1.0005,0,1,0,-1.25,-1.5625l-4.375,3.5-4.375-3.5a1.0001,1.0001,0,0,0,-0.844,-0.22z"
       id="path20" />
    <path
       style="block-progression:tb;color:#000000;direction:ltr;text-indent:0;text-align:start;enable-background:accumulate;text-transform:none;fill:#666666;fill-opacity:1"
       d="M42.906,300a1.0001,1.0001,0,0,0,-0.906,1v9a1.0001,1.0001,0,0,0,1,1h12a1.0001,1.0001,0,0,0,1,-1v-9a1.0001,1.0001,0,0,0,-1,-1h-12a1.0001,1.0001,0,0,0,-0.09375,0zm1.094,2h10v7h-10v-7z"
       id="path22" />
  </g>
</svg>
