<svg xmlns="http://www.w3.org/2000/svg" width="16" height="16"><g fill="#e74c3c" style="fill:#666;fill-opacity:1"><path d="M43.781 301a1 1 0 0 0-.406 1.781l5 4 .625.5.625-.5 5-4a1 1 0 1 0-1.25-1.562l-4.375 3.5-4.375-3.5a1 1 0 0 0-.844-.22z" style="block-progression:tb;color:#000;direction:ltr;text-indent:0;text-align:start;enable-background:accumulate;text-transform:none;fill:#666;fill-opacity:1" transform="translate(-41 -297)"/><path d="M42.906 300a1 1 0 0 0-.906 1v9a1 1 0 0 0 1 1h12a1 1 0 0 0 1-1v-9a1 1 0 0 0-1-1H43a1 1 0 0 0-.094 0zM44 302h10v7H44v-7z" style="block-progression:tb;color:#000;direction:ltr;text-indent:0;text-align:start;enable-background:accumulate;text-transform:none;fill:#666;fill-opacity:1" transform="translate(-41 -297)"/></g></svg>