<?xml version="1.0" encoding="UTF-8"?>
<svg width="24px" height="24px" viewBox="0 0 24 24" version="1.1" xmlns="http://www.w3.org/2000/svg" xmlns:xlink="http://www.w3.org/1999/xlink">
    <title>bookmark-add</title>
    <g id="bookmark-add" stroke="none" stroke-width="1" fill="none" fill-rule="evenodd">
        <path d="M15.4904327,1 C16.3333181,1 16.9701691,1.21958796 17.4009857,1.65876389 C17.8318024,2.09793981 18.0472107,2.74177297 18.0472107,3.59026337 L18.0478065,5.02693904 C17.8676185,5.00912151 17.6848745,5 17.5,5 C14.4624339,5 12,7.46243388 12,10.5 C12,13.5375661 14.4624339,16 17.5,16 C17.6848745,16 17.8676185,15.9908785 18.0478065,15.973061 L18.0472107,18.8706284 C18.0472107,19.2382431 17.9550896,19.524826 17.7708473,19.7303772 C17.5866051,19.9359283 17.3345464,20.0387039 17.0146713,20.0387039 C16.7856369,20.0387039 16.5744565,19.9666354 16.3811302,19.8224983 C16.1878039,19.6783613 15.8980077,19.4187164 15.5117416,19.0435638 L12.1089859,15.6792221 C12.0545781,15.6252975 12.000412,15.6252975 11.9464874,15.6792221 L8.53633881,19.0426941 C8.15065257,19.41775 7.86071142,19.6775157 7.66651535,19.821991 C7.47231929,19.9664663 7.26099396,20.0387039 7.03253937,20.0387039 C6.71256765,20.0387039 6.46048482,19.9359283 6.27629089,19.7303772 C6.09209696,19.524826 6,19.2382431 6,18.8706284 L6,3.59026337 C6,2.74177297 6.21680959,2.09793981 6.65042877,1.65876389 C7.08404795,1.21958796 7.72201029,1 8.5643158,1 L15.4904327,1 Z" id="Combined-Shape" fill="#FFFFFF" fill-rule="nonzero"></path>
        <path d="M14.8422835,10.3496222 C14.8422835,10.5545932 14.9090865,10.7214301 15.0426925,10.8501329 C15.1762985,10.9788357 15.3456918,11.043187 15.5508725,11.043187 L17.640852,11.043187 L17.640852,13.1381819 C17.640852,13.343153 17.7052692,13.5111816 17.8341035,13.6422677 C17.9629379,13.7733539 18.1299454,13.838897 18.335126,13.838897 C18.5450783,13.838897 18.7156646,13.7733539 18.8468847,13.6422677 C18.9781049,13.5111816 19.043715,13.343153 19.043715,13.1381819 L19.043715,11.043187 L21.140852,11.043187 C21.341261,11.043187 21.5082685,10.9788357 21.6418745,10.8501329 C21.7754805,10.7214301 21.8422835,10.5545932 21.8422835,10.3496222 C21.8422835,10.1398844 21.7766734,9.96947237 21.6454532,9.83838623 C21.5142331,9.70730008 21.3460327,9.64175701 21.140852,9.64175701 L19.043715,9.64175701 L19.043715,7.55391227 C19.043715,7.34894121 18.9781049,7.17852923 18.8468847,7.04267632 C18.7156646,6.90682341 18.5450783,6.83889695 18.335126,6.83889695 C18.1299454,6.83889695 17.9629379,6.90682341 17.8341035,7.04267632 C17.7052692,7.17852923 17.640852,7.34894121 17.640852,7.55391227 L17.640852,9.64175701 L15.5508725,9.64175701 C15.3456918,9.64175701 15.1762985,9.70730008 15.0426925,9.83838623 C14.9090865,9.96947237 14.8422835,10.1398844 14.8422835,10.3496222 Z" id="Path" fill="#FFFFFF"></path>
    </g>
</svg>