<?xml version="1.0" encoding="UTF-8"?>
<svg width="24px" height="24px" viewBox="0 0 24 24" version="1.1" xmlns="http://www.w3.org/2000/svg" xmlns:xlink="http://www.w3.org/1999/xlink">
    <title>category</title>
    <g id="category" stroke="none" stroke-width="1" fill="none" fill-rule="evenodd">
        <path d="M4.76530444,20.1163633 L19.4989855,20.1163633 C21.0753461,20.1163633 22,19.2004269 22,17.3862144 L22,8.34171013 C22,6.52752769 21.0664783,5.61163633 19.2347557,5.61163633 L10.7803045,5.61163633 C10.1814438,5.61163633 9.82035982,5.4707228 9.38003697,5.09203253 L8.84281484,4.65169765 C8.26158448,4.15852134 7.81243894,4 6.94057084,4 L4.43065847,4 C2.88947891,4 2,4.88067275 2,6.65081989 L2,17.3862144 C2,19.2091443 2.92470503,20.1163633 4.76530444,20.1163633 Z M4.78291975,18.6984203 C3.902244,18.6984203 3.41788135,18.2316595 3.41788135,17.3157681 L3.41788135,6.73008883 C3.41788135,5.85822073 3.87583605,5.4090752 4.72128117,5.4090752 L6.5795019,5.4090752 C7.16073227,5.4090752 7.51300858,5.55879037 7.96215412,5.93747464 L8.49936122,6.38662017 C9.07179896,6.86218869 9.53854478,7.02950416 10.4104129,7.02950416 L19.2083026,7.02950416 C20.0802008,7.02950416 20.5822073,7.50507267 20.5822073,8.42097906 L20.5822073,17.3245607 C20.5822073,18.2316595 20.0802008,18.6984203 19.2083026,18.6984203 L4.78291975,18.6984203 Z M2.86305893,10.2527768 L21.1282521,10.2527768 L21.1282521,8.92295553 L2.86305893,8.92295553 L2.86305893,10.2527768 Z" id="Shape" fill="#FFFFFF" fill-rule="nonzero"></path>
    </g>
</svg>