<?xml version="1.0" encoding="UTF-8"?>
<svg width="16px" height="16px" viewBox="0 0 16 16" version="1.1" xmlns="http://www.w3.org/2000/svg" xmlns:xlink="http://www.w3.org/1999/xlink">
    <title>check</title>
    <g id="check" stroke="none" stroke-width="1" fill="none" fill-rule="evenodd">
        <path d="M6.87978142,13 C6.67577413,13 6.49362477,12.9537037 6.33333333,12.8611111 C6.17304189,12.7685185 6.01639344,12.6296296 5.86338798,12.4444444 L3.28415301,9.24444444 C3.09471767,9 3,8.75185185 3,8.5 C3,8.22592593 3.09289617,7.99074074 3.27868852,7.79444444 C3.46448087,7.59814815 3.68852459,7.5 3.95081967,7.5 C4.11839709,7.5 4.26958106,7.53518519 4.40437158,7.60555556 C4.53916211,7.67592593 4.67213115,7.8 4.80327869,7.97777778 L6.83606557,10.6 L11.1530055,3.56666667 C11.3788707,3.18888889 11.6630237,3 12.0054645,3 C12.2604736,3 12.4899818,3.08518519 12.6939891,3.25555556 C12.8979964,3.42592593 13,3.64814815 13,3.92222222 C13,4.04814815 12.9726776,4.17592593 12.9180328,4.30555556 C12.863388,4.43518519 12.7996357,4.55555556 12.726776,4.66666667 L7.84153005,12.4333333 C7.60837887,12.8111111 7.28779599,13 6.87978142,13 Z" id="Path" fill="#FFFFFF" fill-rule="nonzero"></path>
    </g>
</svg>