<?xml version="1.0" encoding="UTF-8"?>
<svg width="16px" height="16px" viewBox="0 0 16 16" version="1.1" xmlns="http://www.w3.org/2000/svg" xmlns:xlink="http://www.w3.org/1999/xlink">
    <title>help</title>
    <g id="help" stroke="none" stroke-width="1" fill="none" fill-rule="evenodd">
        <path d="M7.99661345,15.0029297 C7.03934849,15.0029297 6.13852604,14.8210968 5.29414611,14.4574311 C4.44976617,14.0937654 3.70585389,13.5889252 3.06240929,12.9429103 C2.41896468,12.2968955 1.91436865,11.5514937 1.54862119,10.7067051 C1.18287373,9.86191646 1,8.96065799 1,8.00292969 C1,7.04520139 1.18287373,6.14394292 1.54862119,5.29915428 C1.91436865,4.45436563 2.41896468,3.71009329 3.06240929,3.06633724 C3.70585389,2.42258119 4.44863732,1.91774092 5.29075955,1.55181643 C6.13288179,1.18589193 7.03257539,1.00292969 7.98984035,1.00292969 C8.95162071,1.00292969 9.85470085,1.18589193 10.6990808,1.55181643 C11.5434607,1.91774092 12.2885019,2.42258119 12.9342042,3.06633724 C13.5799065,3.71009329 14.0856313,4.45436563 14.4513788,5.29915428 C14.8171263,6.14394292 15,7.04520139 15,8.00292969 C15,8.96065799 14.8171263,9.86191646 14.4513788,10.7067051 C14.0856313,11.5514937 13.5799065,12.2968955 12.9342042,12.9429103 C12.2885019,13.5889252 11.5434607,14.0937654 10.6990808,14.4574311 C9.85470085,14.8210968 8.95387841,15.0029297 7.99661345,15.0029297 Z M7.99661345,13.6205483 C8.77777778,13.6205483 9.507015,13.4759855 10.1843251,13.18686 C10.8616352,12.8977345 11.4576681,12.4956693 11.9724238,11.9806644 C12.4871795,11.4656596 12.8890502,10.8693382 13.1780358,10.1917003 C13.4670214,9.51406231 13.6115143,8.78447212 13.6115143,8.00292969 C13.6115143,7.22590484 13.4670214,6.49744405 13.1780358,5.81754731 C12.8890502,5.13765057 12.4871795,4.54019977 11.9724238,4.02519493 C11.4576681,3.51019009 10.8605064,3.10812491 10.1809386,2.81899939 C9.50137075,2.52987386 8.77100468,2.3853111 7.98984035,2.3853111 C7.21319142,2.3853111 6.48508305,2.52987386 5.80551524,2.81899939 C5.12594743,3.10812491 4.53104338,3.51019009 4.0208031,4.02519493 C3.51056281,4.54019977 3.11094985,5.13765057 2.8219642,5.81754731 C2.53297855,6.49744405 2.38848573,7.22590484 2.38848573,8.00292969 C2.38848573,8.78447212 2.53297855,9.51406231 2.8219642,10.1917003 C3.11094985,10.8693382 3.51169166,11.4656596 4.02418965,11.9806644 C4.53668763,12.4956693 5.13272053,12.8977345 5.81228834,13.18686 C6.49185615,13.4759855 7.21996452,13.6205483 7.99661345,13.6205483 Z M7.84760522,9.3514292 C7.41864215,9.3514292 7.20416062,9.15943178 7.20416062,8.77543695 C7.20416062,8.76188419 7.20416062,8.74833143 7.20416062,8.73477867 C7.20416062,8.72122591 7.20416062,8.70993195 7.20416062,8.70089677 C7.20416062,8.38918332 7.28205128,8.13619848 7.43783261,7.94194227 C7.59361393,7.74768606 7.79342042,7.56698261 8.03725206,7.39983191 C8.3262377,7.20105812 8.54184809,7.03164863 8.68408321,6.89160345 C8.82631834,6.75155828 8.8974359,6.57537241 8.8974359,6.36304585 C8.8974359,6.13264895 8.81277213,5.94403972 8.64344461,5.79721817 C8.47411708,5.65039661 8.25173359,5.57698583 7.97629415,5.57698583 C7.84083212,5.57698583 7.71552975,5.59957377 7.60038703,5.64474963 C7.48524432,5.68992549 7.3791324,5.7543011 7.28205128,5.83787644 C7.18497017,5.92145179 7.0980487,6.02422688 7.02128689,6.14620171 L6.91291727,6.28850568 C6.84970166,6.37433982 6.7740687,6.44210361 6.68601838,6.49179706 C6.59796807,6.54149051 6.492985,6.56633724 6.37106918,6.56633724 C6.23109176,6.56633724 6.10691824,6.51890258 5.99854862,6.42403327 C5.890179,6.32916396 5.83599419,6.20041275 5.83599419,6.03777964 C5.83599419,5.97453343 5.84163845,5.91467541 5.85292695,5.85820558 C5.86421545,5.80173575 5.8811482,5.74413653 5.90372521,5.68540791 C6.00757942,5.36917686 6.24802451,5.09586289 6.62506047,4.86546599 C7.00209644,4.63506909 7.48185776,4.51987064 8.06434446,4.51987064 C8.46169973,4.51987064 8.82857604,4.58989322 9.16497339,4.7299384 C9.50137075,4.86998358 9.77116594,5.07101617 9.97435897,5.33303617 C10.177552,5.59505618 10.2791485,5.91354602 10.2791485,6.28850568 C10.2791485,6.68605328 10.1786809,7.00002552 9.97774552,7.23042243 C9.77681019,7.46081933 9.5115304,7.68669865 9.18190614,7.90806037 C8.95613611,8.05262314 8.78455088,8.19040952 8.66715046,8.32141952 C8.54975004,8.45242953 8.48653443,8.60602746 8.47750363,8.78221333 C8.47750363,8.7912485 8.47750363,8.80367186 8.47750363,8.81948341 C8.47750363,8.83529497 8.47524593,8.84997712 8.47073053,8.86352988 C8.46169973,8.99905747 8.40187067,9.11425592 8.29124335,9.20912523 C8.18061603,9.30399455 8.03273666,9.3514292 7.84760522,9.3514292 Z M7.83405902,11.4317777 C7.61731979,11.4317777 7.43105951,11.3606257 7.27527818,11.2183217 C7.11949686,11.0760178 7.04160619,10.8987025 7.04160619,10.686376 C7.04160619,10.4740494 7.11836801,10.2967341 7.27189163,10.1544302 C7.42541526,10.0121262 7.61280439,9.94097422 7.83405902,9.94097422 C8.05531366,9.94097422 8.24270279,10.0109968 8.39622642,10.151042 C8.54975004,10.2910872 8.62651185,10.4695318 8.62651185,10.686376 C8.62651185,10.9032201 8.54975004,11.0816648 8.39622642,11.2217099 C8.24270279,11.3617551 8.05531366,11.4317777 7.83405902,11.4317777 Z" id="Shape" fill="#FFFFFF" fill-rule="nonzero"></path>
    </g>
</svg>