<?xml version="1.0" encoding="UTF-8"?>
<svg width="16px" height="16px" viewBox="0 0 16 16" version="1.1" xmlns="http://www.w3.org/2000/svg" xmlns:xlink="http://www.w3.org/1999/xlink">
    <title>key</title>
    <g id="key" stroke="none" stroke-width="1" fill="none" fill-rule="evenodd">
        <path d="M16,7.00248685 C16,7.55794676 15.8916712,8.07698071 15.6750137,8.55958871 C15.4583561,9.04219672 15.1581899,9.46698549 14.774515,9.83395505 C14.3908401,10.2009246 13.9460515,10.4870078 13.4401492,10.6922047 C12.9342469,10.8974016 12.3920176,11 11.8134613,11 C10.9377326,11 10.1492589,10.7538179 9.44804039,10.2614538 C8.74682184,9.76908975 8.19256716,9.06411605 7.78527636,8.14653276 L6.18126778,9.66532759 C6.09162098,9.75083692 5.98807559,9.79442053 5.8706316,9.79607843 C5.75318762,9.79773633 5.65134819,9.7575004 5.56511333,9.67537064 L3.92698544,8.11621234 L2.76823375,9.22955524 C2.67771724,9.31251395 2.5739377,9.35501355 2.45689512,9.35705404 C2.33985253,9.35909453 2.23610644,9.31736011 2.14565684,9.23185079 L0.11917102,7.29918699 C0.0326016547,7.21667464 -0.00680279377,7.12069185 0.000957674851,7.01123864 C0.00871814348,6.90178543 0.0453462174,6.8143472 0.110841897,6.74892396 L1.19453113,5.69191774 C1.26664997,5.62426271 1.34286647,5.57474892 1.42318063,5.54337637 C1.50349479,5.51200383 1.59061608,5.49631755 1.68454451,5.49631755 L7.91633462,5.49631755 C8.12774049,4.98842659 8.42966286,4.54769648 8.82210173,4.17412721 C9.2145406,3.80055795 9.6669893,3.51147776 10.1794478,3.30688666 C10.6919064,3.10229555 11.2365775,3 11.8134613,3 C12.3920176,3 12.9344476,3.10323609 13.4407513,3.30970827 C13.947055,3.51618046 14.3918436,3.80207237 14.7751171,4.16738403 C15.1583906,4.53269568 15.4583561,4.95767575 15.6750137,5.44232425 C15.8916712,5.92697274 16,6.44702694 16,7.00248685 Z M12,6.99757598 C12,7.27204923 12.0985075,7.50773821 12.2955224,7.70464292 C12.4925373,7.90154764 12.7283582,8 13.0029851,8 C13.2808458,8 13.5164801,7.90154764 13.7098881,7.70464292 C13.903296,7.50773821 14,7.27204923 14,6.99757598 C14,6.71987072 13.9034826,6.48418174 13.7104478,6.29050904 C13.5174129,6.09683635 13.281592,6 13.0029851,6 C12.7283582,6 12.4925373,6.09683635 12.2955224,6.29050904 C12.0985075,6.48418174 12,6.71987072 12,6.99757598 Z" id="Shape" fill="#FFFFFF" fill-rule="nonzero"></path>
    </g>
</svg>