<?xml version="1.0" encoding="UTF-8"?>
<svg width="16px" height="16px" viewBox="0 0 16 16" version="1.1" xmlns="http://www.w3.org/2000/svg" xmlns:xlink="http://www.w3.org/1999/xlink">
    <title>login</title>
    <g id="login" stroke="none" stroke-width="1" fill="none" fill-rule="evenodd">
        <path d="M10.9606765,1 L9.92037207,1 C9.30679069,0.985523437 9,1.20923763 9,1.67114258 C9,2.13304753 9.30679069,2.364 9.92037207,2.364 L11.1362751,2.36410256 C11.435591,2.36410256 11.7236825,2.38279915 12.0005497,2.42019231 L12.2736754,2.46381766 C12.6328544,2.5302944 12.9188673,2.67255461 13.1317141,2.89059829 C13.3552033,3.11396011 13.5028658,3.40512821 13.5747016,3.76410256 C13.6465374,4.12307692 13.6824553,4.5019943 13.6824553,4.9008547 L13.6824553,11.1230769 C13.6824553,11.511301 13.6452071,11.8849003 13.5707107,12.2438746 C13.4962143,12.602849 13.3498821,12.891358 13.1317141,13.1094017 C12.9135461,13.3221273 12.6275332,13.4643875 12.2736754,13.5361823 C11.9198175,13.6079772 11.5460053,13.6438746 11.1522387,13.6438746 L9.92037207,13.643 C9.30679069,13.6770612 9,13.9117432 9,14.3470459 C9,14.7823486 9.30679069,15 9.92037207,15 L10.944713,15 C11.481087,15 11.9731889,14.9659639 12.4210186,14.8978917 L12.7485899,14.8404558 C13.2807069,14.7340931 13.7383276,14.4867996 14.1214519,14.0985755 C14.5098973,13.7103514 14.7586621,13.2490028 14.8677461,12.7145299 C14.9768301,12.180057 15.0313721,11.5804368 15.0313721,10.9156695 L15.0313721,5.06837607 C15.0313721,4.41424501 14.9754998,3.81994302 14.8637552,3.28547009 C14.7520106,2.75099715 14.5045762,2.28964862 14.1214519,1.9014245 C13.7383276,1.51851852 13.2807069,1.27255461 12.7485899,1.16353276 C12.2164728,1.05451092 11.6205017,1 10.9606765,1 Z" id="Path" fill="#FFFFFF" fill-rule="nonzero"></path>
        <path d="M5.39893836,12.4995137 C5.57975508,12.4995137 5.72866296,12.4409808 5.84566201,12.3239151 C5.96266106,12.2068493 6.02116059,12.0605171 6.02116059,11.8849185 L6.02116059,6.66573692 L5.95734292,5.09333099 L6.68326885,5.97132415 L7.54480731,6.86528082 C7.65648822,6.98234658 7.80273704,7.04087946 7.98355375,7.04087946 C8.14841605,7.04087946 8.28668765,6.98633746 8.39836856,6.87725346 C8.51004948,6.76816946 8.56588993,6.63114931 8.56588993,6.46619302 C8.56588993,6.30123673 8.51004948,6.16022571 8.39836856,6.04315996 L5.89352526,3.52890682 C5.73929924,3.37459287 5.57443694,3.2974359 5.39893836,3.2974359 C5.23407607,3.2974359 5.07453191,3.37459287 4.92030589,3.52890682 L2.41546258,6.04315996 C2.30378167,6.15490454 2.24794121,6.29591556 2.24794121,6.46619302 C2.24794121,6.63114931 2.30378167,6.76816946 2.41546258,6.87725346 C2.52714349,6.98633746 2.6654151,7.04087946 2.8302774,7.04087946 C3.00045783,7.04087946 3.14404758,6.98234658 3.26104663,6.86528082 L4.1305623,5.97132415 L4.84851101,5.10131275 L4.78469335,6.66573692 L4.78469335,11.8849185 C4.78469335,12.0605171 4.84319288,12.2068493 4.96019193,12.3239151 C5.07719098,12.4409808 5.22343979,12.4995137 5.39893836,12.4995137 Z" id="Path" fill="#FFFFFF" fill-rule="nonzero" transform="translate(5.4069, 7.8985) rotate(90) translate(-5.4069, -7.8985)"></path>
    </g>
</svg>