<?xml version="1.0" encoding="UTF-8"?>
<svg width="16px" height="16px" viewBox="0 0 16 16" version="1.1" xmlns="http://www.w3.org/2000/svg" xmlns:xlink="http://www.w3.org/1999/xlink">
    <title>logout</title>
    <g id="logout" stroke="none" stroke-width="1" fill="none" fill-rule="evenodd">
        <path d="M6.111,1 C6.72458138,0.985523437 7.03137207,1.20923763 7.03137207,1.67114258 C7.03137207,2.13304753 6.72458138,2.364 6.111,2.364 L4.89509692,2.36410256 C4.59578107,2.36410256 4.30768957,2.38279915 4.03082241,2.42019231 L3.75769669,2.46381766 C3.39851767,2.5302944 3.11250475,2.67255461 2.89965792,2.89059829 C2.67616876,3.11396011 2.52850627,3.40512821 2.45667047,3.76410256 C2.38483466,4.12307692 2.34891676,4.5019943 2.34891676,4.9008547 L2.34891676,11.1230769 C2.34891676,11.511301 2.38616496,11.8849003 2.46066135,12.2438746 C2.53515773,12.602849 2.68148993,12.891358 2.89965792,13.1094017 C3.11782592,13.3221273 3.40383884,13.4643875 3.75769669,13.5361823 C4.11155454,13.6079772 4.48536678,13.6438746 4.87913341,13.6438746 L6.111,13.643 C6.72458138,13.6770612 7.03137207,13.9117432 7.03137207,14.3470459 C7.03137207,14.7823486 6.72458138,15 6.111,15 L5.08665906,15 C4.55028506,15 4.0581832,14.9659639 3.61035348,14.8978917 L3.28278221,14.8404558 C2.75066515,14.7340931 2.29304447,14.4867996 1.90992018,14.0985755 C1.52147472,13.7103514 1.27271,13.2490028 1.163626,12.7145299 C1.054542,12.180057 1,11.5804368 1,10.9156695 L1,5.06837607 C1,4.41424501 1.05587229,3.81994302 1.16761688,3.28547009 C1.27936146,2.75099715 1.5267959,2.28964862 1.90992018,1.9014245 C2.29304447,1.51851852 2.75066515,1.27255461 3.28278221,1.16353276 C3.81489928,1.05451092 4.41087039,1 5.07069555,1 L6.111,1 Z" id="Path" fill="#FFFFFF" fill-rule="nonzero"></path>
        <path d="M10.3989384,12.4995137 C10.5797551,12.4995137 10.728663,12.4409808 10.845662,12.3239151 C10.9626611,12.2068493 11.0211606,12.0605171 11.0211606,11.8849185 L11.0211606,6.66573692 L10.9573429,5.09333099 L11.6832688,5.97132415 L12.5448073,6.86528082 C12.6564882,6.98234658 12.802737,7.04087946 12.9835537,7.04087946 C13.148416,7.04087946 13.2866877,6.98633746 13.3983686,6.87725346 C13.5100495,6.76816946 13.5658899,6.63114931 13.5658899,6.46619302 C13.5658899,6.30123673 13.5100495,6.16022571 13.3983686,6.04315996 L10.8935253,3.52890682 C10.7392992,3.37459287 10.5744369,3.2974359 10.3989384,3.2974359 C10.2340761,3.2974359 10.0745319,3.37459287 9.92030589,3.52890682 L7.41546258,6.04315996 C7.30378167,6.15490454 7.24794121,6.29591556 7.24794121,6.46619302 C7.24794121,6.63114931 7.30378167,6.76816946 7.41546258,6.87725346 C7.52714349,6.98633746 7.6654151,7.04087946 7.8302774,7.04087946 C8.00045783,7.04087946 8.14404758,6.98234658 8.26104663,6.86528082 L9.1305623,5.97132415 L9.84851101,5.10131275 L9.78469335,6.66573692 L9.78469335,11.8849185 C9.78469335,12.0605171 9.84319288,12.2068493 9.96019193,12.3239151 C10.077191,12.4409808 10.2234398,12.4995137 10.3989384,12.4995137 Z" id="Path" fill="#FFFFFF" fill-rule="nonzero" transform="translate(10.4069, 7.8985) rotate(90) translate(-10.4069, -7.8985)"></path>
    </g>
</svg>