<?xml version="1.0" encoding="UTF-8"?>
<svg width="16px" height="16px" viewBox="0 0 16 16" version="1.1" xmlns="http://www.w3.org/2000/svg" xmlns:xlink="http://www.w3.org/1999/xlink">
    <title>look</title>
    <g id="look" stroke="none" stroke-width="1" fill="none" fill-rule="evenodd">
        <path d="M8.00159205,12 C7.31361467,12 6.66370053,11.9149898 6.05184962,11.7449695 C5.43999871,11.5749492 4.87369367,11.3503995 4.35293449,11.0713202 C3.83217531,10.792241 3.36585093,10.4845633 2.95396136,10.1482871 C2.54207179,9.81201083 2.19040146,9.47486798 1.89895038,9.1368585 C1.60749931,8.79884902 1.38481147,8.48572783 1.23088688,8.19749492 C1.07696229,7.90926202 1,7.67645227 1,7.49906567 C1,7.32227488 1.07696229,7.08977657 1.23088688,6.80157075 C1.38481147,6.51336493 1.60749931,6.20025728 1.89895038,5.8622478 C2.19040146,5.52423832 2.54277494,5.18708192 2.95607082,4.85077861 C3.36936671,4.51447529 3.83638097,4.20694651 4.35711362,3.92819228 C4.87784626,3.64943805 5.44413804,3.42505078 6.05598895,3.25503047 C6.66783986,3.08501016 7.31637422,3 8.00159205,3 C8.69551308,3 9.35025643,3.08501016 9.96582212,3.25503047 C10.5813878,3.42505078 11.1493778,3.64943805 11.669792,3.92819228 C12.1902062,4.20694651 12.6555223,4.51447529 13.0657402,4.85077861 C13.4759582,5.18708192 13.8250945,5.52423832 14.1131492,5.8622478 C14.4012039,6.20025728 14.621026,6.51336493 14.7726156,6.80157075 C14.9242052,7.08977657 15,7.32227488 15,7.49906567 C15,7.67645227 14.9242052,7.90926202 14.7726156,8.19749492 C14.621026,8.48572783 14.4012039,8.79884902 14.1131492,9.1368585 C13.8250945,9.47486798 13.4759582,9.81201083 13.0657402,10.1482871 C12.6555223,10.4845633 12.1908961,10.792241 11.6718617,11.0713202 C11.1528272,11.3503995 10.5855271,11.5749492 9.96996145,11.7449695 C9.35439576,11.9149898 8.69827263,12 8.00159205,12 Z M8.00159205,10.9992146 C8.54241104,10.9992146 9.06137917,10.9311713 9.55849642,10.7950846 C10.0556137,10.658998 10.5214737,10.4788896 10.9560765,10.2547596 C11.3906793,10.0306297 11.7847645,9.78547055 12.138332,9.51928233 C12.4918995,9.25309411 12.7953705,8.98885579 13.0487451,8.72656737 C13.3021197,8.46427894 13.497557,8.22412999 13.6350569,8.00612051 C13.7725569,7.78811104 13.8413068,7.61909276 13.8413068,7.49906567 C13.8413068,7.39696682 13.7725569,7.24211239 13.6350569,7.03450237 C13.497557,6.82689235 13.3021197,6.59053487 13.0487451,6.32542993 C12.7953705,6.06032498 12.4918995,5.79278267 12.138332,5.52280298 C11.7847645,5.25282329 11.3906793,5.00230196 10.9560765,4.771239 C10.5214737,4.54017603 10.0556137,4.35400135 9.55849642,4.21271496 C9.06137917,4.07142857 8.54241104,4.00078538 8.00159205,4.00078538 C7.4580135,4.00078538 6.93697571,4.07142857 6.43847868,4.21271496 C5.93998165,4.35400135 5.47343174,4.54017603 5.03882893,4.771239 C4.60422613,5.00230196 4.21100333,5.25282329 3.85916054,5.52280298 C3.50731774,5.79278267 3.2040059,6.06032498 2.94922501,6.32542993 C2.69444413,6.59053487 2.4989936,6.82689235 2.36287342,7.03450237 C2.22675324,7.24211239 2.15869316,7.39696682 2.15869316,7.49906567 C2.15869316,7.61909276 2.22675324,7.78811104 2.36287342,8.00612051 C2.4989936,8.22412999 2.69444413,8.46427894 2.94922501,8.72656737 C3.2040059,8.98885579 3.50731774,9.25309411 3.85916054,9.51928233 C4.21100333,9.78547055 4.60422613,10.0306297 5.03882893,10.2547596 C5.47343174,10.4788896 5.93998165,10.658998 6.43847868,10.7950846 C6.93697571,10.9311713 7.4580135,10.9992146 8.00159205,10.9992146 Z M8.00254728,10.2993636 C7.61796134,10.2993636 7.25915333,10.225958 6.92612325,10.0791469 C6.59309316,9.93233582 6.30079299,9.72969533 6.04922274,9.47122546 C5.79765249,9.21275559 5.60095485,8.91425863 5.45912983,8.5757346 C5.31730481,8.23721056 5.2463923,7.87799594 5.2463923,7.49809072 C5.2463923,7.10838186 5.31730481,6.74373731 5.45912983,6.40415708 C5.60095485,6.06457684 5.79765249,5.7672715 6.04922274,5.51224103 C6.30079299,5.25721056 6.59309316,5.05802302 6.92612325,4.9146784 C7.25915333,4.77133378 7.61796134,4.69966148 8.00254728,4.69966148 C8.38219786,4.69966148 8.73855146,4.77133378 9.07160808,4.9146784 C9.4046647,5.05802302 9.69680567,5.25721056 9.94803098,5.51224103 C10.1992563,5.7672715 10.3957814,6.06457684 10.5376065,6.40415708 C10.6794315,6.74373731 10.750344,7.10838186 10.750344,7.49809072 C10.750344,7.87799594 10.6794315,8.23721056 10.5376065,8.5757346 C10.3957814,8.91425863 10.1992563,9.21275559 9.94803098,9.47122546 C9.69680567,9.72969533 9.4046647,9.93233582 9.07160808,10.0791469 C8.73855146,10.225958 8.38219786,10.2993636 8.00254728,10.2993636 Z M8.00071642,8.40609343 C8.24605115,8.40609343 8.4562016,8.31665538 8.63116777,8.13777928 C8.80613394,7.95890318 8.89361702,7.74599865 8.89361702,7.49906567 C8.89361702,7.24991198 8.80613394,7.03675017 8.63116777,6.85958023 C8.4562016,6.68241029 8.24605115,6.59382532 8.00071642,6.59382532 C7.75320589,6.59382532 7.54243189,6.68241029 7.36839442,6.85958023 C7.19435694,7.03675017 7.10733821,7.24991198 7.10733821,7.49906567 C7.10733821,7.74599865 7.19435694,7.95890318 7.36839442,8.13777928 C7.54243189,8.31665538 7.75320589,8.40609343 8.00071642,8.40609343 Z" id="Shape" fill="#FFFFFF" fill-rule="nonzero"></path>
    </g>
</svg>