<?xml version="1.0" encoding="UTF-8"?>
<svg width="16px" height="16px" viewBox="0 0 16 16" version="1.1" xmlns="http://www.w3.org/2000/svg" xmlns:xlink="http://www.w3.org/1999/xlink">
    <title>next</title>
    <g id="next" stroke="none" stroke-width="1" fill="none" fill-rule="evenodd">
        <path d="M8.5033863,11.5 C8.27551632,11.5 8.06944567,11.4083141 7.88517434,11.2249424 L2.72751724,5.86830391 C2.65308912,5.79101561 2.59656255,5.70552571 2.55793753,5.61183423 C2.51931251,5.51814275 2.5,5.41639294 2.5,5.3065848 C2.5,5.15630596 2.53495652,5.01977999 2.60486957,4.89700691 C2.67478262,4.77423382 2.76884072,4.67737273 2.88704386,4.60642364 C3.00524701,4.53547455 3.1379654,4.5 3.28519903,4.5 C3.50396832,4.5 3.69416568,4.58058327 3.85579111,4.74174981 L8.8337625,9.92056792 L8.17237517,9.92056792 L13.1453729,4.74174981 C13.3090443,4.58058327 13.4988536,4.5 13.714801,4.5 C13.8619641,4.5 13.9946648,4.53547455 14.1129032,4.60642364 C14.2311416,4.67737273 14.3252174,4.77423382 14.3951304,4.89700691 C14.4650435,5.01977999 14.5,5.15630596 14.5,5.3065848 C14.5,5.52326426 14.4237024,5.70860578 14.2711071,5.86260936 L9.11609552,11.2249424 C9.02925096,11.3159836 8.93452265,11.384372 8.83191062,11.4301074 C8.72929858,11.4758429 8.61979047,11.4991404 8.5033863,11.5 Z" id="Path" fill="#FFFFFF" fill-rule="nonzero" transform="translate(8.5, 8) rotate(-90) translate(-8.5, -8)"></path>
    </g>
</svg>