<?xml version="1.0" encoding="UTF-8"?>
<svg width="24px" height="24px" viewBox="0 0 24 24" version="1.1" xmlns="http://www.w3.org/2000/svg" xmlns:xlink="http://www.w3.org/1999/xlink">
    <title>non-starred</title>
    <g id="non-starred" stroke="none" stroke-width="1" fill="none" fill-rule="evenodd">
        <path d="M5.83729907,20.8214101 C5.64115745,20.6733538 5.52250752,20.4774702 5.48134928,20.2337594 C5.44019105,19.9900486 5.47588449,19.7012506 5.58842961,19.3673654 L7.44365171,13.8867351 L2.71395047,10.5177431 C2.42328276,10.3083309 2.21960859,10.0931697 2.10292795,9.87225937 C1.98624732,9.65134908 1.96876984,9.42312404 2.05049552,9.18758425 C2.12591946,8.95830725 2.27570884,8.78681432 2.49986366,8.67310546 C2.72401848,8.5593966 3.01387386,8.50567356 3.36942979,8.51193636 L9.1761376,8.55039383 L10.9368336,3.0389389 C11.0487879,2.69820374 11.1923248,2.43986346 11.3674442,2.26391808 C11.5425637,2.08797269 11.7520719,2 11.9959689,2 C12.2455768,2 12.4579159,2.08797269 12.632986,2.26391808 C12.8080562,2.43986346 12.9516177,2.69820374 13.0636705,3.0389389 L14.8252527,8.55039383 L20.6301882,8.51193636 C20.9863349,8.50567356 21.2764856,8.55956784 21.5006405,8.6736192 C21.7247953,8.78767056 21.8745847,8.95928581 21.9500086,9.18846495 C22.0311435,9.4234176 22.0135183,9.65134908 21.8971331,9.87225937 C21.7807478,10.0931697 21.5772214,10.3083309 21.2865537,10.5177431 L16.5568524,13.8867351 L18.4119268,19.3673654 C18.5245704,19.7012506 18.5604608,19.9900486 18.5195979,20.2337594 C18.4787351,20.4774702 18.3602329,20.6733538 18.1640912,20.8214101 C17.9673588,20.9751422 17.7448041,21.0296236 17.4964269,20.9848544 C17.2480498,20.9400852 16.9785274,20.8123584 16.6878597,20.6016741 L11.9959689,17.1763169 L7.31161059,20.6016741 C7.02153367,20.8123584 6.75230664,20.9400852 6.50392951,20.9848544 C6.25555238,21.0296236 6.03334223,20.9751422 5.83729907,20.8214101 Z M7.27335707,18.8672714 C7.28536976,18.8792099 7.31249677,18.8732407 7.35473812,18.8493638 L11.5115227,15.6736866 C11.6771402,15.5452014 11.84005,15.4809589 12.0002521,15.4809589 C12.1604541,15.4809589 12.3233639,15.5452014 12.4889815,15.6736866 L16.6456183,18.8493638 C16.6879581,18.8732407 16.7151344,18.8792099 16.7271471,18.8672714 C16.7340396,18.8490702 16.7314795,18.8218173 16.7194668,18.7855126 L14.993775,13.8701485 C14.9228804,13.6717941 14.9064861,13.5010106 14.9445919,13.3577981 C14.9826977,13.2145856 15.092092,13.0824553 15.2727746,12.9614073 L19.5917305,10.004145 C19.6276701,9.97968097 19.6427844,9.95834833 19.6370735,9.94014708 C19.631461,9.92204369 19.6040386,9.912992 19.5548063,9.912992 L14.3204243,10.0186767 C14.1120731,10.0255266 13.9451509,9.98799875 13.8196576,9.90609314 C13.6941644,9.82418753 13.6005984,9.6809261 13.5389595,9.47630886 L12.0509121,4.487993 C12.0383087,4.44023919 12.0199942,4.41636228 11.9959689,4.41636228 C11.9776544,4.41636228 11.9621955,4.44023919 11.949592,4.487993 L10.461397,9.47630886 C10.3998565,9.6809261 10.3063151,9.82418753 10.1807726,9.90609314 C10.0552302,9.98799875 9.88862796,10.0255266 9.68096597,10.0186767 L4.44658406,9.912992 C4.39735172,9.912992 4.36988008,9.92204369 4.36416913,9.94014708 C4.35855664,9.95893547 4.37401559,9.98026811 4.41054599,10.004145 L8.72772949,12.9605265 C8.90900295,13.0814768 9.01869259,13.2137294 9.05679842,13.3572844 C9.09490425,13.5008394 9.07816525,13.6717941 9.00658144,13.8701485 L7.27247088,18.7855126 C7.26616914,18.8218173 7.26646454,18.8490702 7.27335707,18.8672714 Z" id="Shape" fill="#FFFFFF" fill-rule="nonzero"></path>
    </g>
</svg>