<?xml version="1.0" encoding="UTF-8"?>
<svg width="16px" height="16px" viewBox="0 0 16 16" version="1.1" xmlns="http://www.w3.org/2000/svg" xmlns:xlink="http://www.w3.org/1999/xlink">
    <title>notice</title>
    <g id="notice" stroke="none" stroke-width="1" fill="none" fill-rule="evenodd">
        <g id="􀅴" transform="translate(1, 1)" fill="#FFFFFF" fill-rule="nonzero">
            <path d="M6.99661345,14 C6.03934849,14 5.13852604,13.8181672 4.29414611,13.4545015 C3.44976617,13.0908358 2.70585389,12.5859955 2.06240929,11.9399806 C1.41896468,11.2939658 0.91436865,10.5485641 0.54862119,9.70377541 C0.18287373,8.85898677 0,7.9577283 0,7 C0,6.0422717 0.18287373,5.14101323 0.54862119,4.29622459 C0.91436865,3.45143595 1.41896468,2.7071636 2.06240929,2.06340755 C2.70585389,1.4196515 3.44863732,0.914811229 4.29075955,0.548886738 C5.13288179,0.182962246 6.03257539,0 6.98984035,0 C7.95162071,0 8.85470085,0.182962246 9.69908079,0.548886738 C10.5434607,0.914811229 11.2885019,1.4196515 11.9342042,2.06340755 C12.5799065,2.7071636 13.0856313,3.45143595 13.4513788,4.29622459 C13.8171263,5.14101323 14,6.0422717 14,7 C14,7.9577283 13.8171263,8.85898677 13.4513788,9.70377541 C13.0856313,10.5485641 12.5799065,11.2939658 11.9342042,11.9399806 C11.2885019,12.5859955 10.5434607,13.0908358 9.69908079,13.4545015 C8.85470085,13.8181672 7.95387841,14 6.99661345,14 Z M6.99661345,12.6176186 C7.77777778,12.6176186 8.507015,12.4730558 9.18432511,12.1839303 C9.86163522,11.8948048 10.4576681,11.4927396 10.9724238,10.9777348 C11.4871795,10.4627299 11.8890502,9.86640852 12.1780358,9.18877057 C12.4670214,8.51113262 12.6115143,7.78154243 12.6115143,7 C12.6115143,6.22297515 12.4670214,5.49451436 12.1780358,4.81461762 C11.8890502,4.13472088 11.4871795,3.53727009 10.9724238,3.02226525 C10.4576681,2.50726041 9.86050637,2.10519522 9.18093856,1.8160697 C8.50137075,1.52694418 7.77100468,1.38238141 6.98984035,1.38238141 C6.21319142,1.38238141 5.48508305,1.52694418 4.80551524,1.8160697 C4.12594743,2.10519522 3.53104338,2.50726041 3.0208031,3.02226525 C2.51056281,3.53727009 2.11094985,4.13472088 1.8219642,4.81461762 C1.53297855,5.49451436 1.38848573,6.22297515 1.38848573,7 C1.38848573,7.78154243 1.53297855,8.51113262 1.8219642,9.18877057 C2.11094985,9.86640852 2.51169166,10.4627299 3.02418965,10.9777348 C3.53668763,11.4927396 4.13272053,11.8948048 4.81228834,12.1839303 C5.49185615,12.4730558 6.21996452,12.6176186 6.99661345,12.6176186 Z M5.81132075,10.7202323 C5.65779713,10.7202323 5.53023706,10.6716683 5.42864054,10.5745402 C5.32704403,10.4774121 5.27624577,10.3543078 5.27624577,10.2052275 C5.27624577,10.0561471 5.32704403,9.93304292 5.42864054,9.83591481 C5.53023706,9.73878671 5.65779713,9.69022265 5.81132075,9.69022265 L6.61731979,9.69022265 L6.61731979,6.85769603 L5.93323657,6.85769603 C5.77971295,6.85769603 5.65102403,6.80913198 5.54716981,6.71200387 C5.44331559,6.61487577 5.39138849,6.49177154 5.39138849,6.34269119 C5.39138849,6.19812843 5.44331559,6.0761536 5.54716981,5.9767667 C5.65102403,5.8773798 5.77971295,5.82768635 5.93323657,5.82768635 L7.20657958,5.82768635 C7.39622642,5.82768635 7.53959039,5.88754437 7.6366715,6.00726041 C7.73375262,6.12697644 7.78229318,6.28848015 7.78229318,6.49177154 L7.78229318,9.69022265 L8.5341074,9.69022265 C8.68763103,9.69022265 8.8151911,9.73878671 8.91678761,9.83591481 C9.01838413,9.93304292 9.06918239,10.0561471 9.06918239,10.2052275 C9.06918239,10.3543078 9.01838413,10.4774121 8.91678761,10.5745402 C8.8151911,10.6716683 8.68763103,10.7202323 8.5341074,10.7202323 L5.81132075,10.7202323 Z M6.95597484,4.77734753 C6.7031124,4.77734753 6.48750202,4.6881252 6.30914369,4.50968054 C6.13078536,4.33123588 6.04160619,4.11552114 6.04160619,3.8625363 C6.04160619,3.60503388 6.13078536,3.38706034 6.30914369,3.20861568 C6.48750202,3.03017102 6.7031124,2.94094869 6.95597484,2.94094869 C7.20883728,2.94094869 7.42444767,3.03017102 7.602806,3.20861568 C7.78116433,3.38706034 7.87034349,3.60503388 7.87034349,3.8625363 C7.87034349,4.11552114 7.78116433,4.33123588 7.602806,4.50968054 C7.42444767,4.6881252 7.20883728,4.77734753 6.95597484,4.77734753 Z" id="Shape"></path>
        </g>
    </g>
</svg>