<?xml version="1.0" encoding="UTF-8"?>
<svg width="24px" height="24px" viewBox="0 0 24 24" version="1.1" xmlns="http://www.w3.org/2000/svg" xmlns:xlink="http://www.w3.org/1999/xlink">
    <title>refresh</title>
    <g id="refresh" stroke="none" stroke-width="1" fill="none" fill-rule="evenodd">
        <path d="M4,12.1939422 C4,11.1123151 4.20151318,10.0995816 4.60453953,9.15574171 C5.00756588,8.2119018 5.56431696,7.38443002 6.27479277,6.67332637 C6.98526859,5.96222271 7.8107361,5.40641339 8.75119531,5.00589841 C9.69165453,4.60538343 10.7023596,4.40512594 11.7833106,4.40512594 C12.0332883,4.40512594 12.2762391,4.41770693 12.5121629,4.44286891 C12.7480866,4.46803089 12.9686765,4.50046135 13.1739326,4.54016029 L10.9593402,2.35324127 C10.8915333,2.27432634 10.8385289,2.18845686 10.8003271,2.09563281 C10.7621254,2.00280877 10.7430245,1.90438244 10.7430245,1.80035383 C10.7430245,1.58099545 10.8170857,1.39276355 10.9652081,1.23565813 C11.1133306,1.07855271 11.2939801,1 11.5071566,1 C11.74139,1 11.9278109,1.08075016 12.0664191,1.24225047 L15.6755454,4.9013627 C15.8406196,5.06527779 15.9231567,5.25995714 15.9231567,5.48540076 C15.9231567,5.70533869 15.8406196,5.90064589 15.6755454,6.07132236 L12.0664191,9.69609645 C11.9283904,9.8452331 11.7447707,9.91980143 11.5155601,9.91980143 C11.2967812,9.91980143 11.1133306,9.84433963 10.9652081,9.69341605 C10.8170857,9.54249246 10.7430245,9.35764125 10.7430245,9.13886241 C10.7430245,9.03425425 10.7621254,8.93693872 10.8003271,8.84691582 C10.8385289,8.75689292 10.8942861,8.67237571 10.9675988,8.59336419 L13.4590695,6.12145314 C13.217302,6.06504394 12.9547674,6.02428249 12.6714657,5.99916881 C12.388164,5.97405512 12.0921123,5.96149828 11.7833106,5.96149828 C10.922201,5.96149828 10.116438,6.12217757 9.36602179,6.44353615 C8.61560556,6.76489473 7.9561057,7.20935866 7.38752221,7.77692795 C6.81893872,8.34449723 6.37597195,9.00513204 6.0586219,9.75883237 C5.74127185,10.5125327 5.58259683,11.324236 5.58259683,12.1939422 C5.58259683,13.0550518 5.74187554,13.8631088 6.06043298,14.6181131 C6.37899042,15.3731174 6.82330947,16.0357806 7.39339012,16.6061028 C7.96347077,17.1764249 8.62461268,17.6210337 9.37681585,17.9399292 C10.129019,18.2588247 10.9356754,18.4182725 11.796785,18.4182725 C12.6640765,18.4182725 13.4724474,18.2588247 14.2218977,17.9399292 C14.971348,17.6210337 15.6312343,17.1764249 16.2015564,16.6061028 C16.7718785,16.0357806 17.2178879,15.3731174 17.5395846,14.6181131 C17.8612812,13.8631088 18.0221295,13.0550518 18.0221295,12.1939422 C18.0221295,11.953044 18.0918442,11.7571331 18.2312734,11.6062095 C18.3707026,11.4552859 18.5540567,11.3798242 18.7813355,11.3798242 C19.0203985,11.3798242 19.2156816,11.4552859 19.3671847,11.6062095 C19.5186878,11.7571331 19.5944394,11.953044 19.5944394,12.1939422 C19.5944394,13.2754727 19.3937231,14.2872162 18.9922905,15.2291725 C18.5908579,16.1711289 18.0326097,16.9996391 17.3175458,17.7147029 C16.6024819,18.4297668 15.7739959,18.9894156 14.8320878,19.3936494 C13.8901797,19.7978831 12.8784121,20 11.796785,20 C10.7157375,20 9.70425967,19.7978831 8.76235159,19.3936494 C7.82044351,18.9894156 6.99333394,18.4297668 6.2810229,17.7147029 C5.56871186,16.9996391 5.01046361,16.1711289 4.60627817,15.2291725 C4.20209272,14.2872162 4,13.2754727 4,12.1939422 Z" id="Path" fill="#FFFFFF" fill-rule="nonzero"></path>
    </g>
</svg>