<?xml version="1.0" encoding="UTF-8"?>
<svg width="24px" height="24px" viewBox="0 0 24 24" version="1.1" xmlns="http://www.w3.org/2000/svg" xmlns:xlink="http://www.w3.org/1999/xlink">
    <title>rss</title>
    <g id="rss" stroke="none" stroke-width="1" fill="none" fill-rule="evenodd">
        <path d="M6.34158629,18.9998493 C5.97979102,18.9998493 5.66574449,18.8700662 5.39944669,18.6104999 C5.1331489,18.3509337 5,18.0495967 5,17.706489 C5,17.3389669 5.13154137,17.0219062 5.3946241,16.755307 C5.65770683,16.4887078 5.97336089,16.3554082 6.34158629,16.3554082 C6.70971122,16.3554082 7.02049245,16.4838852 7.27392999,16.7408392 C7.52736752,16.9977932 7.65408629,17.3103829 7.65408629,17.6786083 C7.65408629,18.0403031 7.52575999,18.3509337 7.26910739,18.6104999 C7.01245479,18.8700662 6.70328109,18.9998493 6.34158629,18.9998493 Z M5.13066225,13.3486695 C5.13066225,13.1349681 5.2078238,12.9511317 5.36214692,12.7971603 C5.51647003,12.6431888 5.70013061,12.5662031 5.91312866,12.5662031 C6.67208491,12.5662031 7.38492508,12.7100019 8.05164916,12.9975995 C8.71837323,13.2851971 9.30509746,13.6807505 9.81182182,14.1842598 C10.3185462,14.6877691 10.7156821,15.2728858 11.0032294,15.9396099 C11.2907768,16.606334 11.4345505,17.3220375 11.4345505,18.0867206 C11.4345505,18.300422 11.357414,18.4842584 11.2031411,18.6382298 C11.0488683,18.7922013 10.8620177,18.869187 10.6425896,18.869187 C10.4295915,18.869187 10.2459309,18.7922013 10.0916078,18.6382298 C9.93728471,18.4842584 9.86012315,18.300422 9.86012315,18.0867206 C9.86012315,17.3620249 9.68201358,16.6996964 9.32579444,16.0997352 C8.9695753,15.4997739 8.49306752,15.0216586 7.8962711,14.6653893 C7.29947468,14.3091199 6.6384272,14.1309852 5.91312866,14.1309852 C5.70013061,14.1309852 5.51647003,14.0539995 5.36214692,13.900028 C5.2078238,13.7460565 5.13066225,13.5622704 5.13066225,13.3486695 Z M5.13066225,9.67580951 C5.13066225,9.45638133 5.2078238,9.27111322 5.36214692,9.12000517 C5.51647003,8.96889712 5.70013061,8.89334309 5.91312866,8.89334309 C7.18348117,8.89334309 8.37438641,9.1298513 9.48584439,9.60286772 C10.5973024,10.0758841 11.5739788,10.7349473 12.4158737,11.5800573 C13.2577685,12.4251672 13.9168317,13.4033005 14.3930632,14.514457 C14.8692947,15.6256136 15.1074104,16.8163681 15.1074104,18.0867206 C15.1074104,18.300422 15.030274,18.4842584 14.8760011,18.6382298 C14.7217282,18.7922013 14.5377411,18.869187 14.3240398,18.869187 C14.1110417,18.869187 13.9274063,18.7922013 13.7731334,18.6382298 C13.6188605,18.4842584 13.5417241,18.300422 13.5417241,18.0867206 C13.5417241,17.029969 13.3448265,16.0403318 12.9510313,15.1178092 C12.557236,14.1952865 12.0112527,13.3849394 11.3130813,12.686768 C10.6149099,11.9885966 9.80471351,11.4426132 8.88249225,11.048818 C7.96027098,10.6550228 6.97048312,10.4581252 5.91312866,10.4581252 C5.70013061,10.4581252 5.51647003,10.3811395 5.36214692,10.227168 C5.2078238,10.0731965 5.13066225,9.88941038 5.13066225,9.67580951 Z M5.13066225,5.78321994 C5.13066225,5.56961907 5.2078238,5.3856822 5.36214692,5.23140932 C5.51647003,5.07713644 5.70013061,5 5.91312866,5 C7.35649185,5 8.73226332,5.21980494 10.0404431,5.65941483 C11.3486228,6.09902472 12.5470885,6.71955735 13.6358401,7.52101275 C14.7245917,8.32246814 15.6695444,9.26900333 16.4706984,10.3606183 C17.2718524,11.4522333 17.8936912,12.65198 18.3362147,13.9598583 C18.7787382,15.2677367 19,16.6433574 19,18.0867206 C19,18.300422 18.9228384,18.4842584 18.7685153,18.6382298 C18.6141922,18.7922013 18.4305316,18.869187 18.2175336,18.869187 C17.9981054,18.869187 17.8112549,18.7922013 17.656982,18.6382298 C17.5027091,18.4842584 17.4255727,18.300422 17.4255727,18.0867206 C17.4255727,16.8152629 17.2331711,15.6029072 16.8483681,14.4496534 C16.463565,13.2963996 15.9185613,12.2406777 15.2133569,11.2824879 C14.5081525,10.3242981 13.6748479,9.49260104 12.713443,8.78739666 C11.7520381,8.08219227 10.6961656,7.53560613 9.54582544,7.14763822 C8.39548527,6.75967031 7.18458635,6.56568636 5.91312866,6.56568636 C5.70013061,6.56568636 5.51647003,6.4885248 5.36214692,6.33420169 C5.2078238,6.17987857 5.13066225,5.99621799 5.13066225,5.78321994 Z" id="Shape" fill="#FFFFFF" fill-rule="nonzero"></path>
    </g>
</svg>