<?xml version="1.0" encoding="UTF-8"?>
<svg width="24px" height="24px" viewBox="0 0 24 24" version="1.1" xmlns="http://www.w3.org/2000/svg" xmlns:xlink="http://www.w3.org/1999/xlink">
    <title>sort-up</title>
    <g id="sort-up" stroke="none" stroke-width="1" fill="none" fill-rule="evenodd">
        <path d="M11.9992736,16 C12.2490618,16 12.4527259,15.9190575 12.6102659,15.7571725 C12.767806,15.5952875 12.846576,15.3841045 12.846576,15.1236235 L12.846576,7.31941633 L12.7534805,4.74040788 L12.2380049,5.0012592 L14.8248255,7.93827465 L16.5841976,9.7080638 C16.660385,9.78674304 16.7498689,9.84815976 16.8526492,9.89231396 C16.9554296,9.93646816 17.0670272,9.95854526 17.187442,9.95854526 C17.4192325,9.95854526 17.6126064,9.87918704 17.7675639,9.72047059 C17.9225213,9.56175415 18,9.3612908 18,9.11908054 C18,8.88600563 17.91324,8.67716821 17.7397199,8.49256827 L12.6320568,3.2761592 C12.5483637,3.186534 12.4514951,3.11810116 12.3414511,3.0708607 C12.2314071,3.02362023 12.117348,3 11.9992736,3 C11.8845083,3 11.7723457,3.02362023 11.662786,3.0708607 C11.5532263,3.11810116 11.4545014,3.186534 11.3666115,3.2761592 L6.26524353,8.49256827 C6.08841451,8.67716821 6,8.88600563 6,9.11908054 C6,9.3612908 6.07747871,9.56175415 6.23243614,9.72047059 C6.38739357,9.87918704 6.58080788,9.95854526 6.81267907,9.95854526 C6.9330939,9.95854526 7.0444292,9.93646816 7.14668496,9.89231396 C7.24894072,9.84815976 7.33864654,9.78674304 7.41580243,9.7080638 L9.17239014,7.93827465 L11.7543683,5.0012592 L11.2437351,4.74040788 L11.1506396,7.31941633 L11.1506396,15.1236235 C11.1506396,15.3841045 11.2294096,15.5952875 11.3869497,15.7571725 C11.5444897,15.9190575 11.7485977,16 11.9992736,16 Z" id="Path" fill="#FFFFFF" fill-rule="nonzero"></path>
        <rect id="Rectangle" fill="#FFFFFF" x="5" y="18" width="14" height="1.75" rx="0.875"></rect>
    </g>
</svg>