<?xml version="1.0" encoding="UTF-8"?>
<svg width="24px" height="24px" viewBox="0 0 24 24" version="1.1" xmlns="http://www.w3.org/2000/svg" xmlns:xlink="http://www.w3.org/1999/xlink">
    <title>unread</title>
    <g id="unread" stroke="none" stroke-width="1" fill="none" fill-rule="evenodd">
        <path d="M4.64371329,19 C3.77619322,19 3.11869433,18.7850108 2.6712166,18.3550323 C2.22373887,17.9250538 2,17.2878402 2,16.4433916 L2,7.55660843 C2,6.71269148 2.21312236,6.07561084 2.63936708,5.6453665 C3.06561181,5.21512217 3.65961541,5 4.42137788,5 L19.3562867,5 C20.2238068,5 20.8813057,5.21512217 21.3287834,5.6453665 C21.7762611,6.07561084 22,6.71269148 22,7.55660843 L22,16.4433916 C22,17.2878402 21.7868776,17.9250538 21.3606329,18.3550323 C20.9343882,18.7850108 20.3403846,19 19.5786221,19 L4.64371329,19 Z M4.62456283,17.6334979 L19.3754372,17.6334979 C19.7659615,17.6334979 20.06843,17.531254 20.2828427,17.326766 C20.4972553,17.1222781 20.6044616,16.8212179 20.6044616,16.4235853 L20.6044616,7.57721231 C20.6044616,7.17957969 20.4972553,6.87712369 20.2828427,6.66984428 C20.06843,6.46256488 19.7659615,6.35892518 19.3754372,6.35892518 L4.62456283,6.35892518 C4.23403846,6.35892518 3.93170577,6.46256488 3.71756477,6.66984428 C3.50342377,6.87712369 3.39635326,7.17674389 3.39635326,7.5687049 L3.39635326,16.4158754 C3.39635326,16.8186479 3.50342377,17.1222781 3.71756477,17.326766 C3.93170577,17.531254 4.23403846,17.6334979 4.62456283,17.6334979 Z M11.9961292,14.1618116 C11.7200548,14.1618116 11.4540084,14.1098145 11.1979899,14.0058204 C10.9419714,13.9018262 10.6935814,13.7436638 10.4528199,13.5313331 L2.74428712,6.73378276 L3.66500289,5.83106722 L11.2389393,12.5010065 C11.4761695,12.7161729 11.7285661,12.8237562 11.9961292,12.8237562 C12.2636017,12.8237562 12.5185789,12.7161729 12.7610607,12.5010065 L20.3280704,5.83106722 L21.2565278,6.73378276 L13.5393026,13.5313331 C13.2985411,13.7436638 13.0501737,13.9018262 12.7942005,14.0058204 C12.5382273,14.1098145 12.2722035,14.1618116 11.9961292,14.1618116 Z M3.79416658,17.9033422 L2.87277172,16.9937144 L8.69980646,11.2984049 L9.62459679,12.1969996 L3.79416658,17.9033422 Z M20.2137109,17.911052 L14.3675257,12.1969996 L15.3011443,11.2984049 L21.1360565,17.0014242 L20.2137109,17.911052 Z" id="Shape" fill="#FFFFFF" fill-rule="nonzero"></path>
    </g>
</svg>