<?xml version="1.0" encoding="UTF-8"?>
<svg width="16px" height="16px" viewBox="0 0 16 16" version="1.1" xmlns="http://www.w3.org/2000/svg" xmlns:xlink="http://www.w3.org/1999/xlink">
    <title>up</title>
    <g id="up" stroke="none" stroke-width="1" fill="none" fill-rule="evenodd">
        <path d="M8.0033863,11 C7.77551632,11 7.56944567,10.9083141 7.38517434,10.7249424 L2.22751724,5.36830391 C2.15308912,5.29101561 2.09656255,5.20552571 2.05793753,5.11183423 C2.01931251,5.01814275 2,4.91639294 2,4.8065848 C2,4.65630596 2.03495652,4.51977999 2.10486957,4.39700691 C2.17478262,4.27423382 2.26884072,4.17737273 2.38704386,4.10642364 C2.50524701,4.03547455 2.6379654,4 2.78519903,4 C3.00396832,4 3.19416568,4.08058327 3.35579111,4.24174981 L8.3337625,9.42056792 L7.67237517,9.42056792 L12.6453729,4.24174981 C12.8090443,4.08058327 12.9988536,4 13.214801,4 C13.3619641,4 13.4946648,4.03547455 13.6129032,4.10642364 C13.7311416,4.17737273 13.8252174,4.27423382 13.8951304,4.39700691 C13.9650435,4.51977999 14,4.65630596 14,4.8065848 C14,5.02326426 13.9237024,5.20860578 13.7711071,5.36260936 L8.61609552,10.7249424 C8.52925096,10.8159836 8.43452265,10.884372 8.33191062,10.9301074 C8.22929858,10.9758429 8.11979047,10.9991404 8.0033863,11 Z" id="Path" fill="#FFFFFF" fill-rule="nonzero" transform="translate(8, 7.5) scale(1, -1) translate(-8, -7.5)"></path>
    </g>
</svg>