<?xml version="1.0" encoding="UTF-8"?>
<svg width="24px" height="24px" viewBox="0 0 24 24" version="1.1" xmlns="http://www.w3.org/2000/svg" xmlns:xlink="http://www.w3.org/1999/xlink">
    <title>view-normal</title>
    <g id="view-normal" stroke="none" stroke-width="1" fill="none" fill-rule="evenodd">
        <path d="M7.48847867,7.08727725 C7.25813834,7.08727725 7.06397458,7.00722867 6.90598737,6.84713149 C6.74800016,6.68703432 6.66900656,6.49085307 6.66900656,6.25858774 C6.66900656,6.02580397 6.748154,5.82936349 6.90644887,5.66926632 C7.06474375,5.50916915 7.25875368,5.42912056 7.48847867,5.42912056 L21.1805279,5.42912056 C21.4107657,5.42912056 21.6049038,5.50932468 21.7629423,5.66973292 C21.9209808,5.83014117 22,6.02642611 22,6.25858774 C22,6.49085307 21.9208269,6.68703432 21.7624808,6.84713149 C21.6041346,7.00722867 21.4101503,7.08727725 21.1805279,7.08727725 L7.48847867,7.08727725 Z M7.48847867,12.8280674 C7.25813834,12.8280674 7.06397458,12.7480447 6.90598737,12.5879994 C6.74800016,12.4279541 6.66900656,12.2317987 6.66900656,11.9995334 C6.66900656,11.7666459 6.748154,11.5703351 6.90644887,11.4106008 C7.06474375,11.2508666 7.25875368,11.1709994 7.48847867,11.1709994 L21.1805279,11.1709994 C21.4107657,11.1709994 21.6049038,11.2510221 21.7629423,11.4110674 C21.9209808,11.5711127 22,11.7672681 22,11.9995334 C22,12.2324209 21.9208269,12.4287317 21.7624808,12.588466 C21.6041346,12.7482002 21.4101503,12.8280674 21.1805279,12.8280674 L7.48847867,12.8280674 Z M7.48847867,18.5699462 C7.25813834,18.5699462 7.06397458,18.4897421 6.90598737,18.3293339 C6.74800016,18.1689256 6.66900656,17.9726407 6.66900656,17.740479 C6.66900656,17.5082137 6.748154,17.3120325 6.90644887,17.1519353 C7.06474375,16.9918381 7.25875368,16.9117895 7.48847867,16.9117895 L21.1805279,16.9117895 C21.4107657,16.9117895 21.6049038,16.9919937 21.7629423,17.1524019 C21.9209808,17.3128101 22,17.5088359 22,17.740479 C22,17.9732628 21.9208269,18.1697033 21.7624808,18.3298005 C21.6041346,18.4898976 21.4101503,18.5699462 21.1805279,18.5699462 L7.48847867,18.5699462 Z M3.24482228,7.51717549 C2.90351658,7.51717549 2.61071978,7.39518435 2.36643187,7.15120206 C2.12214396,6.90721978 2,6.60968167 2,6.25858774 C2,5.91298938 2.12214396,5.61682516 2.36643187,5.3700951 C2.61071978,5.12336503 2.90351658,5 3.24482228,5 C3.59258899,5 3.88715489,5.12336503 4.12851996,5.3700951 C4.36988503,5.61682516 4.49056757,5.91298938 4.49056757,6.25858774 C4.49056757,6.60968167 4.36988503,6.90721978 4.12851996,7.15120206 C3.88715489,7.39518435 3.59258899,7.51717549 3.24482228,7.51717549 Z M3.24482228,13.2581211 C2.90351658,13.2581211 2.61071978,13.1362855 2.36643187,12.8926143 C2.12214396,12.6489431 2,12.3512495 2,11.9995334 C2,11.6538313 2.12214396,11.3576412 2.36643187,11.110963 C2.61071978,10.8642848 2.90351658,10.7409457 3.24482228,10.7409457 C3.59258899,10.7409457 3.88715489,10.8642848 4.12851996,11.110963 C4.36988503,11.3576412 4.49056757,11.6538313 4.49056757,11.9995334 C4.49056757,12.3512495 4.36988503,12.6489431 4.12851996,12.8926143 C3.88715489,13.1362855 3.59258899,13.2581211 3.24482228,13.2581211 Z M3.24482228,19 C2.90351658,19 2.61071978,18.8764794 2.36643187,18.6294383 C2.12214396,18.3823972 2,18.0860774 2,17.740479 C2,17.3953991 2.12214396,17.0993645 2.36643187,16.8523752 C2.61071978,16.6053859 2.90351658,16.4818913 3.24482228,16.4818913 C3.59258899,16.4818913 3.88715489,16.6053859 4.12851996,16.8523752 C4.36988503,17.0993645 4.49056757,17.3953991 4.49056757,17.740479 C4.49056757,18.0860774 4.36988503,18.3823972 4.12851996,18.6294383 C3.88715489,18.8764794 3.59258899,19 3.24482228,19 Z" id="Shape" fill="#FFFFFF" fill-rule="nonzero"></path>
    </g>
</svg>