<?xml version="1.0"?>
<!--Icons from directory ""-->
<svg xmlns="http://www.w3.org/2000/svg" width="16" height="272" viewBox="0 0 16 272"><svg xmlns:rdf="http://www.w3.org/1999/02/22-rdf-syntax-ns#" xmlns:cc="http://creativecommons.org/ns#" xmlns:dc="http://purl.org/dc/elements/1.1/" id="add" height="16" width="16" version="1.1" y="0"><title id="add-title9167">Gnome Symbolic Icon Theme</title><g id="add-layer12" transform="translate(-60 -726)"><path id="add-rect31992" style="color:#FFFFFF" d="m67 729v4h-4v2h4v4h2v-4h4v-2h-4v-4h-2z" fill="#fff"/></g></svg><svg xmlns:rdf="http://www.w3.org/1999/02/22-rdf-syntax-ns#" xmlns:cc="http://creativecommons.org/ns#" xmlns:dc="http://purl.org/dc/elements/1.1/" id="all" height="16" width="16" version="1.1" y="16"><title id="all-title9167">Gnome Symbolic Icon Theme</title><g id="all-layer12" transform="translate(-40 -746)" fill="#fff"><rect id="all-rect7356" style="color:#FFFFFF" height="2.0002" width="9.9996" y="749" x="43"/><rect id="all-rect7358" style="color:#FFFFFF" height="2.0002" width="9.9996" y="753" x="43"/><rect id="all-rect7360" style="color:#FFFFFF" height="2.0002" width="9.9996" y="757" x="43"/></g></svg><svg xmlns:rdf="http://www.w3.org/1999/02/22-rdf-syntax-ns#" xmlns:cc="http://creativecommons.org/ns#" xmlns:dc="http://purl.org/dc/elements/1.1/" id="category" height="16" width="16" version="1.1" y="32"><title id="category-title9167">Gnome Symbolic Icon Theme</title><g id="category-layer13" transform="translate(-442,-176)"><g id="category-g14154" transform="translate(234 -820)"><path id="category-rect3845" d="m208.53 997c-0.28913 0-0.53125 0.24212-0.53125 0.53125v13.938c0 0.2985 0.23264 0.5312 0.53125 0.5312h14.938c0.2986 0 0.53125-0.2326 0.53125-0.5312v-8.9376c0-0.2891-0.24212-0.5312-0.53125-0.5312h-12.469v7.5c0 0.277-0.223 0.5-0.5 0.5s-0.5-0.223-0.5-0.5v-8c0-0.277 0.223-0.5 0.5-0.5h2.9688 8.5312v-1.4062c0-0.3272-0.26666-0.5938-0.59375-0.5938h-7.4062v-1.4688c0-0.39-0.24-0.63-0.53-0.63z" fill="#fff"/></g></g></svg><svg xmlns:rdf="http://www.w3.org/1999/02/22-rdf-syntax-ns#" xmlns:cc="http://creativecommons.org/ns#" xmlns:dc="http://purl.org/dc/elements/1.1/" id="close" height="16" width="16" version="1.1" y="48"><title id="close-title9167">Gnome Symbolic Icon Theme</title><g id="close-layer12" transform="translate(-60,-518)"><g id="close-layer4-4-1" transform="translate(19,-242)"><path id="close-path10839-9" style="block-progression:tb;text-indent:0;color:#FFFFFF;enable-background:new;text-transform:none" d="m45 764h1c0.01037-0.00012 0.02079-0.00046 0.03125 0 0.25495 0.0112 0.50987 0.12858 0.6875 0.3125l2.281 2.28 2.312-2.28c0.266-0.23 0.447-0.3 0.688-0.31h1v1c0 0.28647-0.03434 0.55065-0.25 0.75l-2.2812 2.2812 2.25 2.25c0.188 0.19 0.281 0.45 0.281 0.72v1h-1c-0.2653-0.00001-0.53059-0.0931-0.71875-0.28125l-2.281-2.28-2.281 2.28c-0.188 0.19-0.454 0.28-0.719 0.28h-1v-1c-0.000003-0.26529 0.09306-0.53058 0.28125-0.71875l2.2812-2.25-2.281-2.28c-0.21-0.19-0.303-0.47-0.281-0.75v-1z" fill="#fff"/></g></g></svg><svg xmlns:rdf="http://www.w3.org/1999/02/22-rdf-syntax-ns#" xmlns:cc="http://creativecommons.org/ns#" xmlns:dc="http://purl.org/dc/elements/1.1/" id="configure" height="16" width="16" version="1.1" y="64"><title id="configure-title9167">Gnome Symbolic Icon Theme</title><g id="configure-layer15" transform="translate(-441 -401)"><path id="configure-path35543-6-4" style="color:#FFFFFF" d="m449 402c-0.22065 0-0.44081 0.0113-0.65625 0.0312l-0.40625 2.0938c-0.33446 0.0733-0.66305 0.17589-0.96875 0.3125l-1.5312-1.4688c-0.38863 0.23011-0.72695 0.51408-1.0625 0.8125l0.90625 1.9062c-0.22242 0.24899-0.42425 0.5225-0.59375 0.8125l-2.0938-0.28125c-0.17772 0.40877-0.30872 0.83637-0.40625 1.2812l1.8438 1c-0.0171 0.16809-0.0312 0.3274-0.0312 0.5s0.0142 0.33191 0.0312 0.5l-1.8438 1c0.0975 0.44488 0.22853 0.87248 0.40625 1.2812l2.0938-0.28125c0.1695 0.29 0.37133 0.56351 0.59375 0.8125l-0.90625 1.9062c0.33555 0.29842 0.67387 0.58239 1.0625 0.8125l1.5312-1.4688c0.3057 0.13661 0.63429 0.23916 0.96875 0.3125l0.40625 2.0938c0.21544 0.02 0.4356 0.0312 0.65625 0.0312s0.44081-0.0113 0.65625-0.0312l0.40625-2.0938c0.33446-0.0733 0.66305-0.17589 0.96875-0.3125l1.5312 1.4688c0.38863-0.23011 0.72695-0.51408 1.0625-0.8125l-0.90625-1.9062c0.22242-0.24899 0.42425-0.5225 0.59375-0.8125l2.0938 0.28125c0.17772-0.40877 0.30872-0.83637 0.40625-1.2812l-1.8438-1c0.0171-0.16809 0.0312-0.3274 0.0312-0.5s-0.0142-0.33191-0.0312-0.5l1.8438-1c-0.0975-0.44488-0.22853-0.87248-0.40625-1.2812l-2.0938 0.28125c-0.1695-0.29-0.37133-0.56351-0.59375-0.8125l0.90625-1.9062c-0.33555-0.29842-0.67387-0.58239-1.0625-0.8125l-1.5312 1.4688c-0.3057-0.13661-0.63429-0.23916-0.96875-0.3125l-0.40625-2.0938c-0.21544-0.02-0.4356-0.0312-0.65625-0.0312zm0 4c1.6568 0 3 1.3432 3 3s-1.3432 3-3 3-3-1.3432-3-3 1.3432-3 3-3z" fill="#fff"/></g></svg><svg xmlns:rdf="http://www.w3.org/1999/02/22-rdf-syntax-ns#" xmlns:cc="http://creativecommons.org/ns#" xmlns:dc="http://purl.org/dc/elements/1.1/" id="down" height="16" width="16" version="1.1" y="80"><title id="down-title9167">Gnome Symbolic Icon Theme</title><g id="down-layer12" transform="translate(-181 -747)"><path id="down-path10839-9-9-5-9-1" style="block-progression:tb;text-indent:0;color:#FFFFFF;enable-background:new;text-transform:none" d="m195.03 751v1c-0.00091 0.0111 0.00059 0.021-0.00009 0.0312-0.0112 0.25496-0.12835 0.50994-0.31251 0.6875l-5.7188 6.2977-5.7188-6.2977c-0.18821-0.1881-0.28121-0.45346-0.28122-0.71875v-1h1c0.26531 0.00007 0.53059 0.0931 0.71873 0.28131l4.2812 4.829 4.2813-4.829c0.19464-0.21073 0.46925-0.30315 0.74998-0.2813z" fill="#fff"/></g></svg><svg viewBox="0 0 256 256" width="16" height="16" id="icon" y="96"><title>Logo FreshRSS</title><circle cy="128" cx="128" r="33" fill="#2980b9"/><g stroke="#2980b9" stroke-width="24" fill="none"><g stroke-opacity=".3"><path d="m12 128a116 116 0 1 1 116 116"/><path d="m54 128a74 74 0 1 1 74 74"/></g><path d="m128 12a116 116 0 0 1 116 116"/><path d="m128 54a74 74 0 0 1 74 74"/></g></svg><svg width="16" height="16" id="key" y="112"><g transform="translate(-341 -257)" fill="#fff"><path style="block-progression:tb;text-indent:0;color:#000000;text-transform:none" d="m346 260c-2.7496 0-5 2.2504-5 5s2.2504 5 5 5c1.5862 0 2.9034-0.84459 3.8125-2h5.5938l0.21875-0.75 1.0312-4 0.3125-1.25h-7.1562c-0.90914-1.1554-2.2263-2-3.8125-2zm0 2c1.1158 0 2.0379 0.59507 2.5625 1.5l0.3125 0.5h5.5313l-0.53125 2h-5l-0.3125 0.5c-0.52462 0.90493-1.4466 1.5-2.5625 1.5-1.6687 0-3-1.3313-3-3s1.3313-3 3-3z"/><path opacity=".35" style="color:#000000" d="m355.5 265h-5.5l-0.56 2h5.56z"/><path style="color:#000000" d="m346 265c0 0.55228-0.44772 1-1 1s-1-0.44772-1-1 0.44772-1 1-1 1 0.44772 1 1z"/></g></svg><svg xmlns:rdf="http://www.w3.org/1999/02/22-rdf-syntax-ns#" xmlns:cc="http://creativecommons.org/ns#" xmlns:dc="http://purl.org/dc/elements/1.1/" id="next" height="16" width="16" version="1.1" y="128"><title id="next-title9167">Gnome Symbolic Icon Theme</title><g id="next-layer12" transform="translate(-121 -747)"><path id="next-path10839-9-9-5-9" style="block-progression:tb;text-indent:0;color:#FFFFFF;enable-background:new;text-transform:none" d="m125 749h1c0.0104-0.00012 0.0208-0.00046 0.0313 0 0.25495 0.0112 0.50987 0.12858 0.6875 0.3125l6.2977 5.7188-6.2977 5.7188c-0.18816 0.18819-0.45346 0.28125-0.71875 0.28125h-1v-1c0-0.26529 0.0931-0.53058 0.28125-0.71875l4.829-4.2812-4.829-4.2812c-0.21074-0.19463-0.30316-0.46925-0.28125-0.75z" fill="#fff"/></g></svg><svg xmlns:rdf="http://www.w3.org/1999/02/22-rdf-syntax-ns#" xmlns:cc="http://creativecommons.org/ns#" xmlns:dc="http://purl.org/dc/elements/1.1/" id="prev" height="16" width="16" version="1.1" y="144"><title id="prev-title9167">Gnome Symbolic Icon Theme</title><g id="prev-layer12" transform="translate(-301 -747)"><path id="prev-path5441" style="block-progression:tb;text-indent:0;color:#FFFFFF;enable-background:new;text-transform:none" d="m313.01 749h-1c-0.0104-0.00012-0.0208-0.00046-0.0313 0-0.25495 0.0112-0.50987 0.12858-0.6875 0.3125l-6.2977 5.7188 6.2977 5.7188c0.18816 0.18819 0.45346 0.28125 0.71875 0.28125h1v-1c0-0.26529-0.0931-0.53058-0.28125-0.71875l-4.829-4.2812 4.829-4.2812c0.21074-0.19463 0.30316-0.46925 0.28125-0.75z" fill="#fff"/></g></svg><svg xmlns:rdf="http://www.w3.org/1999/02/22-rdf-syntax-ns#" xmlns:cc="http://creativecommons.org/ns#" xmlns:dc="http://purl.org/dc/elements/1.1/" id="refresh" height="16" width="16" version="1.1" y="160"><title id="refresh-title9167">Gnome Symbolic Icon Theme</title><g id="refresh-layer12" transform="translate(-241 -627)"><path id="refresh-path4597" style="block-progression:tb;text-indent:0;color:#FFFFFF;text-transform:none" d="m253.91 628.97a1.0001 1.0001 0 0 0 -0.125 0.0312 1.0001 1.0001 0 0 0 -0.78125 1v1.6875c-0.38225-0.57796-0.84927-1.0822-1.4062-1.5-1.1556-0.86677-2.532-1.2523-3.875-1.1875-0.19186 0.009-0.37223 0.0353-0.5625 0.0625-1.5222 0.21741-2.9782 1.023-3.9688 2.3438-1.9812 2.6414-1.4227 6.425 1.2188 8.4062s6.425 1.4227 8.4062-1.2188a1.0063 1.0063 0 0 0 0.19 -0.6 1.0063 1.0063 0 0 0 0 -0.15625v-0.84375h-0.8125-0.0937a1.0063 1.0063 0 0 0 -0.0937 0 1.0063 1.0063 0 0 0 -0.8125 0.40625c-1.3326 1.7767-3.817 2.1139-5.5938 0.78125-1.7767-1.3326-2.1139-3.817-0.78125-5.5938 1.3326-1.7767 3.817-2.1139 5.5938-0.78125 0.42946 0.32212 0.76954 0.73295 1.0312 1.1875h-1.4375a1.0001 1.0001 0 0 0 -1 1 1.0001 1.0001 0 0 0 0 0.21875v0.78125h0.84375 0.15625 4 1v-1-4a1.0001 1.0001 0 0 0 0 -0.1875v-0.8125h-0.8125a1.0001 1.0001 0 0 0 -0.28125 -0.0312z" fill="#fff"/></g></svg><svg width="16" height="16" id="rss" y="176"><g fill="#fff" transform="translate(-561 -301)"><path style="color:#000000;enable-background:new" d="m325.06 97.188c0 1.7872-0.89543 3.2361-2 3.2361s-2-1.4488-2-3.2361c0-1.7872 0.89543-3.2361 2-3.2361s2 1.4488 2 3.2361z" transform="matrix(1 0 0 .61803 241.94 252.93)"/><path style="color:#000000;enable-background:new" d="m563 303v1c0 0.55016 0.45347 1 1 1 4.9706 0 9 4.0294 9 9 0 0.55016 0.45347 1 1 1h1v-1c0-6.0751-4.9249-11-11-11h-1zm0 4v1c0 0.55016 0.45347 1 1 1 2.7614 0 5 2.2386 5 5 0 0.55016 0.45347 1 1 1h1v-1c0-3.866-3.134-7-7-7h-1z"/></g></svg><svg xmlns:rdf="http://www.w3.org/1999/02/22-rdf-syntax-ns#" xmlns:cc="http://creativecommons.org/ns#" xmlns:dc="http://purl.org/dc/elements/1.1/" id="search" height="16" width="16" version="1.1" y="192"><title id="search-title9167">Gnome Symbolic Icon Theme</title><g id="search-layer13" transform="translate(-441 -195)" fill="#fff"><path id="search-path5079" style="block-progression:tb;text-indent:0;color:#FFFFFF;enable-background:new;text-transform:none" d="m447.51 196c-3.0289 0-5.5107 2.479-5.5107 5.5045 0 3.0254 2.4819 5.5045 5.5107 5.5045s5.5107-2.479 5.5107-5.5045c0-3.0254-2.4819-5.5045-5.5107-5.5045zm0 2.0089c1.9474 0 3.4995 1.5504 3.4995 3.4955s-1.5522 3.4955-3.4995 3.4955c-1.9474 0-3.4995-1.5504-3.4995-3.4955 0-1.9452 1.5522-3.4955 3.4995-3.4955z"/><path id="search-path5081" style="block-progression:tb;text-indent:0;color:#FFFFFF;enable-background:new;text-transform:none" d="m450.81 204a1.0001 1.0001 0 0 0 -0.5 1.7188l4 4a1.0055 1.0055 0 1 0 1.4062 -1.4375l-4-4a1.0001 1.0001 0 0 0 -0.91 -0.28z"/></g></svg><svg xmlns:rdf="http://www.w3.org/1999/02/22-rdf-syntax-ns#" xmlns:cc="http://creativecommons.org/ns#" xmlns:dc="http://purl.org/dc/elements/1.1/" id="up" height="16" width="16" version="1.1" y="208"><title id="up-title9167">Gnome Symbolic Icon Theme</title><g id="up-layer12" transform="translate(-201 -747)"><path id="up-path10839-9-9-5-9-1-0" style="block-progression:tb;text-indent:0;color:#FFFFFF;enable-background:new;text-transform:none" d="m215.03 759v-1c-0.00091-0.0111 0.00059-0.021-0.00009-0.0312-0.0112-0.25496-0.12835-0.50994-0.31251-0.6875l-5.7188-6.2977-5.7188 6.2977c-0.18821 0.1881-0.28121 0.45346-0.28122 0.71875v1h1c0.26531-0.00007 0.53059-0.0931 0.71873-0.28131l4.2812-4.829 4.2813 4.829c0.19464 0.21073 0.46925 0.30315 0.74998 0.2813z" fill="#fff"/></g></svg><svg viewBox="0 0 16 16" width="16" height="16" id="view-global" y="224"><g transform="translate(-61-867)" fill="#fff"><rect rx=".385" ry=".379" height="2" width="2" y="870" x="64"/><rect rx=".385" ry=".379" height="2" width="2" y="870" x="68"/><rect rx=".385" ry=".379" height="2" width="2" y="870" x="72"/><rect rx=".385" ry=".379" height="2" width="2" y="874.02" x="64"/><rect rx=".385" ry=".379" height="2" width="2" y="874.02" x="68"/><rect rx=".385" ry=".379" height="2" width="2" y="874.02" x="72"/><rect rx=".385" ry=".379" height="2" width="2" y="878" x="64"/><rect rx=".385" ry=".379" height="2" width="2" y="878" x="68"/><rect rx=".385" ry=".379" height="2" width="2" y="878" x="72"/></g></svg><svg viewBox="0 0 16 16" width="16" height="16" id="view-normal" y="240"><g color="#fff" transform="translate(-40-746)" fill="#fff"><path d="m43 749h10v2h-10z"/><path d="m43 753h10v2h-10z"/><path d="m43 757h10v2h-10z"/></g></svg><svg viewBox="0 0 16 16" width="16" height="16" id="view-reader" y="256"><g color="#fff" transform="translate(-181-867)" fill="#fff"><path d="m181 868v1 11 1h1 5c0.1754 0 0.52538 0.15166 0.8125 0.34375s0.46875 0.375 0.46875 0.375l0.72 0.72 0.71875-0.75s0.8963-0.6875 1.2812-0.6875h5 1v-1-11-1h-1-5c-0.87652 0-1.5602 0.34756-2.0312 0.6875-0.0301-0.0207-0.031-0.0105-0.0625-0.0312-0.46-0.31-1.08-0.66-1.91-0.66h-5-1zm2 2h4c0.13821 0 0.51476 0.14746 0.8125 0.34375s0.5 0.375 0.5 0.375l0.71875 0.6875 0.6875-0.71875s0.89975-0.6875 1.2812-0.6875h4v9h-4c-0.87693 0-1.5601 0.34735-2.0312 0.6875-0.0196-0.0135-0.011-0.0177-0.0312-0.0312-0.46-0.31-1.1-0.66-1.94-0.66h-4v-9z"/><g transform="scale(-1 1)"><rect y="872" width="3" rx=".375" x="-187" height="2"/><rect y="875" width="3" rx=".375" x="-187" height="2"/><rect y="872" width="3" rx=".375" x="-194" height="2"/><rect y="875" width="3" rx=".375" x="-194" height="2"/></g></g></svg></svg>
