<?xml version="1.0" encoding="UTF-8" standalone="no"?>
<svg
   xmlns:dc="http://purl.org/dc/elements/1.1/"
   xmlns:cc="http://creativecommons.org/ns#"
   xmlns:rdf="http://www.w3.org/1999/02/22-rdf-syntax-ns#"
   xmlns:svg="http://www.w3.org/2000/svg"
   xmlns="http://www.w3.org/2000/svg"
   xmlns:sodipodi="http://sodipodi.sourceforge.net/DTD/sodipodi-0.dtd"
   xmlns:inkscape="http://www.inkscape.org/namespaces/inkscape"
   width="17"
   height="17"
   viewBox="0 0 17 17"
   version="1.1"
   id="svg5"
   sodipodi:docname="refresh.svg"
   inkscape:version="0.92.3 (unknown)">
  <metadata
     id="metadata11">
    <rdf:RDF>
      <cc:Work
         rdf:about="">
        <dc:format>image/svg+xml</dc:format>
        <dc:type
           rdf:resource="http://purl.org/dc/dcmitype/StillImage" />
        <dc:title></dc:title>
      </cc:Work>
    </rdf:RDF>
  </metadata>
  <defs
     id="defs9" />
  <sodipodi:namedview
     pagecolor="#ffffff"
     bordercolor="#666666"
     borderopacity="1"
     objecttolerance="10"
     gridtolerance="10"
     guidetolerance="10"
     inkscape:pageopacity="0"
     inkscape:pageshadow="2"
     inkscape:window-width="1920"
     inkscape:window-height="1026"
     id="namedview7"
     showgrid="false"
     inkscape:zoom="14.75"
     inkscape:cx="8"
     inkscape:cy="8"
     inkscape:window-x="0"
     inkscape:window-y="27"
     inkscape:window-maximized="1"
     inkscape:current-layer="svg5" />
  <g
     id="surface3">
    <path
       style="fill:#515151;fill-opacity:1;fill-rule:nonzero;stroke:none"
       d="M 15,0 V 3.042969 C 12.386719,-0.0820312 7.859375,-0.945312 4.25,1.132812 0.1875,3.480469 -1.207031,8.679688 1.140625,12.746094 3.488281,16.8125 8.683594,18.207031 12.75,15.859375 c 0.140625,-0.08594 0.28125,-0.179687 0.417969,-0.273437 L 12.171875,13.859375 C 12.035156,13.953125 11.894531,14.042969 11.75,14.125 8.640625,15.921875 4.667969,14.855469 2.871094,11.746094 1.078125,8.636719 2.140625,4.660156 5.25,2.863281 8.191406,1.167969 11.941406,2.019531 13.859375,4.820312 L 14.035156,5 H 10 v 2 h 7 V 0 Z m 0,0"
       id="path2"
       inkscape:connector-curvature="0" />
  </g>
</svg>
