<svg xmlns="http://www.w3.org/2000/svg" xmlns:xlink="http://www.w3.org/1999/xlink" width="48" height="48" viewBox="0 0 48 48" version="1.1">
<g id="surface3">
<path style=" stroke:none;fill-rule:nonzero;fill:rgb(100%,100%,100%);fill-opacity:1;" d="M 24 0 C 10.746094 0 0 10.746094 0 24 C 0 37.253906 10.746094 48 24 48 C 37.253906 48 48 37.253906 48 24 C 48 10.746094 37.253906 0 24 0 Z M 36.96875 14.488281 C 37.585938 14.472656 38.148438 14.835938 38.386719 15.402344 C 38.628906 15.96875 38.5 16.625 38.0625 17.054688 L 22.058594 33.058594 C 21.472656 33.644531 20.523438 33.644531 19.941406 33.058594 L 12.941406 26.0625 C 12.386719 25.472656 12.402344 24.550781 12.972656 23.976562 C 13.542969 23.402344 14.464844 23.386719 15.058594 23.9375 L 21.003906 29.878906 L 35.945312 14.9375 C 36.214844 14.664062 36.582031 14.5 36.96875 14.488281 Z M 36.96875 14.488281 "/>
</g>
</svg>