<?xml version="1.0" encoding="UTF-8" standalone="no"?>
<svg
   height="16"
   width="16"
   version="1.1"
   id="svg6"
   sodipodi:docname="debug.svg"
   inkscape:version="1.1.1 (3bf5ae0d25, 2021-09-20)"
   xmlns:inkscape="http://www.inkscape.org/namespaces/inkscape"
   xmlns:sodipodi="http://sodipodi.sourceforge.net/DTD/sodipodi-0.dtd"
   xmlns="http://www.w3.org/2000/svg"
   xmlns:svg="http://www.w3.org/2000/svg">
  <defs
     id="defs10" />
  <sodipodi:namedview
     id="namedview8"
     pagecolor="#ffffff"
     bordercolor="#666666"
     borderopacity="1.0"
     inkscape:pageshadow="2"
     inkscape:pageopacity="0.0"
     inkscape:pagecheckerboard="0"
     showgrid="false"
     inkscape:current-layer="svg6" />
  <path
     style="fill:#666666;stroke-width:0.0724952;fill-opacity:1"
     d="M 3.0575781,13.938895 C 2.8791723,13.760482 2.8725082,13.725955 2.9185159,13.218227 3.0152899,12.150291 3.3303511,11.435606 4.0126217,10.736355 4.4709307,10.266636 4.4709307,10.266636 4.3031753,9.8209502 4.2109098,9.5758226 4.0954192,9.1719502 4.0465312,8.9234528 3.9576431,8.4716427 3.9576431,8.4716427 2.521278,8.4716427 c -1.4021166,0 -1.4390553,-0.00382 -1.54921836,-0.161127 -0.14344928,-0.204803 -0.14344928,-0.4153959 0,-0.6201976 C 1.0822369,7.5330179 1.1190589,7.5291966 2.5243381,7.5291966 c 1.4394242,0 1.4394242,0 1.488145,-0.3081056 C 4.0725573,6.8411843 4.2128117,6.3459409 4.3592099,5.9967847 4.4697972,5.7330442 4.4697972,5.7330442 4.0120553,5.2639096 3.3303675,4.5652557 3.0152653,3.8502706 2.9185169,2.7826172 2.8725062,2.2748906 2.8791707,2.2403558 3.0575781,2.0619499 3.2635841,1.8559415 3.3975052,1.8318924 3.6369205,1.95791 3.8665083,2.0787576 3.9016657,2.1591537 3.9029021,2.5661617 3.9051227,3.2972467 4.2944748,4.2854872 4.7482454,4.7117791 4.9044484,4.8585274 4.9044484,4.8585274 5.4166425,4.4358519 5.8454279,4.0820109 5.9292493,3.9769103 5.931359,3.7904818 5.9388018,3.1328284 6.4115272,2.4416487 7.0775511,2.1145907 8.3307755,1.4991825 9.773302,2.2982245 9.9675505,3.7154119 c 0.037042,0.2702278 0.093958,0.3680508 0.3076195,0.5286825 0.144192,0.1084057 0.363194,0.3056066 0.486669,0.4382246 0.224498,0.241124 0.224498,0.241124 0.531786,-0.092244 0.432772,-0.4695044 0.72417,-1.1273964 0.772456,-1.7439883 0.05764,-0.7360251 0.07988,-0.7996148 0.313624,-0.8964319 0.264217,-0.1094427 0.482196,-0.045627 0.63364,0.1855076 0.09185,0.1401903 0.105925,0.2798016 0.06749,0.6698411 -0.09619,0.9761431 -0.469543,1.7948337 -1.139677,2.499075 -0.411299,0.4322348 -0.411299,0.4322348 -0.243937,0.8768682 0.09204,0.2445492 0.20736,0.6479484 0.256248,0.8964458 0.08889,0.4518092 0.08889,0.4518092 1.525252,0.4518092 1.402116,0 1.439057,0.00385 1.549219,0.1611214 0.14345,0.2048016 0.14345,0.4153946 0,0.6201976 -0.110155,0.1572694 -0.147199,0.1611268 -1.546306,0.1611268 -1.433449,0 -1.433449,0 -1.559044,0.5844637 -0.06908,0.3214566 -0.185947,0.72526 -0.259709,0.8973419 -0.134115,0.3128789 -0.134115,0.3128789 0.324344,0.7827499 0.674137,0.690918 0.988686,1.394825 1.092053,2.443847 0.04001,0.405946 0.02672,0.544261 -0.06594,0.685638 -0.151443,0.231134 -0.369422,0.294952 -0.633639,0.185508 -0.233737,-0.09682 -0.255985,-0.160401 -0.313624,-0.896434 -0.04826,-0.61645 -0.339665,-1.274464 -0.772142,-1.743645 -0.30698,-0.333034 -0.30698,-0.333034 -0.609038,-0.01782 -1.4513639,1.51473 -3.6625653,1.571332 -5.2000214,0.133125 -0.4752938,-0.444614 -0.4752938,-0.444614 -0.780545,-0.11345 -0.4308557,0.467424 -0.7222035,1.126106 -0.7704163,1.741772 -0.056648,0.723385 -0.07891,0.792557 -0.2853148,0.886602 -0.2738971,0.124788 -0.3826188,0.105957 -0.5910274,-0.10247 z"
     id="path908" />
</svg>
