<?xml version="1.0" encoding="UTF-8" standalone="no"?>
<!-- Generator: Adobe Illustrator 19.0.0, SVG Export Plug-In . SVG Version: 6.00 Build 0)  -->

<svg
   version="1.1"
   id="Layer_1"
   x="0px"
   y="0px"
   viewBox="0 0 512 512"
   style="enable-background:new 0 0 512 512;"
   xml:space="preserve"
   sodipodi:docname="error.svg"
   inkscape:version="1.1.1 (3bf5ae0d25, 2021-09-20)"
   xmlns:inkscape="http://www.inkscape.org/namespaces/inkscape"
   xmlns:sodipodi="http://sodipodi.sourceforge.net/DTD/sodipodi-0.dtd"
   xmlns="http://www.w3.org/2000/svg"
   xmlns:svg="http://www.w3.org/2000/svg"><defs
   id="defs41" /><sodipodi:namedview
   id="namedview39"
   pagecolor="#ffffff"
   bordercolor="#666666"
   borderopacity="1.0"
   inkscape:pageshadow="2"
   inkscape:pageopacity="0.0"
   inkscape:pagecheckerboard="0"
   showgrid="false"
   inkscape:current-layer="Layer_1" />
<g
   id="g6"
   style="fill:#d40000">
	<g
   id="g4"
   style="fill:#d40000">
		<path
   d="M256,0C114.509,0,0,114.497,0,256c0,141.491,114.497,256,256,256c141.491,0,256-114.497,256-256    C512,114.509,397.503,0,256,0z M368.32,305.16c17.441,17.441,17.441,45.718,0,63.159c-17.441,17.441-45.718,17.442-63.159,0    l-49.16-49.16l-49.16,49.16c-17.441,17.441-45.718,17.442-63.159,0c-17.441-17.441-17.441-45.718,0-63.159l49.16-49.16    l-49.16-49.16c-17.441-17.441-17.441-45.718,0-63.159c17.441-17.441,45.718-17.441,63.159,0l49.16,49.16l49.16-49.16    c17.441-17.441,45.718-17.441,63.159,0c17.441,17.441,17.441,45.718,0,63.159L319.16,256L368.32,305.16z"
   id="path2"
   style="fill:#d40000" />
	</g>
</g>
<g
   id="g8">
</g>
<g
   id="g10">
</g>
<g
   id="g12">
</g>
<g
   id="g14">
</g>
<g
   id="g16">
</g>
<g
   id="g18">
</g>
<g
   id="g20">
</g>
<g
   id="g22">
</g>
<g
   id="g24">
</g>
<g
   id="g26">
</g>
<g
   id="g28">
</g>
<g
   id="g30">
</g>
<g
   id="g32">
</g>
<g
   id="g34">
</g>
<g
   id="g36">
</g>
</svg>
