<svg viewBox="0 0 16 16" xml:space="preserve" style="fill-rule:evenodd;clip-rule:evenodd;stroke-linejoin:round;stroke-miterlimit:2" xmlns="http://www.w3.org/2000/svg">
  <circle cx="116.818" cy="290.931" r="50.694" style="fill:none;stroke:#d40000;stroke-width:14.166;stroke-opacity:1" transform="matrix(.12944 0 0 .12944 -7.12 -29.657)"/>
  <path fill="#666" d="M5.146 5.144h.736a.743.743 0 0 1 .491.224l1.629 1.627 1.65-1.627c.19-.165.319-.215.491-.222h.714v.714c0 .204-.025.393-.179.535L9.05 8.022l1.606 1.606c.134.136.2.321.2.514v.714h-.714a.723.723 0 0 1-.512-.2L8 9.028l-1.628 1.627a.719.719 0 0 1-.514.2h-.713v-.714c0-.19.067-.379.201-.513l1.628-1.606-1.627-1.627a.647.647 0 0 1-.202-.536v-.713Z" color="#bebebe" style="text-indent:0;text-align:start;text-transform:none;stroke-width:.713684"/>
</svg>
