<svg xmlns="http://www.w3.org/2000/svg" width="1256.029" height="296">
  <circle cx="178" cy="148" r="33" fill="#0062be"/>
  <g fill="none" stroke="#0062be" stroke-width="24">
    <g stroke-opacity=".3">
      <path d="M62 148a116 116 0 1 1 116 116"/>
      <path d="M104 148a74 74 0 1 1 74 74"/>
    </g>
    <path d="M178 32a116 116 0 0 1 116 116M178 74a74 74 0 0 1 74 74"/>
  </g>
  <g fill="#0062bd" stroke-width="0" font-family="'Open Sans'" font-size="213" font-weight="600" transform="translate(28 20)">
    <g stroke="#0062bd" stroke-width="6.498" aria-label="FRESHRSS" font-family="sans-serif" font-size="163.799" letter-spacing="4.861" word-spacing="0">
      <path stroke="none" d="M354.63 66.098v123.859h22.47v-50.45h48.156v-19.439H377.1V85.535h56.345V66.098h-3.248zM453.84 66.098v123.859h22.305v-48.975h8.789c1.886 0 3.059.339 3.35.498l.054.032.056.027c.492.246 1.129.764 1.833 1.758l.011.015 33.787 46.56 26.213.085-37.99-51.713c-.437-.624-.959-1.121-1.438-1.684 2.562-.9 5.013-1.932 7.252-3.207 3.89-2.182 7.228-4.846 9.948-7.988a34.13 34.13 0 0 0 6.334-10.764c1.447-3.98 2.16-8.248 2.16-12.74 0-5.331-.913-10.258-2.791-14.687l-.002-.004c-1.9-4.532-4.887-8.44-8.82-11.59-3.913-3.176-8.786-5.505-14.52-7.07-5.777-1.632-12.472-2.412-20.113-2.412zm22.305 19.029h14.113c8.696 0 14.806 1.731 18.568 4.643l.008.005.006.006c3.824 2.924 5.688 6.957 5.688 13.227 0 3.061-.528 5.747-1.545 8.152-1.01 2.385-2.487 4.407-4.537 6.178-1.96 1.685-4.498 3.071-7.703 4.11-3.102.967-6.84 1.488-11.221 1.488h-13.377zM562.549 66.098v123.859h78.814V170.52h-56.345v-33.551h45.617V118.02h-45.617V85.535h56.345V66.098h-3.248zM697.684 64.787c-6.177 0-11.783.953-16.76 2.932l-.008.004-.006.002c-4.82 1.94-8.974 4.571-12.365 7.902-3.35 3.29-5.957 7.106-7.76 11.373l-.008.018-.008.02a34.884 34.884 0 0 0-2.615 13.267c0 5.517.833 10.34 2.656 14.427l.014.028.012.027c1.802 3.844 4.195 7.147 7.162 9.805 2.878 2.578 6.153 4.678 9.779 6.283l.01.004.01.004a121.144 121.144 0 0 0 10.603 4.04l.028.009.03.01a588.09 588.09 0 0 1 10.263 3.258l.03.01.028.01c3.183.975 5.953 2.165 8.325 3.549 2.256 1.316 3.97 2.892 5.27 4.773l.025.035.027.037c1.155 1.578 1.83 3.713 1.83 6.762 0 2.854-.479 5.33-1.389 7.514a15.79 15.79 0 0 1-3.953 5.658c-1.662 1.526-3.737 2.751-6.33 3.664-2.54.893-5.525 1.373-8.994 1.373-4.228 0-7.678-.569-10.36-1.58-2.933-1.186-5.406-2.455-7.412-3.774-2.117-1.43-3.872-2.713-5.238-3.826l.055.045c-1.79-1.525-3.704-2.658-6.037-2.658-1.37 0-2.762.436-3.897 1.184a9.029 9.029 0 0 0-2.418 2.283l-.078.107-5.943 9.764 1.699 1.803c4.724 5.016 10.424 9.013 17.008 11.959l.015.006.016.008c6.718 2.92 14.119 4.363 22.098 4.363 6.553 0 12.508-1.007 17.804-3.088l.006-.002c5.268-2.05 9.793-4.91 13.465-8.578 3.703-3.644 6.538-7.957 8.444-12.84l.002-.006.002-.006c1.895-4.916 2.837-10.165 2.837-15.666 0-5.216-.873-9.81-2.78-13.697-1.762-3.7-4.174-6.895-7.19-9.483-2.875-2.512-6.163-4.568-9.819-6.162a110.06 110.06 0 0 0-10.576-4.197l-.006-.002a574.35 574.35 0 0 0-10.312-3.438c-3.158-1.087-5.968-2.343-8.44-3.754-2.284-1.333-4.05-2.872-5.4-4.615-1.117-1.554-1.74-3.512-1.74-6.248 0-2.174.383-4.093 1.132-5.855l.006-.014.006-.012a12.749 12.749 0 0 1 3.262-4.636c1.49-1.31 3.376-2.388 5.758-3.198l.027-.007.028-.01c2.307-.831 5.067-1.283 8.316-1.283 3.5 0 6.34.442 8.498 1.207l.01.002.01.003c2.504.87 4.56 1.821 6.156 2.807l.047.03.047.027c1.821 1.04 3.266 1.986 4.295 2.781l.027.021.028.02c1.563 1.156 3.195 2.03 5.207 2.03 1.347 0 2.78-.312 3.994-1.16l.084-.061.082-.065c.948-.758 1.679-1.694 2.312-2.75l.057-.094.05-.1 4.94-9.67-1.719-1.671c-4.354-4.237-9.476-7.49-15.269-9.713-5.815-2.232-12.207-3.328-19.102-3.328z" color="#000" style="-inkscape-font-specification:Lato;-inkscape-stroke:none"/>
      <g stroke="none" color="#000">
        <path d="M852.667 186.708h-15.97V133.31H773.47v53.398H757.5V69.346h15.97v52.334h63.227V69.346h15.97Z" style="-inkscape-font-specification:Lato;-inkscape-stroke:none"/>
        <path d="M754.25 66.098v123.859h22.469v-53.398h56.728v53.398h22.469V66.098h-22.469v52.334H776.72V66.098Z" style="-inkscape-font-specification:Lato;-inkscape-stroke:none"/>
      </g>
      <path stroke="none" d="M884.582 66.098v123.859h22.305v-48.975h8.789c1.886 0 3.057.339 3.347.498l.057.032.057.027c.491.246 1.128.764 1.832 1.758l.011.015 33.753 46.56 26.247.085-37.99-51.713c-.436-.624-.959-1.121-1.437-1.684 2.561-.9 5.012-1.932 7.252-3.207 3.89-2.182 7.228-4.846 9.947-7.988a34.13 34.13 0 0 0 6.334-10.764c1.447-3.98 2.16-8.248 2.16-12.74 0-5.331-.913-10.258-2.791-14.687l-.002-.004c-1.9-4.532-4.887-8.44-8.82-11.59-3.913-3.176-8.786-5.505-14.52-7.07-5.776-1.632-12.472-2.412-20.113-2.412Zm22.305 19.029H921c8.697 0 14.806 1.731 18.568 4.643l.008.005.006.006c3.824 2.924 5.688 6.957 5.688 13.227 0 3.061-.527 5.747-1.545 8.152-1.01 2.385-2.487 4.407-4.537 6.178-1.96 1.685-4.498 3.071-7.703 4.11-3.102.967-6.842 1.488-11.223 1.488h-13.375zM1028.398 64.787c-6.176 0-11.784.953-16.761 2.932l-.01.004-.01.002c-4.82 1.94-8.974 4.571-12.366 7.902-3.34 3.29-5.948 7.106-7.751 11.373l-.008.018-.008.02a34.886 34.886 0 0 0-2.617 13.267c0 5.517.835 10.34 2.658 14.427l.012.028.013.027c1.802 3.844 4.196 7.147 7.163 9.805 2.878 2.578 6.153 4.678 9.779 6.283l.01.004.01.004a121.134 121.134 0 0 0 10.603 4.04l.03.009.028.01a587.726 587.726 0 0 1 10.262 3.258l.031.01.029.01c3.182.975 5.953 2.165 8.324 3.549 2.256 1.316 3.97 2.892 5.27 4.773l.025.035.025.037c1.155 1.578 1.83 3.713 1.83 6.762 0 2.854-.477 5.33-1.387 7.514a15.788 15.788 0 0 1-3.951 5.654c-1.662 1.527-3.737 2.755-6.332 3.668-2.54.893-5.527 1.373-8.996 1.373-4.228 0-7.676-.569-10.358-1.58-2.936-1.187-5.413-2.457-7.42-3.778-2.114-1.427-3.866-2.71-5.23-3.822l.055.045c-1.79-1.525-3.706-2.658-6.039-2.658a7.2 7.2 0 0 0-3.893 1.182 9.028 9.028 0 0 0-2.42 2.285l-.078.107-5.943 9.764 1.697 1.803c4.725 5.016 10.426 9.013 17.01 11.959l.016.006.016.008c6.718 2.92 14.119 4.363 22.098 4.363 6.552 0 12.506-1.007 17.803-3.088v-.002c5.27-2.05 9.799-4.911 13.472-8.582 3.7-3.643 6.533-7.955 8.438-12.836v-.012c1.895-4.916 2.838-10.165 2.838-15.666 0-5.218-.876-9.814-2.786-13.703-1.76-3.696-4.173-6.891-7.187-9.477-2.875-2.512-6.163-4.568-9.818-6.162a110.012 110.012 0 0 0-10.575-4.197l-.01-.002c-3.49-1.2-6.928-2.345-10.312-3.438-3.158-1.087-5.968-2.343-8.44-3.754-2.284-1.333-4.05-2.872-5.4-4.615-1.117-1.554-1.742-3.512-1.742-6.248 0-2.174.385-4.093 1.134-5.855l.01-.014v-.012c.747-1.8 1.81-3.308 3.26-4.632 1.49-1.312 3.376-2.391 5.76-3.202l.027-.007.027-.01c2.308-.831 5.07-1.283 8.318-1.283 3.5 0 6.34.442 8.498 1.207l.01.002.01.003c2.504.87 4.559 1.821 6.155 2.807l.047.03.049.027c1.821 1.04 3.263 1.986 4.293 2.781l.027.021.029.02c1.563 1.156 3.195 2.03 5.207 2.03 1.347 0 2.779-.312 3.992-1.16l.086-.061.08-.065c.948-.758 1.679-1.694 2.312-2.75l.06-.094.048-.1 4.942-9.67-1.719-1.671c-4.355-4.237-9.476-7.49-15.27-9.713-5.815-2.232-12.206-3.328-19.101-3.328zM1120.072 64.787c-6.176 0-11.784.953-16.761 2.932l-.01.004-.01.002c-4.82 1.94-8.974 4.571-12.366 7.902-3.349 3.29-5.956 7.106-7.76 11.373l-.01.018-.01.02a34.883 34.883 0 0 0-2.615 13.267c0 5.517.833 10.34 2.657 14.427l.012.028.013.027c1.802 3.844 4.196 7.147 7.163 9.805 2.878 2.578 6.153 4.678 9.779 6.283l.01.004.01.004a121.161 121.161 0 0 0 10.603 4.041l.03.008.028.01a587.726 587.726 0 0 1 10.262 3.258l.031.01.03.01c3.181.975 5.952 2.165 8.323 3.549 2.256 1.316 3.97 2.892 5.27 4.773l.025.035.025.037c1.155 1.578 1.83 3.713 1.83 6.762 0 2.854-.477 5.33-1.387 7.514a15.79 15.79 0 0 1-3.953 5.658c-1.662 1.526-3.737 2.752-6.33 3.664-2.54.893-5.525 1.373-8.994 1.373-4.228 0-7.678-.569-10.36-1.58-2.936-1.187-5.413-2.457-7.42-3.777-2.114-1.428-3.866-2.711-5.23-3.823l.055.045c-1.79-1.525-3.704-2.658-6.037-2.658-1.369 0-2.76.436-3.894 1.182a9.028 9.028 0 0 0-2.42 2.285l-.078.107-5.944 9.764 1.697 1.803c4.725 5.016 10.426 9.013 17.01 11.959l.016.006.016.008c6.718 2.92 14.119 4.363 22.098 4.363 6.552 0 12.506-1.007 17.803-3.088v-.002c5.27-2.05 9.799-4.911 13.472-8.582 3.7-3.643 6.535-7.955 8.44-12.836v-.012c1.895-4.916 2.838-10.165 2.838-15.666 0-5.216-.874-9.81-2.782-13.697-1.76-3.697-4.17-6.89-7.183-9.477-2.875-2.513-6.161-4.57-9.817-6.164a110.024 110.024 0 0 0-10.584-4.201l-.01-.002c-3.49-1.2-6.928-2.345-10.312-3.438-3.158-1.087-5.968-2.343-8.44-3.753-2.284-1.334-4.05-2.873-5.4-4.616-1.117-1.554-1.74-3.512-1.74-6.248 0-2.174.383-4.093 1.132-5.855l.01-.014.01-.012a12.749 12.749 0 0 1 3.262-4.636c1.49-1.31 3.374-2.388 5.756-3.198l.027-.007.027-.01c2.308-.831 5.07-1.283 8.318-1.283 3.501 0 6.34.442 8.498 1.207l.01.002.01.004c2.504.868 4.559 1.82 6.155 2.806l.049.03.047.027c1.821 1.04 3.265 1.986 4.295 2.781l.027.022.027.02c1.563 1.155 3.196 2.028 5.207 2.028 1.347 0 2.78-.31 3.992-1.16l.086-.06.08-.065c.948-.758 1.681-1.694 2.314-2.75l.058-.094.049-.1 4.94-9.67-1.718-1.671c-4.355-4.237-9.476-7.49-15.27-9.713-5.815-2.232-12.206-3.328-19.1-3.328z" color="#000" style="-inkscape-font-specification:Lato;-inkscape-stroke:none"/>
    </g>
  </g>
</svg>
