<svg xmlns="http://www.w3.org/2000/svg" width="16" height="16">
  <g fill="#666">
    <path d="M190 490c-4.415 0-8 3.585-8 8s3.585 8 8 8 8-3.585 8-8-3.585-8-8-8zm0 2c3.341 0 6 2.659 6 6s-2.659 6-6 6-6-2.659-6-6 2.659-6 6-6z" color="#bebebe" style="block-progression:tb;text-indent:0;text-align:start;text-transform:none" transform="translate(-182 -490)"/>
    <path d="M189.34 495c-1.28 0-2.34 1.06-2.34 2.34v1.313a2.355 2.355 0 0 0 2.344 2.343h1.312c1.29.01 2.35-1.05 2.35-2.33v-1.312c0-1.29-1.06-2.35-2.34-2.35h-1.312zm0 1h1.313c.749 0 1.343.594 1.343 1.344v1.312c.01.76-.58 1.35-1.33 1.35h-1.312c-.76 0-1.35-.59-1.35-1.34v-1.312c0-.76.59-1.35 1.34-1.35z" color="#bebebe" style="block-progression:tb;text-indent:0;text-align:start;text-transform:none" transform="translate(-182 -490)"/>
    <path d="M4.72 1.44a5.881 5.881 0 0 0-3.281 3.312l3.75 1.875c.252-.64.742-1.17 1.375-1.437L4.72 1.44zm6.562 0L9.44 5.19a2.574 2.574 0 0 1 1.375 1.437l3.75-1.875a5.881 5.881 0 0 0-3.282-3.312zm-6.093 8-3.75 1.875a5.904 5.904 0 0 0 3.28 3.25l1.876-3.75A2.59 2.59 0 0 1 5.189 9.44zm5.625 0a2.59 2.59 0 0 1-1.407 1.375l1.875 3.75a5.903 5.903 0 0 0 3.282-3.25l-3.75-1.875z"/>
  </g>
</svg>
