<?xml version="1.0" encoding="UTF-8" standalone="no"?>
<svg
   height="16"
   width="16"
   version="1.1"
   id="svg10"
   sodipodi:docname="help.svg"
   inkscape:version="1.1.1 (3bf5ae0d25, 2021-09-20)"
   xmlns:inkscape="http://www.inkscape.org/namespaces/inkscape"
   xmlns:sodipodi="http://sodipodi.sourceforge.net/DTD/sodipodi-0.dtd"
   xmlns="http://www.w3.org/2000/svg"
   xmlns:svg="http://www.w3.org/2000/svg">
  <defs
     id="defs14" />
  <sodipodi:namedview
     id="namedview12"
     pagecolor="#ffffff"
     bordercolor="#666666"
     borderopacity="1.0"
     inkscape:pageshadow="2"
     inkscape:pageopacity="0.0"
     inkscape:pagecheckerboard="0"
     showgrid="false"
     inkscape:current-layer="svg10" />
  <g
     transform="translate(-182,-490)"
     fill="#bebebe"
     id="g8"
     style="fill:#666666">
    <path
       style="block-progression:tb;color:#bebebe;direction:ltr;text-indent:0;text-align:start;enable-background:accumulate;text-transform:none;fill:#666666"
       d="m190,490c-4.4147,0-8,3.5853-8,8s3.5853,8,8,8,8-3.5853,8-8-3.5853-8-8-8zm0,2c3.3413,0,6,2.6587,6,6s-2.6587,6-6,6-6-2.6587-6-6,2.6587-6,6-6z"
       id="path2" />
    <path
       style="block-progression:tb;color:#bebebe;direction:ltr;text-indent:0;text-align:start;enable-background:accumulate;text-transform:none;fill:#666666"
       d="M189.34,495c-1.28,0-2.34,1.06-2.34,2.34v1.3125c0,1.2861,1.0576,2.3438,2.3438,2.3438h1.3125c1.29,0.01,2.35-1.05,2.35-2.33v-1.3125c0-1.29-1.06-2.35-2.34-2.35h-1.3125zm0,1,1.3125,0c0.74942,0,1.3438,0.59433,1.3438,1.3438v1.3125c0.01,0.76-0.58,1.35-1.33,1.35h-1.3125c-0.76,0-1.35-0.59-1.35-1.34v-1.3125c0-0.76,0.59-1.35,1.34-1.35z"
       id="path4" />
    <path
       d="m186.72,491.44c-1.5103,0.6073-2.6811,1.7985-3.2812,3.3125l3.75,1.875c0.25196-0.64029,0.74249-1.1706,1.375-1.4375l-1.8438-3.75zm6.5625,0-1.8438,3.75c0.63251,0.26694,1.123,0.79721,1.375,1.4375l3.75-1.875c-0.60015-1.514-1.7709-2.7052-3.2812-3.3125zm-6.0938,8-3.75,1.875c0.60709,1.4886,1.789,2.65,3.2812,3.25l1.875-3.75c-0.62682-0.25556-1.1433-0.75203-1.4062-1.375zm5.625,0c-0.26291,0.62297-0.77943,1.1194-1.4062,1.375l1.875,3.75c1.4923-0.60005,2.6742-1.7614,3.2812-3.25l-3.75-1.875z"
       id="path6"
       style="fill:#666666" />
  </g>
</svg>
