<?xml version="1.0" encoding="UTF-8" standalone="no"?>
<svg
   width="72mm"
   height="72mm"
   viewBox="0 0 71.999999 72"
   version="1.1"
   id="svg5"
   xml:space="preserve"
   xmlns="http://www.w3.org/2000/svg"
   xmlns:svg="http://www.w3.org/2000/svg"><defs
     id="defs2" /><g
     id="layer1"
     transform="translate(-122.44279,-77.410739)"><path
       style="fill:#666666;fill-opacity:1;stroke-width:0.264583"
       d="m 155.36278,125.51274 -23.40677,-0.267 c 0.37363,-6.79753 6.08526,-15.40892 10.29516,-18.966 l 0.18842,-14.416001 c -2.08469,-2.992382 -3.17159,-9.454502 -2.90518,-13.134 h 37.73107 c 0.55646,4.844593 -2.38864,11.922429 -3.21412,13.134 l 0.66741,14.416001 c 6.09605,4.12103 10.68435,11.5874 10.1717,18.966 l -23.13629,0.267 c 0,0 0.53578,23.15291 -2.689,23.21131 -3.22478,0.0584 -3.7024,-23.21131 -3.7024,-23.21131 z m 20.94348,-7.48921 c -0.87839,-5.10027 -7.7188,-8.00726 -9.06022,-9.36379 l -0.46497,-18.060001 c 0.93662,-1.542882 2.08799,-2.833625 2.83719,-5.066 H 147.4665 c 0.2891,2.515209 2.13895,3.39548 2.77999,5.066 l -0.11232,18.060001 c -1.28385,1.35457 -8.57876,5.82732 -9.32679,9.83151 10.08085,0.18667 26.33338,-0.71732 35.49866,-0.46768 z"
       id="path248" /></g></svg>
