<svg xmlns="http://www.w3.org/2000/svg" xml:space="preserve" width="72mm" height="72mm" viewBox="0 0 72 72"><path d="M34.29 71.204c-5.176-1.02-8.365-4.478-9.96-9.326-12.502.215-19.139 3.551-20.568 2.088-3.256-3.335 8.445-12.338 9.509-23.508.264-2.774.597-4.757.73-8.91.133-4.124.326-5.461 1.138-7.88A22.449 22.449 0 0 1 28.841 9.696l.97-.347V7.976c0-2.368.628-3.947 2.108-5.306.827-.759 1.667-1.2 2.886-1.518 3.284-.856 6.858 1.273 7.718 4.596.125.48.222 1.458.222 2.228v1.371l.97.333c.533.183 1.681.686 2.55 1.117 6.03 2.99 10.441 8.737 11.873 15.466.212.992.318 2.308.417 5.142.073 2.094.202 4.52.286 5.389 2.388 24.747 14.213 20.99 10.928 26.615-4.697 4.002-15.932-.608-21.542-1.531-1.121 3.999-4.776 9.175-11.518 9.406-.909.031-1.997-.005-2.42-.08zm28.393-10.74c0-.176-7.632-7.245-9.435-17.922-.614-3.633-1.016-8.47-1.018-12.235-.004-7.014-5.017-13.3-12.072-15.135-.872-.227-2.005-2.632-3.24-2.672-1.172-.038-2.446 2.28-3.323 2.432a16.132 16.132 0 0 0-12.771 11.602c-.323 1.175-.387 1.788-.498 4.727-.864 22.99-9.687 26.332-9.687 28.298 0 .03 12.993-4.012 25.64-4.012 12.645 0 26.404 4.947 26.404 4.917z" style="fill:#666;stroke-width:.543138;fill-opacity:1"/></svg>