<svg xmlns="http://www.w3.org/2000/svg" viewBox="0 0 16 16"><g fill="#666" color="#000"><path d="M5.016 3c-2.75 0-5 2.25-5 5s2.25 5 5 5c1.586 0 2.903-.845 3.812-2h5.594l.219-.75 1.03-4L15.985 5H8.828C7.92 3.845 6.602 3 5.016 3zm0 2c1.115 0 2.038.595 2.562 1.5l.313.5H13.422l-.531 2h-5l-.313.5c-.524.905-1.446 1.5-2.562 1.5-1.669 0-3-1.331-3-3s1.331-3 3-3z" style="text-indent:0;text-align:start;text-transform:none"/><path d="M14.516 8h-5.5l-.56 2h5.56z" opacity=".35"/><path d="M5.016 8a1 1 0 11-2 0 1 1 0 012 0z"/></g></svg>