<?xml version="1.0" encoding="UTF-8" standalone="no"?>
<svg
   height="16.004"
   width="16"
   version="1.1"
   id="svg10"
   sodipodi:docname="link.svg"
   inkscape:version="1.1.1 (3bf5ae0d25, 2021-09-20)"
   xmlns:inkscape="http://www.inkscape.org/namespaces/inkscape"
   xmlns:sodipodi="http://sodipodi.sourceforge.net/DTD/sodipodi-0.dtd"
   xmlns="http://www.w3.org/2000/svg"
   xmlns:svg="http://www.w3.org/2000/svg">
  <defs
     id="defs14" />
  <sodipodi:namedview
     id="namedview12"
     pagecolor="#ffffff"
     bordercolor="#666666"
     borderopacity="1.0"
     inkscape:pageshadow="2"
     inkscape:pageopacity="0.0"
     inkscape:pagecheckerboard="0"
     showgrid="false"
     inkscape:current-layer="g8" />
  <g
     fill="#bebebe"
     transform="translate(-183,-529)"
     id="g8">
    <path
       style="enable-background:accumulate;color:#000000;fill:#666666"
       d="m191,533.85,0,10.38-2.344-2.2882-1.3394,2.7346c-0.32808,0.73962-2.0337,0.14492-1.5487-0.84412l1.3255-2.8393h-2.9579l6.8645-7.1436z"
       fill-rule="nonzero"
       display="block"
       id="path2" />
    <path
       d="m190.16,530.06c-3.8266,0.46006-6.5788,3.9578-6.0938,7.7812,0.13127,1.0347,0.29377,1.3818,0.29377,1.3818l1.675-1.6318c-0.33104-2.7534,1.6216-5.2315,4.375-5.5625,2.7534-0.33104,5.2315,1.6216,5.5625,4.375,0.31355,2.608-1.3913,5.0249-3.9688,5.5312l0.0312,2s0.52086-0.1059,0.62354-0.13097c3.4156-0.83385,5.7063-4.1273,5.2827-7.6503-0.46006-3.8266-3.9547-6.5538-7.7812-6.0938z"
       style="baseline-shift:baseline;block-progression:tb;color:#000000;direction:ltr;text-indent:0;text-align:start;enable-background:accumulate;text-transform:none;fill:#666666"
       id="path4" />
    <path
       opacity="0.3"
       style="enable-background:accumulate;color:#000000;fill:#666666;fill-opacity:1;opacity:0.3"
       d="m187.11,536.81,0-0.20574-0.19826,0.0186c0.0165-0.13095,0.0329-0.26167,0.0496-0.3926h-0.11578l-0.11556,0.14959-0.11578,0.0559-0.1653-0.0932-0.0165-0.20575,0.0331-0.22438,0.24798-0.18688h0.19826l0.0329-0.11229,0.24786,0.0559,0.18183,0.2246,0.0331-0.37419,0.31401-0.26167,0.11567-0.28055,0.23133-0.0934,0.1322-0.18688,0.29738-0.0564,0.14885-0.22415h-0.44623l0.28094-0.13095h0.19814l0.28106-0.0937,0.0331-0.11186-0.0992-0.0937-0.11567-0.0375,0.0331-0.11208-0.0826-0.16822-0.19837,0.0746,0.0331-0.14947-0.23134-0.13096-0.18171,0.3177,0.0165,0.11229-0.18171,0.075-0.11578,0.24302-0.0495-0.22438-0.31402-0.13095-0.0496-0.16822,0.41315-0.24325,0.18182-0.16822,0.0165-0.20563-0.0991-0.0562-0.13219-0.0188-0.0826,0.20575s-0.1382,0.0271-0.17373,0.0358c-0.45378,0.41804-1.3707,1.3204-1.5837,3.024,0.008,0.0395,0.15441,0.26854,0.15441,0.26854l0.347,0.20552,0.347,0.0937m3.9661-4.3003-0.4298-0.16833-0.49552,0.0561-0.61161,0.16822-0.11567,0.11229,0.38008,0.26167,0,0.14959-0.14875,0.14959,0.19846,0.39294,0.13188-0.075,0.16561-0.26168c0.2553-0.0789,0.4842-0.16833,0.72686-0.28053l0.19846-0.5048m2.5292,0.34192-0.375,0.0937-0.21875,0.15625,0,0.125-0.375,0.25,0.0937,0.34375,0.21875-0.15625,0.125,0.15625,0.15625,0.0937,0.0937-0.28125-0.0625-0.15625,0.0625-0.0937,0.21875-0.1875,0.0937,0-0.0937,0.21875,0,0.1875c0.0892-0.0242,0.1588-0.051,0.25-0.0625l-0.25,0.1875v0.125l-0.3125,0.21875-0.28125-0.0625v-0.15625l-0.125,0.0625,0.0625,0.15625h-0.21875l-0.125,0.21875-0.15625,0.15625-0.0937,0.0312v0.1875l0.0312,0.15625h-0.0312v0.53125l0.0625-0.0312,0.0937-0.21875,0.1875-0.125,0.0312-0.0937,0.28125-0.0625,0.15625,0.1875,0.1875,0.0937-0.0937,0.1875,0.15625-0.0312,0.0625-0.21875-0.1875-0.21875h0.0625l0.21875,0.15625,0.0312,0.21875,0.15625,0.21875,0.0625-0.3125,0.0937-0.0312c0.0959,0.0996,0.1692,0.23163,0.25,0.34375h0.28125l0.1875,0.125-0.0937,0.0937-0.15625,0.15625h-0.25l-0.34375-0.0937h-0.1875l-0.125,0.15625-0.34375-0.375-0.25-0.0625-0.375,0.0625-0.15625,0.0937v2.4062l0.0312,0.0312,0.25-0.15625,0.0937,0.0937h0.28125l0.125,0.15625-0.0937,0.3125,0.1875,0.1875v0.375l0.125,0.25-0.0937,0.25c-0.009,0.16159,0,0.30714,0,0.46875,0.0795,0.21894,0.14355,0.43575,0.21875,0.65625l0.0625,0.34375v0.1875h0.125l0.21875-0.125h0.25l0.375-0.4375-0.0312-0.15625,0.25-0.21875-0.1875-0.1875,0.21875-0.1875,0.21875-0.125,0.0937-0.125-0.0625-0.25v-0.59375l0.1875-0.375,0.1875-0.25,0.25-0.5625v-0.15625c-0.11654,0.0146-0.22972,0.0231-0.34375,0.0312-0.0722,0.005-0.14446,0-0.21875,0-0.12359-0.25961-0.2183-0.50966-0.3125-0.78125l-0.15625-0.1875-0.0937-0.3125,0.0625-0.0625,0.21875,0.25,0.25,0.5625,0.15625,0.15625-0.0625,0.21875,0.15625,0.15625,0.25-0.25,0.3125-0.21875,0.15625-0.1875v-0.21875c-0.0389-0.0732-0.0547-0.14545-0.0937-0.21875l-0.15625,0.1875-0.125-0.15625-0.1875-0.125v-0.28125l0.21875,0.21875,0.21875-0.0312c0.10166,0.0923,0.19205,0.20751,0.28125,0.3125l0.15625-0.1875c0-0.17463-0.19976-1.0204-0.625-1.75-0.42526-0.72932-1.1562-1.4062-1.1562-1.4062l-0.0625,0.0937-0.21875,0.21875-0.25-0.25h0.25l0.125-0.125-0.46875-0.0937-0.25-0.0937z"
       fill-rule="nonzero"
       id="path6" />
  </g>
</svg>
