<?xml version="1.0" encoding="UTF-8" standalone="no"?>
<svg
   height="16"
   width="16"
   version="1.1"
   id="svg8"
   sodipodi:docname="login.svg"
   inkscape:version="1.1.1 (3bf5ae0d25, 2021-09-20)"
   xmlns:inkscape="http://www.inkscape.org/namespaces/inkscape"
   xmlns:sodipodi="http://sodipodi.sourceforge.net/DTD/sodipodi-0.dtd"
   xmlns="http://www.w3.org/2000/svg"
   xmlns:svg="http://www.w3.org/2000/svg">
  <defs
     id="defs12" />
  <sodipodi:namedview
     id="namedview10"
     pagecolor="#ffffff"
     bordercolor="#666666"
     borderopacity="1.0"
     inkscape:pageshadow="2"
     inkscape:pageopacity="0.0"
     inkscape:pagecheckerboard="0"
     showgrid="false"
     inkscape:current-layer="g6" />
  <g
     transform="translate(-181.0002,-237)"
     fill="#bebebe"
     id="g6">
    <path
       style="color:#bebebe;fill:#666666"
       d="m184,244c-0.554,0-1,0.446-1,1v0.53125,5.4688h12v-5.4688-0.53c0-0.554-0.446-1-1-1h-10z"
       fill-rule="nonzero"
       id="path2" />
    <path
       style="baseline-shift:baseline;block-progression:tb;color:#bebebe;direction:ltr;text-indent:0;text-align:start;enable-background:accumulate;text-transform:none;fill:#666666"
       d="m188,238c-1.6447,0-3,1.3553-3,3v7c0,1.6447,1.3553,3,3,3h2c1.6447,0,3-1.3553,3-3v-7c0-1.6447-1.3553-3-3-3h-2zm0,2,2,0c0.5713,0,1,0.4287,1,1v7c0,0.5713-0.4287,1-1,1h-2c-0.5713,0-1-0.4287-1-1v-7c0-0.5713,0.4287-1,1-1z"
       id="path4" />
  </g>
</svg>
