<svg xmlns="http://www.w3.org/2000/svg" height="16" width="16">
<g transform="translate(-181.0002,-237)" fill="#bebebe">
<path style="color:#bebebe;" d="m184,244c-0.554,0-1,0.446-1,1v0.53125,5.4688h12v-5.4688-0.53c0-0.554-0.446-1-1-1h-10z" fill-rule="nonzero"/>
<path style="baseline-shift:baseline;block-progression:tb;color:#bebebe;direction:ltr;text-indent:0;text-align:start;enable-background:accumulate;text-transform:none;" d="m188,238c-1.6447,0-3,1.3553-3,3v7c0,1.6447,1.3553,3,3,3h2c1.6447,0,3-1.3553,3-3v-7c0-1.6447-1.3553-3-3-3h-2zm0,2,2,0c0.5713,0,1,0.4287,1,1v7c0,0.5713-0.4287,1-1,1h-2c-0.5713,0-1-0.4287-1-1v-7c0-0.5713,0.4287-1,1-1z"/>
</g>
</svg>