<svg xmlns="http://www.w3.org/2000/svg" width="16" height="16">
  <path fill="#666" d="M69.003 398.01a1.03 1.03 0 0 0-.665.24c-.166.138-.277.32-.39.5-.224.357-.392.768-.565 1.203-.173.435-.347.888-.504 1.232a2.606 2.606 0 0 1-.36.588 2.62 2.62 0 0 1-.695.152c-.388.035-.881.05-1.363.07-.482.02-.97.036-1.393.128-.211.046-.415.101-.604.21s-.367.285-.45.53-.05.505.036.7c.085.196.227.366.368.524.283.317.633.606 1.008.899s.777.559 1.068.81c.29.251.454.508.459.523a2.26 2.26 0 0 1-.055.702c-.085.367-.223.812-.352 1.26-.13.449-.252.902-.292 1.319-.02.208-.043.407.005.614a.987.987 0 0 0 1.067.752c.22-.018.436-.07.636-.152.4-.162.801-.428 1.206-.682.405-.254.808-.522 1.146-.711.337-.19.648-.269.664-.269.016 0 .303.095.639.288.336.192.725.465 1.128.722.402.257.82.497 1.218.663.199.082.389.15.607.17.219.02.48-.03.696-.18.215-.15.339-.353.389-.56s.043-.435.025-.643c-.037-.417-.16-.864-.284-1.314-.126-.45-.262-.887-.345-1.255a2.639 2.639 0 0 1-.066-.701c.005-.015.187-.253.48-.501.293-.249.676-.538 1.054-.827.378-.29.767-.572 1.053-.886.143-.157.242-.335.329-.53s.136-.428.055-.672-.271-.413-.46-.523-.366-.182-.577-.23c-.422-.095-.914-.14-1.396-.164-.482-.024-.946-.039-1.334-.077s-.716-.13-.729-.14c-.012-.009-.184-.236-.338-.582s-.327-.788-.496-1.224c-.168-.437-.334-.865-.556-1.224-.11-.18-.233-.354-.398-.494s-.403-.257-.669-.258zm.009.994c.042.036.106.136.184.262.154.251.33.627.494 1.049.163.421.319.886.496 1.283.177.396.314.733.675.988.36.256.77.298 1.215.342.445.043.929.053 1.395.076.466.024.918.07 1.213.137.148.033.256.057.304.085-.022.05-.08.155-.18.265-.2.22-.537.487-.902.767s-.778.572-1.114.857c-.336.285-.64.532-.78.942-.14.41-.054.777.04 1.199s.255.878.376 1.313c.12.435.227.847.252 1.138.012.133-.017.235-.028.293a1.289 1.289 0 0 1-.303-.085c-.279-.116-.647-.328-1.036-.577-.389-.248-.804-.53-1.188-.75-.385-.22-.708-.399-1.155-.4-.448-.003-.792.172-1.179.389-.387.217-.784.495-1.176.74-.39.246-.776.451-1.056.565-.14.056-.246.085-.302.09a1.168 1.168 0 0 1-.002-.293c.028-.29.138-.709.263-1.142.124-.434.254-.898.352-1.319.098-.421.187-.788.05-1.2-.136-.41-.432-.641-.766-.93a28.842 28.842 0 0 0-1.068-.868c-.363-.283-.718-.56-.916-.782a1.146 1.146 0 0 1-.184-.262 1.34 1.34 0 0 1 .302-.09c.296-.064.746-.107 1.212-.127.466-.02.948-.03 1.393-.07.445-.04.847-.05 1.21-.302s.538-.605.719-1c.18-.395.337-.84.504-1.261.167-.42.318-.836.475-1.086a.973.973 0 0 1 .21-.236z" color="#000" style="block-progression:tb;text-indent:0;text-align:start;text-transform:none" transform="translate(-61 -397)"/>
</svg>
