<svg xmlns="http://www.w3.org/2000/svg" height="16" width="16">
<g transform="translate(-61.000202,-397)">
<path style="baseline-shift:baseline;block-progression:tb;color:#000000;direction:ltr;text-indent:0;text-align:start;enable-background:accumulate;text-transform:none;" fill="#bebebe" d="m69.003,398.01c-0.2659-0.00099-0.49859,0.1006-0.6647,0.2393-0.16611,0.13869-0.27742,0.32137-0.38968,0.50028-0.22453,0.35782-0.39269,0.76873-0.56546,1.2036-0.17277,0.43483-0.34713,0.88766-0.5046,1.2323-0.15747,0.34465-0.3456,0.57871-0.35862,0.58776-0.01287,0.009-0.30722,0.117-0.69576,0.15181-0.38855,0.0348-0.88122,0.0492-1.3632,0.0694-0.48202,0.0202-0.9703,0.0362-1.393,0.12817-0.21138,0.046-0.4154,0.10148-0.60434,0.20956s-0.36689,0.28631-0.45004,0.53002-0.04901,0.50627,0.03636,0.70157c0.08537,0.19531,0.22656,0.36514,0.3682,0.52344,0.2833,0.31663,0.6327,0.60557,1.0079,0.89849s0.77671,0.55926,1.0678,0.81027c0.29104,0.25101,0.45422,0.50796,0.45912,0.52271,0.0048,0.0146,0.03119,0.33498-0.05456,0.70231-0.08575,0.36732-0.2238,0.81174-0.35282,1.2603-0.12902,0.44861-0.25176,0.90196-0.2917,1.3184-0.01997,0.20819-0.04285,0.40729,0.0053,0.61409,0.04814,0.20679,0.1845,0.43007,0.39902,0.58168,0.21451,0.15161,0.44936,0.1881,0.66823,0.1701s0.43535-0.0703,0.63515-0.15132c0.39961-0.16214,0.80177-0.42851,1.2064-0.68231,0.40465-0.2538,0.80822-0.52155,1.1456-0.71107,0.33734-0.18952,0.6484-0.2686,0.66445-0.26854,0.01586,0.00006,0.30338,0.0951,0.63894,0.28732,0.33556,0.19221,0.72532,0.46503,1.1276,0.72205,0.40229,0.25702,0.81996,0.49752,1.218,0.66284,0.19903,0.0827,0.38893,0.15086,0.60762,0.17059,0.2187,0.0197,0.47978-0.031,0.69551-0.18105,0.21572-0.15001,0.33928-0.35235,0.38918-0.55877s0.04291-0.43517,0.02476-0.64358c-0.03632-0.41683-0.15899-0.86394-0.2841-1.3137-0.12511-0.44978-0.26165-0.88661-0.34421-1.2548-0.08256-0.36813-0.07169-0.68662-0.06666-0.70133,0.005-0.0145,0.18746-0.25247,0.4806-0.50101,0.29313-0.24854,0.67599-0.53755,1.0536-0.82731,0.37764-0.28976,0.76716-0.57158,1.0531-0.88579,0.14298-0.1571,0.2418-0.33444,0.32882-0.52904s0.136-0.42874,0.05481-0.67306-0.27108-0.41314-0.45912-0.52272-0.36679-0.18158-0.57782-0.22931c-0.42206-0.0955-0.91359-0.14009-1.3956-0.16426-0.48198-0.0242-0.94584-0.039-1.3342-0.077s-0.71565-0.13122-0.72859-0.14037c-0.01279-0.009-0.18402-0.23636-0.3384-0.58217s-0.32658-0.78819-0.49548-1.2243c-0.1689-0.4361-0.33477-0.86429-0.55609-1.2238-0.11067-0.17977-0.23335-0.35397-0.39826-0.49396s-0.40309-0.25684-0.66899-0.25783zm0.0086,0.99424c0.0422,0.0358,0.10671,0.13602,0.1841,0.26173,0.15477,0.25141,0.33068,0.6272,0.49397,1.0488,0.16329,0.42163,0.31905,0.88645,0.49598,1.2828,0.17693,0.39633,0.31456,0.73379,0.6753,0.98889,0.36072,0.25509,0.77019,0.29763,1.2152,0.34118,0.44506,0.0435,0.92882,0.0532,1.3948,0.0765,0.46599,0.0234,0.91824,0.0697,1.2135,0.13647,0.14763,0.0334,0.25558,0.0572,0.30381,0.0853-0.02227,0.0498-0.07958,0.15478-0.17956,0.26464-0.19997,0.21973-0.53749,0.48746-0.90261,0.7676-0.36511,0.28015-0.77804,0.57219-1.114,0.85704-0.33595,0.28485-0.63992,0.53221-0.77987,0.94209-0.13995,0.40986-0.05396,0.77681,0.04065,1.1987s0.25406,0.87813,0.37502,1.313c0.12096,0.43486,0.22688,0.84692,0.25228,1.1385,0.01156,0.13264-0.01699,0.23485-0.02778,0.29267-0.05993-0.008-0.1764-0.0324-0.30381-0.0853-0.27836-0.11561-0.64649-0.32808-1.0354-0.57657-0.38894-0.24849-0.8039-0.53053-1.1885-0.75081-0.38457-0.22028-0.70791-0.39837-1.1551-0.40015-0.44722-0.002-0.79205,0.17245-1.1786,0.38965-0.38659,0.21719-0.78438,0.49517-1.1756,0.74055-0.39123,0.24538-0.77636,0.4507-1.0559,0.56412-0.13977,0.0567-0.24616,0.0856-0.3023,0.0902-0.01026-0.0578-0.01522-0.16008-0.0025-0.29243,0.02793-0.29118,0.13818-0.70893,0.26291-1.1426,0.12473-0.43372,0.25404-0.89785,0.35232-1.3188,0.09828-0.42099,0.18672-0.78846,0.05027-1.1994-0.13644-0.41097-0.43218-0.64202-0.76571-0.92967-0.33353-0.28766-0.70551-0.58555-1.0683-0.86876-0.36275-0.2832-0.7178-0.56075-0.91597-0.78224-0.09908-0.11075-0.16221-0.21163-0.1841-0.26173,0.04834-0.0276,0.15448-0.058,0.3023-0.0902,0.29562-0.0643,0.74518-0.10714,1.2112-0.1267,0.46603-0.0196,0.94824-0.0298,1.3935-0.0697,0.44531-0.0399,0.84679-0.0499,1.2097-0.30216,0.36289-0.25221,0.5383-0.60511,0.71876-1.0001,0.18046-0.39497,0.33731-0.84115,0.50435-1.2616,0.16704-0.42041,0.31848-0.83556,0.47556-1.0859,0.07853-0.12515,0.16751-0.20007,0.21012-0.23565z"/>
</g>
</svg>