<svg width="93.619" height="93.619" viewBox="0 0 24.77 24.77" xml:space="preserve" xmlns="http://www.w3.org/2000/svg">
	<g transform="translate(33.09 -98.68)">
		<path style="fill:#000;stroke-width:.264583" d="M98.217 120.656V96.711H132.084v47.89H98.217Zm19.925 5.03c5.583-1.455 9.438-6.373 9.438-12.041 0-7.464-6.765-13.365-14.031-12.24-9.125 1.412-13.645 11.61-8.549 19.289 2.769 4.17 8.27 6.26 13.142 4.992zm-5.108-3.822c-1.295-.395-2.793-1.303-3.807-2.306-3.247-3.214-3.255-8.545-.018-11.837 1.622-1.65 3.547-2.412 6.074-2.402 2.59.009 4.158.678 5.999 2.558 1.733 1.77 2.423 3.685 2.272 6.297-.2 3.452-2.21 6.207-5.398 7.4-1.464.547-3.839.682-5.122.29zm3.713-5.181c.92-.476 1.578-1.634 1.578-2.774 0-2.794-3.33-4.117-5.331-2.117-.626.625-.754.977-.754 2.061 0 2.57 2.263 3.99 4.507 2.83z"/>
		<path style="opacity:1;fill:#666;stroke:none;stroke-width:1.12498;stroke-linecap:round;stroke-linejoin:round;stroke-miterlimit:2;stroke-opacity:1;paint-order:markers fill stroke" d="M-20.705 98.68a12.385 12.385 0 0 0-12.384 12.385 12.385 12.385 0 0 0 12.384 12.385 12.385 12.385 0 0 0 12.386-12.385A12.385 12.385 0 0 0-20.705 98.68zm0 3.616a8.77 8.77 0 0 1 8.77 8.77 8.77 8.77 0 0 1-8.77 8.77 8.77 8.77 0 0 1-8.77-8.77 8.77 8.77 0 0 1 8.77-8.77z"/>
		<circle style="opacity:1;fill:#666;stroke:none;stroke-width:.276252;stroke-linecap:round;stroke-linejoin:round;stroke-miterlimit:2;stroke-opacity:1;paint-order:markers fill stroke" cx="-20.704" cy="111.065" r="3.041"/>
	</g>
</svg>
