<svg xmlns="http://www.w3.org/2000/svg" height="16.001" width="16">
<g transform="translate(-60.99995,-296.9989)">
<path opacity="0.35" style="baseline-shift:baseline;block-progression:tb;color:#000000;direction:ltr;text-indent:0;text-align:start;enable-background:accumulate;text-transform:none;" fill="#bebebe" d="m68.875,297a1.0001,1.0001,0,0,0,-0.5,0.25l-4.9062,4a1.0001,1.0001,0,0,0,-0.0625,0.0312s-0.32587,0.29728-0.65625,0.75c-0.22334,0.30605-0.3527,0.8316-0.5,1.3125a1.0001,1.0001,0,0,0,-0.03125,0.0312,1.0001,1.0001,0,0,0,-0.21875,0.5625c-0.00051,0.0118,0.00036,0.0195,0,0.0312a1.0001,1.0001,0,0,0,0,0.0312,1.0001,1.0001,0,0,0,0,0.15625v7.8438a1.0001,1.0001,0,0,0,1,1h12a1.0001,1.0001,0,0,0,1,-1v-7.8438a1.0001,1.0001,0,0,0,0,-0.15625,1.0001,1.0001,0,0,0,-0.21875,-0.65625,1.0001,1.0001,0,0,0,-0.03125,-0.0312c-0.32774-1.1879-1.125-2-1.125-2a1.0001,1.0001,0,0,0,-0.0312,-0.0312l-4.969-4.02a1.0001,1.0001,0,0,0,-0.65625,-0.25,1.0001,1.0001,0,0,0,-0.0937,0zm0.125,2.2812,4.3125,3.5312,0.0312,0.0312c0.021,0.0255,0.18032,0.24952,0.34375,0.5l-4.6874,3.5312-4.6875-3.5312c0.0259-0.0394,0.0349-0.0872,0.0625-0.125,0.1908-0.26146,0.31874-0.41421,0.34375-0.4375l0.03125-0.0312,4.25-3.4688zm-5,5.0938,4.6875,3.5312,0.3125,0.21875,0.3125-0.21875,4.6875-3.5312,0,6.625-10,0,0-6.625z"/>
</g>
</svg>