<svg xmlns="http://www.w3.org/2000/svg" height="16" width="16">
<g transform="translate(-241.0002,-627)">
<path style="baseline-shift:baseline;block-progression:tb;color:#666666;direction:ltr;text-indent:0;text-align:start;enable-background:accumulate;text-transform:none;" fill="#666" d="m253.91,628.97a1.0001,1.0001,0,0,0,-0.125,0.0312,1.0001,1.0001,0,0,0,-0.78125,1v1.6875c-0.38225-0.57796-0.84927-1.0822-1.4062-1.5-1.1556-0.86677-2.532-1.2523-3.875-1.1875-0.19186,0.009-0.37223,0.0353-0.5625,0.0625-1.5222,0.21741-2.9782,1.023-3.9688,2.3438-1.9812,2.6414-1.4227,6.425,1.2188,8.4062s6.425,1.4227,8.4062-1.2188a1.0063,1.0063,0,0,0,0.18,-0.59,1.0063,1.0063,0,0,0,0,-0.15625v-0.84375h-0.8125-0.0937a1.0063,1.0063,0,0,0,-0.0937,0,1.0063,1.0063,0,0,0,-0.8125,0.40625c-1.3326,1.7767-3.817,2.1139-5.5938,0.78125-1.7767-1.3326-2.1139-3.817-0.78125-5.5938,1.3326-1.7767,3.817-2.1139,5.5938-0.78125,0.42946,0.32212,0.76954,0.73295,1.0312,1.1875h-1.4375a1.0001,1.0001,0,0,0,-1,1,1.0001,1.0001,0,0,0,0,0.21875v0.78125h0.84375,0.15625,4,1v-1-4a1.0001,1.0001,0,0,0,0,-0.1875v-0.8125h-0.8125a1.0001,1.0001,0,0,0,-0.28125,-0.0312z"/>
</g>
</svg>