<?xml version="1.0" encoding="UTF-8" standalone="no"?>
<!DOCTYPE svg PUBLIC "-//W3C//DTD SVG 1.1//EN" "http://www.w3.org/Graphics/SVG/1.1/DTD/svg11.dtd">
<svg width="100%" height="100%" viewBox="0 0 16 16" version="1.1" xmlns="http://www.w3.org/2000/svg" xmlns:xlink="http://www.w3.org/1999/xlink" xml:space="preserve" xmlns:serif="http://www.serif.com/" style="fill-rule:evenodd;clip-rule:evenodd;stroke-linecap:round;stroke-linejoin:round;stroke-miterlimit:1.5;">
    <g id="screwdriver" transform="matrix(0.0608111,0.0608111,-0.0608111,0.0608111,8.67635,-7.04415)">
        <path d="M107.247,133.389L99.194,133.389C97.887,133.389 96.801,132.428 96.607,131.175L96.607,121.949C99.304,119.361 100.975,115.777 100.975,111.818C100.975,107.86 99.304,104.276 96.607,101.688L96.607,34.578C96.607,23.84 105.324,15.123 116.061,15.123L120.181,15.123C130.919,15.123 139.636,23.84 139.636,34.578L139.614,101.769C136.966,104.35 135.329,107.901 135.329,111.818C135.329,115.733 136.963,119.281 139.607,121.862L139.605,130.774L139.605,130.774C139.563,132.233 138.452,133.347 136.993,133.389L128.887,133.389L107.247,133.389Z" style="fill:none;stroke:rgb(102,102,102);stroke-width:5.09px;"/>
        <path d="M128.887,133.389L128.887,207.523L134.383,213.019L123.785,245.702L112.35,245.702L101.751,213.019L107.247,207.523L107.247,133.389L128.887,133.389Z" style="fill:none;stroke:rgb(102,102,102);stroke-width:5.09px;"/>
        <g transform="matrix(1,0,0,1,-0.0475,-0.0285)">
            <path d="M110.037,34.101L110.037,97.554" style="fill:none;stroke:rgb(102,102,102);stroke-width:5.09px;"/>
        </g>
        <g transform="matrix(1,0,0,1,15.9525,-0.0285)">
            <path d="M110.037,34.101L110.037,97.554" style="fill:none;stroke:rgb(102,102,102);stroke-width:5.09px;"/>
        </g>
    </g>
</svg>
