<?xml version="1.0" encoding="utf-8"?>
<!-- Generator: Adobe Illustrator 25.0.1, SVG Export Plug-In . SVG Version: 6.00 Build 0)  -->
<svg version="1.1" id="Layer_1" xmlns="http://www.w3.org/2000/svg" xmlns:xlink="http://www.w3.org/1999/xlink" x="0px" y="0px" width="20px" height="20px" viewBox="0 0 100 100" style="enable-background:new 0 0 100 100;" xml:space="preserve">
    <style type="text/css">
        .st0 {
            fill: none;
        }
    </style>
    <g>
        <rect x="5.15" y="9.27" class="st0" width="58.17" height="81.47" />
        <path d="M20.83,37.91l11-28.63h4.08l11.72,28.63h-4.32l-3.34-8.67H28l-3.14,8.67H20.83z M29.1,26.15h9.71l-2.99-7.93
		c-0.91-2.41-1.59-4.39-2.03-5.94c-0.36,1.84-0.88,3.66-1.54,5.47L29.1,26.15z" />
        <path d="M22.82,85.91v-3.52l14.67-18.34c1.04-1.3,2.03-2.43,2.97-3.4H24.48v-3.38h20.51v3.38L28.91,80.51l-1.74,2.01h18.28v3.38
		H22.82z" />
    </g>
    <rect x="69.15" y="9.95" width="6" height="58.5" />
    <polygon points="72.15,87.32 84.85,66.56 59.45,66.56 " />
</svg>