<svg xmlns="http://www.w3.org/2000/svg" height="16" width="16">
<g transform="translate(-40.99995,-297)" fill="#e74c3c">
<path style="block-progression:tb;color:#000000;direction:ltr;text-indent:0;text-align:start;enable-background:accumulate;text-transform:none;" d="m43.781,301a1.0001,1.0001,0,0,0,-0.40625,1.7812l5,4,0.625,0.5,0.625-0.5,5-4a1.0005,1.0005,0,1,0,-1.25,-1.5625l-4.375,3.5-4.375-3.5a1.0001,1.0001,0,0,0,-0.844,-0.22z"/>
<path style="block-progression:tb;color:#000000;direction:ltr;text-indent:0;text-align:start;enable-background:accumulate;text-transform:none;" d="M42.906,300a1.0001,1.0001,0,0,0,-0.906,1v9a1.0001,1.0001,0,0,0,1,1h12a1.0001,1.0001,0,0,0,1,-1v-9a1.0001,1.0001,0,0,0,-1,-1h-12a1.0001,1.0001,0,0,0,-0.09375,0zm1.094,2h10v7h-10v-7z"/>
</g>
</svg>