<?xml version="1.0" encoding="UTF-8" standalone="no"?>
<!-- Generator: Adobe Illustrator 19.0.0, SVG Export Plug-In . SVG Version: 6.00 Build 0)  -->

<svg
   version="1.1"
   id="Capa_1"
   x="0px"
   y="0px"
   viewBox="0 0 485.811 485.811"
   style="enable-background:new 0 0 485.811 485.811;"
   xml:space="preserve"
   sodipodi:docname="warning.svg"
   inkscape:version="1.1.1 (3bf5ae0d25, 2021-09-20)"
   xmlns:inkscape="http://www.inkscape.org/namespaces/inkscape"
   xmlns:sodipodi="http://sodipodi.sourceforge.net/DTD/sodipodi-0.dtd"
   xmlns="http://www.w3.org/2000/svg"
   xmlns:svg="http://www.w3.org/2000/svg"><defs
   id="defs39" /><sodipodi:namedview
   id="namedview37"
   pagecolor="#ffffff"
   bordercolor="#666666"
   borderopacity="1.0"
   inkscape:pageshadow="2"
   inkscape:pageopacity="0.0"
   inkscape:pagecheckerboard="0"
   showgrid="false"
   inkscape:current-layer="g4" />
<g
   id="g4">
	<path
   d="m 476.099,353.968 -170.2,-294.8 c -27.8,-48.7 -98.1,-48.7 -125.8,0 l -170.3,294.8 c -27.8,48.7 6.8,109.2 62.9,109.2 h 339.9 c 56.1,0 91.3,-61.1 63.5,-109.2 z m -233.2,43.8 c -14.8,0 -27.1,-12.3 -27.1,-27.1 0,-14.8 12.3,-27.1 27.1,-27.1 14.8,0 27.1,12.3 26.5,27.8 0.7,14.1 -12.3,26.4 -26.5,26.4 z m 20.4,-92.6 c -0.6,11.1 -9.3,19.7 -20.4,19.7 -11.1,0 -19.7,-8 -20.4,-19.1 l -7.4,-123.4 c 0,-14.2 15.87683,-29.24195 29.10811,-28.92432 13.23128,0.31762 25.8052,10.20016 25.89189,28.32432 z"
   id="path2"
   sodipodi:nodetypes="ccccsscssscscscczcc"
   style="fill:#ffdd55" />
</g>
<g
   id="g6">
</g>
<g
   id="g8">
</g>
<g
   id="g10">
</g>
<g
   id="g12">
</g>
<g
   id="g14">
</g>
<g
   id="g16">
</g>
<g
   id="g18">
</g>
<g
   id="g20">
</g>
<g
   id="g22">
</g>
<g
   id="g24">
</g>
<g
   id="g26">
</g>
<g
   id="g28">
</g>
<g
   id="g30">
</g>
<g
   id="g32">
</g>
<g
   id="g34">
</g>
</svg>
