<?xml version="1.0"?>
<!--Icons from directory ""-->
<svg xmlns="http://www.w3.org/2000/svg" width="16" height="256" viewBox="0 0 16 256"><svg width="16" height="16" id="all" y="0"><g transform="translate(-40 -746)" fill="#FFF"><rect y="749" width="9.9996" style="color:#FFF" x="43" height="2.0002"/><rect y="753" width="9.9996" style="color:#FFF" x="43" height="2.0002"/><rect y="757" width="9.9996" style="color:#FFF" x="43" height="2.0002"/></g></svg><svg width="16" height="16" id="bookmark" y="16"><g transform="translate(-41 -397)"><path style="color:#000000" transform="matrix(1.0472 -.0087158 .0087158 1.0472 -504.35 220.15)" fill="#FFF" d="m530.95 186.71c-0.77941 0.55189-3.1576-1.906-4.1125-1.9179-0.95532-0.0119-3.3949 2.3858-4.161 1.8149-0.76573-0.57072 0.83698-3.592 0.55319-4.5039-0.2839-0.91223-3.3182-2.4915-3.0119-3.3965 0.30617-0.90461 3.6749-0.31399 4.4544-0.86567 0.77986-0.5519 1.3442-3.9257 2.2995-3.914 0.95494 0.0116 1.4342 3.398 2.1998 3.9689 0.76588 0.57114 4.1489 0.0653 4.4331 0.97746 0.28402 0.9118-2.7885 2.414-3.0949 3.3186-0.30652 0.90489 1.22 3.966 0.44027 4.5182z"/></g></svg><svg width="16" height="16" id="down" y="32"><g transform="translate(-181 -747)"><path style="block-progression:tb;text-indent:0;color:#bebebe;enable-background:new;text-transform:none" fill="#666" d="m195.03 751v1c-0.00091 0.0111 0.00059 0.021-0.00009 0.0312-0.0112 0.25496-0.12835 0.50994-0.31251 0.6875l-5.7188 6.2977-5.7188-6.2977c-0.18821-0.1881-0.28121-0.45346-0.28122-0.71875v-1h1c0.26531 0.00007 0.53059 0.0931 0.71873 0.28131l4.2812 4.829 4.2813-4.829c0.19464-0.21073 0.46925-0.30315 0.74998-0.2813z"/></g></svg><svg viewBox="0 0 256 256" width="16" height="16" id="icon" y="48"><title>Logo FreshRSS</title><circle cy="128" cx="128" r="33" fill="#C5C6CA"/><g stroke="#C5C6CA" stroke-width="24" fill="none"><g stroke-opacity=".3"><path d="m12 128a116 116 0 1 1 116 116"/><path d="m54 128a74 74 0 1 1 74 74"/></g><path d="m128 12a116 116 0 0 1 116 116"/><path d="m128 54a74 74 0 0 1 74 74"/></g></svg><svg width="16" height="16" id="link" y="64"><g transform="translate(-183,-529)" fill="#666"><path style="color:#000000" display="block" d="m191 533.85v10.38l-2.344-2.2882-1.3394 2.7346c-0.32808 0.73962-2.0337 0.14492-1.5487-0.84412l1.3255-2.8393h-2.9579l6.8645-7.1436z"/><path style="block-progression:tb;text-indent:0;color:#666;text-transform:none" d="m190.16 530.06c-3.8266 0.46006-6.5788 3.9578-6.0938 7.7812 0.13127 1.0347 0.29377 1.3818 0.29377 1.3818l1.675-1.6318c-0.33104-2.7534 1.6216-5.2315 4.375-5.5625 2.7534-0.33104 5.2315 1.6216 5.5625 4.375 0.31355 2.608-1.3913 5.0249-3.9688 5.5312l0.0312 2s0.52086-0.1059 0.62354-0.13097c3.4156-0.83385 5.7063-4.1273 5.2827-7.6503-0.46006-3.8266-3.9547-6.5538-7.7812-6.0938z"/><path opacity=".3" style="color:#666" d="m187.11 536.81v-0.20574l-0.19826 0.0186c0.0165-0.13095 0.0329-0.26167 0.0496-0.3926h-0.11578l-0.11556 0.14959-0.11578 0.0559-0.1653-0.0932-0.0165-0.20575 0.0331-0.22438 0.24798-0.18688h0.19826l0.0329-0.11229 0.24786 0.0559 0.18183 0.2246 0.0331-0.37419 0.31401-0.26167 0.11567-0.28055 0.23133-0.0934 0.1322-0.18688 0.29738-0.0564 0.14885-0.22415h-0.44623l0.28094-0.13095h0.19814l0.28106-0.0937 0.0331-0.11186-0.0992-0.0937-0.11567-0.0375 0.0331-0.11208-0.0826-0.16822-0.19837 0.0746 0.0331-0.14947-0.23134-0.13096-0.18171 0.3177 0.0165 0.11229-0.18171 0.075-0.11578 0.24302-0.0495-0.22438-0.31402-0.13095-0.0496-0.16822 0.41315-0.24325 0.18182-0.16822 0.0165-0.20563-0.0991-0.0562-0.13219-0.0188-0.0826 0.20575s-0.1382 0.0271-0.17373 0.0358c-0.45378 0.41804-1.3707 1.3204-1.5837 3.024 0.008 0.0395 0.15441 0.26854 0.15441 0.26854l0.347 0.20552 0.347 0.0937m3.9661-4.3003-0.4298-0.16833-0.49552 0.0561-0.61161 0.16822-0.11567 0.11229 0.38008 0.26167v0.14959l-0.14875 0.14959 0.19846 0.39294 0.13188-0.075 0.16561-0.26168c0.2553-0.0789 0.4842-0.16833 0.72686-0.28053l0.19846-0.5048m2.5292 0.34192-0.375 0.0937-0.21875 0.15625v0.125l-0.375 0.25 0.0937 0.34375 0.21875-0.15625 0.125 0.15625 0.15625 0.0937 0.0937-0.28125-0.0625-0.15625 0.0625-0.0937 0.21875-0.1875h0.0937l-0.0937 0.21875v0.1875c0.0892-0.0242 0.1588-0.051 0.25-0.0625l-0.25 0.1875v0.125l-0.3125 0.21875-0.28125-0.0625v-0.15625l-0.125 0.0625 0.0625 0.15625h-0.21875l-0.125 0.21875-0.15625 0.15625-0.0937 0.0312v0.1875l0.0312 0.15625h-0.0312v0.53125l0.0625-0.0312 0.0937-0.21875 0.1875-0.125 0.0312-0.0937 0.28125-0.0625 0.15625 0.1875 0.1875 0.0937-0.0937 0.1875 0.15625-0.0312 0.0625-0.21875-0.1875-0.21875h0.0625l0.21875 0.15625 0.0312 0.21875 0.15625 0.21875 0.0625-0.3125 0.0937-0.0312c0.0959 0.0996 0.1692 0.23163 0.25 0.34375h0.28125l0.1875 0.125-0.0937 0.0937-0.15625 0.15625h-0.25l-0.34375-0.0937h-0.1875l-0.125 0.15625-0.34375-0.375-0.25-0.0625-0.375 0.0625-0.15625 0.0937v2.4062l0.0312 0.0312 0.25-0.15625 0.0937 0.0937h0.28125l0.125 0.15625-0.0937 0.3125 0.1875 0.1875v0.375l0.125 0.25-0.0937 0.25c-0.009 0.16159 0 0.30714 0 0.46875 0.0795 0.21894 0.14355 0.43575 0.21875 0.65625l0.0625 0.34375v0.1875h0.125l0.21875-0.125h0.25l0.375-0.4375-0.0312-0.15625 0.25-0.21875-0.1875-0.1875 0.21875-0.1875 0.21875-0.125 0.0937-0.125-0.0625-0.25v-0.59375l0.1875-0.375 0.1875-0.25 0.25-0.5625v-0.15625c-0.11654 0.0146-0.22972 0.0231-0.34375 0.0312-0.0722 0.005-0.14446 0-0.21875 0-0.12359-0.25961-0.2183-0.50966-0.3125-0.78125l-0.15625-0.1875-0.0937-0.3125 0.0625-0.0625 0.21875 0.25 0.25 0.5625 0.15625 0.15625-0.0625 0.21875 0.15625 0.15625 0.25-0.25 0.3125-0.21875 0.15625-0.1875v-0.21875c-0.0389-0.0732-0.0547-0.14545-0.0937-0.21875l-0.15625 0.1875-0.125-0.15625-0.1875-0.125v-0.28125l0.21875 0.21875 0.21875-0.0312c0.10166 0.0923 0.19205 0.20751 0.28125 0.3125l0.15625-0.1875c0-0.17463-0.19976-1.0204-0.625-1.75-0.42526-0.72932-1.1562-1.4062-1.1562-1.4062l-0.0625 0.0937-0.21875 0.21875-0.25-0.25h0.25l0.125-0.125-0.46875-0.0937-0.25-0.0937z"/></g></svg><svg width="16" height="16" id="login" y="80"><g transform="translate(-181 -237)" fill="#666"><path style="color:#666" d="m184 244c-0.554 0-1 0.446-1 1v6h12v-5.9988c0-0.554-0.446-1-1-1h-10z"/><path style="block-progression:tb;text-indent:0;color:#bebebe;text-transform:none" d="m188 238c-1.6447 0-3 1.3553-3 3v7c0 1.6447 1.3553 3 3 3h2c1.6447 0 3-1.3553 3-3v-7c0-1.6447-1.3553-3-3-3h-2zm0 2h2c0.5713 0 1 0.4287 1 1v7c0 0.5713-0.4287 1-1 1h-2c-0.5713 0-1-0.4287-1-1v-7c0-0.5713 0.4287-1 1-1z"/></g></svg><svg width="16" height="16" id="logout" y="96"><g transform="translate(-201 -237)" fill="#666"><path style="color:#666" d="m204 246c-0.554 0-1 0.446-1 1v6h12v-5.9988c0-0.554-0.446-1-1-1h-10z"/><path style="block-progression:tb;text-indent:0;color:#bebebe;text-transform:none" d="m208 237c-1.6447 0-3 1.3553-3 3v3h2v-3c0-0.57129 0.42873-1 1-1h2c0.57127 0 1 0.42871 1 1v7h2v-7c0-1.6447-1.3553-3-3-3h-2z"/></g></svg><svg width="16" height="16" id="next" y="112"><g transform="translate(-121 -747)"><path style="block-progression:tb;text-indent:0;color:#bebebe;enable-background:new;text-transform:none" fill="#666" d="m125 749h1c0.0104-0.00012 0.0208-0.00046 0.0313 0 0.25495 0.0112 0.50987 0.12858 0.6875 0.3125l6.2977 5.7188-6.2977 5.7188c-0.18816 0.18819-0.45346 0.28125-0.71875 0.28125h-1v-1c0-0.26529 0.0931-0.53058 0.28125-0.71875l4.829-4.2812-4.829-4.2812c-0.21074-0.19463-0.30316-0.46925-0.28125-0.75z"/></g></svg><svg width="16" height="16" id="non-starred" y="128"><g transform="translate(-61 -397)"><path style="block-progression:tb;text-indent:0;color:#000000;text-transform:none" d="m69.003 398.01c-0.2659-0.00099-0.49859 0.1006-0.6647 0.2393-0.16611 0.13869-0.27742 0.32137-0.38968 0.50028-0.22453 0.35782-0.39269 0.76873-0.56546 1.2036-0.17277 0.43483-0.34713 0.88766-0.5046 1.2323-0.15747 0.34465-0.3456 0.57871-0.35862 0.58776-0.01287 0.009-0.30722 0.117-0.69576 0.15181-0.38855 0.0348-0.88122 0.0492-1.3632 0.0694-0.48202 0.0202-0.9703 0.0362-1.393 0.12817-0.21138 0.046-0.4154 0.10148-0.60434 0.20956s-0.36689 0.28631-0.45004 0.53002-0.04901 0.50627 0.03636 0.70157c0.08537 0.19531 0.22656 0.36514 0.3682 0.52344 0.2833 0.31663 0.6327 0.60557 1.0079 0.89849s0.77671 0.55926 1.0678 0.81027c0.29104 0.25101 0.45422 0.50796 0.45912 0.52271 0.0048 0.0146 0.03119 0.33498-0.05456 0.70231-0.08575 0.36732-0.2238 0.81174-0.35282 1.2603-0.12902 0.44861-0.25176 0.90196-0.2917 1.3184-0.01997 0.20819-0.04285 0.40729 0.0053 0.61409 0.04814 0.20679 0.1845 0.43007 0.39902 0.58168 0.21451 0.15161 0.44936 0.1881 0.66823 0.1701s0.43535-0.0703 0.63515-0.15132c0.39961-0.16214 0.80177-0.42851 1.2064-0.68231 0.40465-0.2538 0.80822-0.52155 1.1456-0.71107 0.33734-0.18952 0.6484-0.2686 0.66445-0.26854 0.01586 0.00006 0.30338 0.0951 0.63894 0.28732 0.33556 0.19221 0.72532 0.46503 1.1276 0.72205 0.40229 0.25702 0.81996 0.49752 1.218 0.66284 0.19903 0.0827 0.38893 0.15086 0.60762 0.17059 0.2187 0.0197 0.47978-0.031 0.69551-0.18105 0.21572-0.15001 0.33928-0.35235 0.38918-0.55877s0.04291-0.43517 0.02476-0.64358c-0.03632-0.41683-0.15899-0.86394-0.2841-1.3137-0.12511-0.44978-0.26165-0.88661-0.34421-1.2548-0.08256-0.36813-0.07169-0.68662-0.06666-0.70133 0.005-0.0145 0.18746-0.25247 0.4806-0.50101 0.29313-0.24854 0.67599-0.53755 1.0536-0.82731 0.37764-0.28976 0.76716-0.57158 1.0531-0.88579 0.14298-0.1571 0.2418-0.33444 0.32882-0.52904s0.136-0.42874 0.05481-0.67306-0.27108-0.41314-0.45912-0.52272-0.36679-0.18158-0.57782-0.22931c-0.42206-0.0955-0.91359-0.14009-1.3956-0.16426-0.48198-0.0242-0.94584-0.039-1.3342-0.077s-0.71565-0.13122-0.72859-0.14037c-0.01279-0.009-0.18402-0.23636-0.3384-0.58217s-0.32658-0.78819-0.49548-1.2243c-0.1689-0.4361-0.33477-0.86429-0.55609-1.2238-0.11067-0.17977-0.23335-0.35397-0.39826-0.49396s-0.40309-0.25684-0.66899-0.25783zm0.0086 0.99424c0.0422 0.0358 0.10671 0.13602 0.1841 0.26173 0.15477 0.25141 0.33068 0.6272 0.49397 1.0488 0.16329 0.42163 0.31905 0.88645 0.49598 1.2828 0.17693 0.39633 0.31456 0.73379 0.6753 0.98889 0.36072 0.25509 0.77019 0.29763 1.2152 0.34118 0.44506 0.0435 0.92882 0.0532 1.3948 0.0765 0.46599 0.0234 0.91824 0.0697 1.2135 0.13647 0.14763 0.0334 0.25558 0.0572 0.30381 0.0853-0.02227 0.0498-0.07958 0.15478-0.17956 0.26464-0.19997 0.21973-0.53749 0.48746-0.90261 0.7676-0.36511 0.28015-0.77804 0.57219-1.114 0.85704-0.33595 0.28485-0.63992 0.53221-0.77987 0.94209-0.13995 0.40986-0.05396 0.77681 0.04065 1.1987s0.25406 0.87813 0.37502 1.313c0.12096 0.43486 0.22688 0.84692 0.25228 1.1385 0.01156 0.13264-0.01699 0.23485-0.02778 0.29267-0.05993-0.008-0.1764-0.0324-0.30381-0.0853-0.27836-0.11561-0.64649-0.32808-1.0354-0.57657-0.38894-0.24849-0.8039-0.53053-1.1885-0.75081-0.38457-0.22028-0.70791-0.39837-1.1551-0.40015-0.44722-0.002-0.79205 0.17245-1.1786 0.38965-0.38659 0.21719-0.78438 0.49517-1.1756 0.74055-0.39123 0.24538-0.77636 0.4507-1.0559 0.56412-0.13977 0.0567-0.24616 0.0856-0.3023 0.0902-0.01026-0.0578-0.01522-0.16008-0.0025-0.29243 0.02793-0.29118 0.13818-0.70893 0.26291-1.1426 0.12473-0.43372 0.25404-0.89785 0.35232-1.3188 0.09828-0.42099 0.18672-0.78846 0.05027-1.1994-0.13644-0.41097-0.43218-0.64202-0.76571-0.92967-0.33353-0.28766-0.70551-0.58555-1.0683-0.86876-0.36275-0.2832-0.7178-0.56075-0.91597-0.78224-0.09908-0.11075-0.16221-0.21163-0.1841-0.26173 0.04834-0.0276 0.15448-0.058 0.3023-0.0902 0.29562-0.0643 0.74518-0.10714 1.2112-0.1267 0.46603-0.0196 0.94824-0.0298 1.3935-0.0697 0.44531-0.0399 0.84679-0.0499 1.2097-0.30216 0.36289-0.25221 0.5383-0.60511 0.71876-1.0001 0.18046-0.39497 0.33731-0.84115 0.50435-1.2616 0.16704-0.42041 0.31848-0.83556 0.47556-1.0859 0.07853-0.12515 0.16751-0.20007 0.21012-0.23565z" fill="#666"/></g></svg><svg width="16" height="16" id="prev" y="144"><g transform="translate(-301 -747)"><path style="block-progression:tb;text-indent:0;color:#666;enable-background:new;text-transform:none" fill="#666" d="m313.01 749h-1c-0.0104-0.00012-0.0208-0.00046-0.0313 0-0.25495 0.0112-0.50987 0.12858-0.6875 0.3125l-6.2977 5.7188 6.2977 5.7188c0.18816 0.18819 0.45346 0.28125 0.71875 0.28125h1v-1c0-0.26529-0.0931-0.53058-0.28125-0.71875l-4.829-4.2812 4.829-4.2812c0.21074-0.19463 0.30316-0.46925 0.28125-0.75z"/></g></svg><svg width="16" height="16" id="read" y="160"><g transform="translate(-61 -297)"><path style="block-progression:tb;text-indent:0;color:#000000;text-transform:none" d="m68.875 297a1.0001 1.0001 0 0 0 -0.5 0.25l-4.9062 4a1.0001 1.0001 0 0 0 -0.0625 0.0312s-0.32587 0.29728-0.65625 0.75c-0.22334 0.30605-0.3527 0.8316-0.5 1.3125a1.0001 1.0001 0 0 0 -0.03125 0.0312 1.0001 1.0001 0 0 0 -0.21875 0.5625c-0.00051 0.0118 0.00036 0.0195 0 0.0312a1.0001 1.0001 0 0 0 0 0.0312 1.0001 1.0001 0 0 0 0 0.15625v7.8438a1.0001 1.0001 0 0 0 1 1h12a1.0001 1.0001 0 0 0 1 -1v-7.8438a1.0001 1.0001 0 0 0 0 -0.15625 1.0001 1.0001 0 0 0 -0.21875 -0.65625 1.0001 1.0001 0 0 0 -0.03125 -0.0312c-0.32774-1.1879-1.125-2-1.125-2a1.0001 1.0001 0 0 0 -0.0312 -0.0312l-4.969-4.02a1.0001 1.0001 0 0 0 -0.65625 -0.25 1.0001 1.0001 0 0 0 -0.0937 0zm0.125 2.2812 4.3125 3.5312 0.0312 0.0312c0.021 0.0255 0.18032 0.24952 0.34375 0.5l-4.6874 3.5312-4.6875-3.5312c0.0259-0.0394 0.0349-0.0872 0.0625-0.125 0.1908-0.26146 0.31874-0.41421 0.34375-0.4375l0.03125-0.0312 4.25-3.4688zm-5 5.0938 4.6875 3.5312 0.3125 0.21875 0.3125-0.21875 4.6875-3.5312v6.625h-10v-6.625z" fill="#666"/></g></svg><svg width="16" height="16" id="share" y="176"><g transform="translate(-581 -196)" fill="#666"><g><path style="color:#000000;enable-background:new" transform="matrix(1.5079 0 0 1.5079 148.16 -64.491)" d="m291 178.03c0 1.0873-0.88144 1.9688-1.9688 1.9688-1.0873 0-1.9688-0.88144-1.9688-1.9688 0-1.0873 0.88144-1.9688 1.9688-1.9688 1.0873 0 1.9688 0.88144 1.9688 1.9688z"/><path style="color:#000000;enable-background:new" transform="matrix(1.5079 0 0 1.5079 158.13 -59.491)" d="m291 178.03c0 1.0873-0.88144 1.9688-1.9688 1.9688-1.0873 0-1.9688-0.88144-1.9688-1.9688 0-1.0873 0.88144-1.9688 1.9688-1.9688 1.0873 0 1.9688 0.88144 1.9688 1.9688z"/><path style="color:#000000;enable-background:new" transform="matrix(1.5079 0 0 1.5079 158.13 -69.491)" d="m291 178.03c0 1.0873-0.88144 1.9688-1.9688 1.9688-1.0873 0-1.9688-0.88144-1.9688-1.9688 0-1.0873 0.88144-1.9688 1.9688-1.9688 1.0873 0 1.9688 0.88144 1.9688 1.9688z"/></g><path style="block-progression:tb;text-indent:0;color:#000000;text-transform:none" d="m593.62 198.16-10.062 4.875-1.8125 0.90625 1.8125 0.90625 10.031 5.0625 0.90625-1.8125-8.2188-4.1562 8.2188-4-0.875-1.7812z"/></g></svg><svg width="16" height="16" id="starred" y="192"><g transform="translate(-41 -397)"><path style="color:#000000" transform="matrix(1.0472 -.0087158 .0087158 1.0472 -504.35 220.15)" fill="#666" d="m530.95 186.71c-0.77941 0.55189-3.1576-1.906-4.1125-1.9179-0.95532-0.0119-3.3949 2.3858-4.161 1.8149-0.76573-0.57072 0.83698-3.592 0.55319-4.5039-0.2839-0.91223-3.3182-2.4915-3.0119-3.3965 0.30617-0.90461 3.6749-0.31399 4.4544-0.86567 0.77986-0.5519 1.3442-3.9257 2.2995-3.914 0.95494 0.0116 1.4342 3.398 2.1998 3.9689 0.76588 0.57114 4.1489 0.0653 4.4331 0.97746 0.28402 0.9118-2.7885 2.414-3.0949 3.3186-0.30652 0.90489 1.22 3.966 0.44027 4.5182z"/></g></svg><svg width="16" height="16" id="tag" y="208"><g transform="translate(-141 -807)"><path d="m149 809v13l4-4 4 4c0.0525-6.8494-0.0285-10.584 0-13z" fill="#666"/></g></svg><svg width="16" height="16" id="unread" y="224"><g transform="translate(-41 -297)" fill="#666"><path style="block-progression:tb;text-indent:0;color:#000000;text-transform:none" d="m43.781 301a1.0001 1.0001 0 0 0 -0.40625 1.7812l5 4 0.625 0.5 0.625-0.5 5-4a1.0005 1.0005 0 1 0 -1.25 -1.5625l-4.375 3.5-4.375-3.5a1.0001 1.0001 0 0 0 -0.844 -0.22z"/><path style="block-progression:tb;text-indent:0;color:#000000;text-transform:none" d="m42.906 300a1.0001 1.0001 0 0 0 -0.906 1v9a1.0001 1.0001 0 0 0 1 1h12a1.0001 1.0001 0 0 0 1 -1v-9a1.0001 1.0001 0 0 0 -1 -1h-12a1.0001 1.0001 0 0 0 -0.09375 0zm1.094 2h10v7h-10v-7z"/></g></svg><svg width="16" height="16" id="up" y="240"><g transform="translate(-201 -747)"><path style="block-progression:tb;text-indent:0;color:#666;enable-background:new;text-transform:none" fill="#666" d="m215.03 759v-1c-0.00091-0.0111 0.00059-0.021-0.00009-0.0312-0.0112-0.25496-0.12835-0.50994-0.31251-0.6875l-5.7188-6.2977-5.7188 6.2977c-0.18821 0.1881-0.28121 0.45346-0.28122 0.71875v1h1c0.26531-0.00007 0.53059-0.0931 0.71873-0.28131l4.2812-4.829 4.2813 4.829c0.19464 0.21073 0.46925 0.30315 0.74998 0.2813z"/></g></svg></svg>
