<svg xmlns="http://www.w3.org/2000/svg" height="16" width="16">
<g fill="#666" transform="translate(-581.0002,-196)">
<path style="enable-background:new;color:#000000;" d="m291,178.03c0,1.0873-0.88144,1.9688-1.9688,1.9688-1.0873,0-1.9688-0.88144-1.9688-1.9688,0-1.0873,0.88144-1.9688,1.9688-1.9688,1.0873,0,1.9688,0.88144,1.9688,1.9688z" fill-rule="nonzero" transform="matrix(1.5079365,0,0,1.5079365,148.15963,-64.49107)"/>
<path style="enable-background:new;color:#000000;" d="m291,178.03c0,1.0873-0.88144,1.9688-1.9688,1.9688-1.0873,0-1.9688-0.88144-1.9688-1.9688,0-1.0873,0.88144-1.9688,1.9688-1.9688,1.0873,0,1.9688,0.88144,1.9688,1.9688z" fill-rule="nonzero" transform="matrix(1.5079365,0,0,1.5079365,158.12818,-59.49107)"/>
<path style="enable-background:new;color:#000000;" d="m291,178.03c0,1.0873-0.88144,1.9688-1.9688,1.9688-1.0873,0-1.9688-0.88144-1.9688-1.9688,0-1.0873,0.88144-1.9688,1.9688-1.9688,1.0873,0,1.9688,0.88144,1.9688,1.9688z" fill-rule="nonzero" transform="matrix(1.5079365,0,0,1.5079365,158.12818,-69.49107)"/>
<path style="baseline-shift:baseline;block-progression:tb;color:#000000;direction:ltr;text-indent:0;text-align:start;enable-background:accumulate;text-transform:none;" d="m593.62,198.16-10.062,4.875-1.8125,0.90625,1.8125,0.90625,10.031,5.0625,0.90625-1.8125-8.2188-4.1562,8.2188-4-0.875-1.7812z"/>
</g>
</svg>