<svg xmlns="http://www.w3.org/2000/svg" xmlns:xlink="http://www.w3.org/1999/xlink" width="16" height="16" viewBox="0 0 16 16" version="1.1">
<g id="surface2">
<path style=" stroke:none;fill-rule:nonzero;fill:rgb(94.901961%,94.901961%,94.901961%);fill-opacity:1;" d="M 6.667969 0 L 6.667969 2.839844 C 6.179688 2.964844 5.71875 3.160156 5.292969 3.410156 L 3.285156 1.402344 L 1.402344 3.285156 L 3.410156 5.292969 C 3.160156 5.71875 2.964844 6.179688 2.839844 6.667969 L 0 6.667969 L 0 9.332031 L 2.839844 9.332031 C 2.964844 9.820312 3.15625 10.28125 3.410156 10.707031 L 1.402344 12.714844 L 3.285156 14.597656 L 5.292969 12.589844 C 5.71875 12.839844 6.179688 13.03125 6.667969 13.15625 L 6.667969 16 L 9.332031 16 L 9.332031 13.15625 C 9.820312 13.03125 10.28125 12.839844 10.703125 12.589844 L 12.714844 14.597656 L 14.601562 12.714844 L 12.589844 10.707031 C 12.839844 10.28125 13.03125 9.820312 13.160156 9.332031 L 16 9.332031 L 16 6.667969 L 13.160156 6.667969 C 13.03125 6.179688 12.839844 5.71875 12.589844 5.292969 L 14.601562 3.285156 L 12.714844 1.398438 L 10.703125 3.410156 C 10.28125 3.15625 9.820312 2.964844 9.332031 2.839844 L 9.332031 0 Z M 8 5.332031 C 9.472656 5.332031 10.664062 6.527344 10.664062 8 C 10.664062 9.472656 9.472656 10.664062 8 10.664062 C 6.527344 10.664062 5.332031 9.472656 5.332031 8 C 5.332031 6.527344 6.527344 5.332031 8 5.332031 Z M 8 5.332031 "/>
</g>
</svg>