<svg xmlns="http://www.w3.org/2000/svg" width="16" height="17">
  <path fill="#666" d="M6.668.6v2.84c-.488.125-.95.32-1.375.57L3.285 2.002 1.402 3.885 3.41 5.893c-.25.426-.445.887-.57 1.371H0v2.668h2.84c.125.488.316.95.57 1.375l-2.008 2.008 1.883 1.883 2.008-2.008c.426.25.887.441 1.375.566V16.6h2.664v-2.844c.488-.125.95-.316 1.371-.566l2.012 2.008 1.887-1.883-2.012-2.008c.25-.426.441-.887.57-1.375H16V7.264h-2.84a5.498 5.498 0 0 0-.57-1.371l2.012-2.008-1.887-1.887-2.012 2.012a5.113 5.113 0 0 0-1.371-.57V.6ZM8 5.932a2.666 2.666 0 1 1-.003 5.331A2.666 2.666 0 0 1 8 5.932Zm0 0"/>
</svg>
