<svg xmlns="http://www.w3.org/2000/svg" xmlns:xlink="http://www.w3.org/1999/xlink" width="40" height="40" viewBox="0 0 40 40" version="1.1">
<g id="surface2">
<path style=" stroke:none;fill-rule:nonzero;fill:rgb(100%,100%,100%);fill-opacity:1;" d="M 25.15625 20 C 25.15625 17.152344 22.847656 14.84375 20 14.84375 C 17.152344 14.84375 14.84375 17.152344 14.84375 20 C 14.84375 22.847656 17.152344 25.15625 20 25.15625 C 22.847656 25.15625 25.15625 22.847656 25.15625 20 Z M 25.15625 20 "/>
<path style=" stroke:none;fill-rule:nonzero;fill:rgb(38.431373%,39.215686%,43.137255%);fill-opacity:1;" d="M 19.558594 0.0078125 C 17.125 0.0585938 14.679688 0.554688 12.347656 1.523438 C 4.878906 4.617188 0 11.917969 0 20 L 3.75 20 C 3.75 13.421875 7.703125 7.503906 13.78125 4.988281 C 19.859375 2.46875 26.839844 3.859375 31.488281 8.511719 C 36.140625 13.160156 37.53125 20.140625 35.011719 26.21875 C 32.496094 32.296875 26.578125 36.25 20 36.25 L 20 40 C 28.082031 40 35.382812 35.121094 38.476562 27.652344 C 41.570312 20.183594 39.859375 11.574219 34.140625 5.859375 C 30.210938 1.929688 24.914062 -0.109375 19.558594 0.0078125 Z M 19.558594 0.0078125 "/>
<path style=" stroke:none;fill-rule:nonzero;fill:rgb(38.431373%,39.215686%,43.137255%);fill-opacity:1;" d="M 20.683594 6.582031 C 18.726562 6.480469 16.738281 6.804688 14.859375 7.585938 C 9.839844 9.664062 6.5625 14.570312 6.5625 20 L 10.3125 20 C 10.3125 16.078125 12.667969 12.550781 16.292969 11.050781 C 19.917969 9.546875 24.074219 10.375 26.851562 13.148438 C 29.625 15.925781 30.453125 20.082031 28.949219 23.707031 C 27.449219 27.332031 23.921875 29.6875 20 29.6875 L 20 33.4375 C 25.429688 33.4375 30.335938 30.160156 32.414062 25.140625 C 34.492188 20.125 33.339844 14.335938 29.5 10.5 C 27.101562 8.097656 23.941406 6.75 20.683594 6.582031 Z M 20.683594 6.582031 "/>
<path style=" stroke:none;fill-rule:nonzero;fill:rgb(100%,100%,100%);fill-opacity:1;" d="M 20 0 L 20 3.75 C 28.996094 3.75 36.25 11.003906 36.25 20 L 40 20 C 40 8.976562 31.023438 0 20 0 Z M 20 0 "/>
<path style=" stroke:none;fill-rule:nonzero;fill:rgb(100%,100%,100%);fill-opacity:1;" d="M 20 6.5625 L 20 10.3125 C 25.371094 10.3125 29.6875 14.628906 29.6875 20 L 33.4375 20 C 33.4375 12.601562 27.398438 6.5625 20 6.5625 Z M 20 6.5625 "/>
</g>
</svg>