<svg xmlns="http://www.w3.org/2000/svg" width="40" height="40">
  <path fill="#fff" d="M25.156 20a5.156 5.156 0 1 0-10.312 0 5.156 5.156 0 0 0 10.312 0Zm0 0"/>
  <path fill="#62646e" d="M19.559.008a19.86 19.86 0 0 0-7.211 1.515A20.013 20.013 0 0 0 0 20h3.75A16.234 16.234 0 0 1 13.781 4.988a16.228 16.228 0 0 1 17.707 3.524 16.228 16.228 0 0 1 3.524 17.707A16.234 16.234 0 0 1 20 36.25V40a20.013 20.013 0 0 0 18.477-12.348A20 20 0 0 0 19.559.007Zm0 0"/>
  <path fill="#62646e" d="M20.684 6.582a13.347 13.347 0 0 0-5.825 1.004A13.445 13.445 0 0 0 6.563 20h3.75a9.676 9.676 0 0 1 5.98-8.95 9.676 9.676 0 0 1 10.559 2.098 9.676 9.676 0 0 1 2.097 10.559A9.676 9.676 0 0 1 20 29.687v3.75c5.43 0 10.336-3.277 12.414-8.296A13.44 13.44 0 0 0 29.5 10.5a13.424 13.424 0 0 0-8.816-3.918Zm0 0"/>
  <path fill="#fff" d="M20 0v3.75c8.996 0 16.25 7.254 16.25 16.25H40C40 8.977 31.023 0 20 0Zm0 0"/>
  <path fill="#fff" d="M20 6.563v3.75A9.66 9.66 0 0 1 29.688 20h3.75c0-7.398-6.04-13.438-13.438-13.438Zm0 0"/>
</svg>
