<svg xmlns="http://www.w3.org/2000/svg" width="17" height="17">
  <path fill="#666" d="M8.5 0C3.816 0 0 3.816 0 8.5S3.816 17 8.5 17 17 13.184 17 8.5 13.184 0 8.5 0ZM5.48 2.742C4.61 3.957 3.781 5.57 3.56 7.5H2.082A6.48 6.48 0 0 1 5.48 2.742Zm6.036 0A6.46 6.46 0 0 1 14.914 7.5h-1.476c-.22-1.93-1.047-3.543-1.922-4.758ZM7.5 3.438V7.5H5.578C5.84 5.836 6.695 4.437 7.5 3.437Zm2 0c.805 1 1.66 2.398 1.922 4.062H9.5ZM2.082 9.5h1.473c.187 1.828.863 3.371 1.59 4.566A6.489 6.489 0 0 1 2.082 9.5Zm3.488 0H7.5v4.46c-.766-1.003-1.68-2.554-1.93-4.46Zm3.93 0h1.918c-.258 1.672-1.113 3.07-1.918 4.063Zm3.938 0h1.476a6.454 6.454 0 0 1-3.398 4.758c.875-1.215 1.703-2.828 1.921-4.758Zm0 0"/>
</svg>
