<svg xmlns="http://www.w3.org/2000/svg" xmlns:xlink="http://www.w3.org/1999/xlink" width="17" height="17" viewBox="0 0 17 17" version="1.1">
<g id="surface2">
<path style=" stroke:none;fill-rule:nonzero;fill:rgb(32.54902%,32.54902%,32.54902%);fill-opacity:1;" d="M 8.5 0 C 3.816406 0 0 3.816406 0 8.5 C 0 13.183594 3.816406 17 8.5 17 C 13.183594 17 17 13.183594 17 8.5 C 17 3.816406 13.183594 0 8.5 0 Z M 5.480469 2.742188 C 4.609375 3.957031 3.78125 5.570312 3.558594 7.5 L 2.082031 7.5 C 2.402344 5.421875 3.691406 3.679688 5.480469 2.742188 Z M 11.515625 2.742188 C 13.308594 3.679688 14.597656 5.421875 14.914062 7.5 L 13.4375 7.5 C 13.21875 5.570312 12.390625 3.957031 11.515625 2.742188 Z M 7.5 3.4375 L 7.5 7.5 L 5.578125 7.5 C 5.839844 5.835938 6.695312 4.4375 7.5 3.4375 Z M 9.5 3.4375 C 10.304688 4.4375 11.160156 5.835938 11.421875 7.5 L 9.5 7.5 Z M 2.082031 9.5 L 3.554688 9.5 C 3.742188 11.328125 4.417969 12.871094 5.144531 14.066406 C 3.53125 13.09375 2.382812 11.441406 2.082031 9.5 Z M 5.570312 9.5 L 7.5 9.5 L 7.5 13.960938 C 6.734375 12.957031 5.820312 11.40625 5.570312 9.5 Z M 9.5 9.5 L 11.417969 9.5 C 11.160156 11.171875 10.304688 12.570312 9.5 13.5625 Z M 13.4375 9.5 L 14.914062 9.5 C 14.597656 11.578125 13.308594 13.324219 11.515625 14.257812 C 12.390625 13.042969 13.21875 11.429688 13.4375 9.5 Z M 13.4375 9.5 "/>
</g>
</svg>