<svg xmlns="http://www.w3.org/2000/svg" xmlns:xlink="http://www.w3.org/1999/xlink" width="16" height="16" viewBox="0 0 16 16" version="1.1">
<g id="surface2">
<path style=" stroke:none;fill-rule:nonzero;fill:rgb(94.901961%,94.901961%,94.901961%);fill-opacity:1;" d="M 9.464844 0 C 5.867188 0 2.929688 2.9375 2.929688 6.535156 C 2.929688 7.972656 3.40625 9.300781 4.199219 10.382812 L 0.710938 13.867188 L 0 14.578125 L 1.421875 16 L 2.132812 15.289062 L 5.617188 11.800781 C 6.699219 12.59375 8.027344 13.070312 9.464844 13.070312 C 13.0625 13.070312 16 10.132812 16 6.535156 C 16 2.9375 13.0625 0 9.464844 0 Z M 9.464844 2.011719 C 11.976562 2.011719 13.988281 4.023438 13.988281 6.535156 C 13.988281 9.046875 11.976562 11.058594 9.464844 11.058594 C 6.953125 11.058594 4.941406 9.046875 4.941406 6.535156 C 4.941406 4.023438 6.953125 2.011719 9.464844 2.011719 Z M 9.464844 2.011719 "/>
</g>
</svg>