<svg xmlns="http://www.w3.org/2000/svg" height="16" width="16">
<g transform="translate(-442,-176)">
<g transform="translate(234.0002,-820)">
<path d="m208.53,997c-0.28913,0-0.53125,0.24212-0.53125,0.53125v13.938c0,0.2985,0.23264,0.5312,0.53125,0.5312h14.938c0.2986,0,0.53125-0.2326,0.53125-0.5312v-8.9376c0-0.2891-0.24212-0.5312-0.53125-0.5312h-12.469v7.5c0,0.277-0.223,0.5-0.5,0.5s-0.5-0.223-0.5-0.5v-8c0-0.277,0.223-0.5,0.5-0.5h2.9688,8.5312v-1.4062c0-0.3272-0.26666-0.5938-0.59375-0.5938h-7.4062v-1.4688c0-0.39-0.24-0.63-0.53-0.63z" fill="#ffb6c1"/>
</g>
</g>
</svg>
