<svg xmlns="http://www.w3.org/2000/svg" width="16" height="16"><path fill="#ffb6c1" d="M3.058 13.939c-.179-.179-.185-.213-.14-.72.097-1.069.412-1.783 1.095-2.483.458-.47.458-.47.29-.915a6.82 6.82 0 0 1-.256-.898c-.09-.451-.09-.451-1.526-.451-1.402 0-1.439-.004-1.549-.161a.5.5 0 0 1 0-.62c.11-.158.147-.162 1.552-.162 1.44 0 1.44 0 1.488-.308.06-.38.2-.875.347-1.224.11-.264.11-.264-.347-.733-.682-.699-.997-1.414-1.093-2.481-.046-.508-.04-.543.139-.721.206-.206.34-.23.579-.104.23.12.265.201.266.608.002.731.391 1.72.845 2.146.156.147.156.147.669-.276.428-.354.512-.46.514-.646.008-.657.48-1.348 1.147-1.675 1.253-.616 2.695.183 2.89 1.6.037.27.094.368.307.53.144.108.363.305.487.437.224.241.224.241.532-.092a3.03 3.03 0 0 0 .772-1.744c.058-.736.08-.8.314-.896.264-.11.482-.046.633.185.092.14.106.28.068.67a4.08 4.08 0 0 1-1.14 2.5c-.411.431-.411.431-.244.876.092.244.208.648.256.896.09.452.09.452 1.526.452 1.402 0 1.439.004 1.549.161a.5.5 0 0 1 0 .62c-.11.158-.147.162-1.546.162-1.434 0-1.434 0-1.56.584a5.928 5.928 0 0 1-.26.897c-.133.313-.133.313.325.783.674.691.989 1.395 1.092 2.444.04.406.027.544-.066.686-.151.23-.37.295-.633.185-.234-.097-.256-.16-.314-.896a3.027 3.027 0 0 0-.772-1.744c-.307-.333-.307-.333-.61-.018-1.45 1.515-3.662 1.572-5.2.133-.474-.444-.474-.444-.78-.113a3.026 3.026 0 0 0-.77 1.742c-.057.723-.079.792-.285.886-.274.125-.383.106-.591-.102z"/></svg>