<svg height="16" width="16" xmlns="http://www.w3.org/2000/svg"><path style="block-progression:tb;text-indent:0;text-align:start;text-transform:none" d="M45 764h1.031c.255.011.51.129.688.313l2.282 2.28 2.312-2.28c.266-.23.447-.3.688-.31h1v1c0 .286-.035.55-.25.75l-2.281 2.28 2.25 2.25c.188.19.28.45.28.72v1h-1c-.265 0-.53-.092-.718-.28L49 769.442l-2.281 2.28c-.188.19-.454.28-.72.28h-1v-1c0-.266.094-.531.282-.72l2.281-2.25-2.28-2.28a.906.906 0 0 1-.282-.75v-1z" color="#ffb6c1" transform="translate(-41 -760)" fill="#ffb6c1"/></svg>