<svg xmlns="http://www.w3.org/2000/svg" viewBox="0 0 1280 256"><circle fill="#ffb6c1" cx="128" cy="128" r="33"/><g fill="none" stroke="#ffb6c1" stroke-width="24"><g stroke-opacity=".3"><path d="M12 128a116 116 0 1 1 116 116"/><path d="M54 128a74 74 0 1 1 74 74"/></g><path d="M128 12a116 116 0 0 1 116 116M128 54a74 74 0 0 1 74 74"/></g><g fill="#ffb6c1" stroke-width="0" font-family="'Open Sans'" font-weight="600" font-size="213"><path d="M353.722 206h-24.65V53.946h85.804v21.01h-61.154v47.529h57.306v21.113h-57.306V206zM498.391 88.892q7.384 0 12.169 1.04l-2.393 22.776q-5.2-1.248-10.816-1.248-14.664 0-23.817 9.569-9.048 9.568-9.048 24.857V206h-24.441V90.972h19.137l3.224 20.28h1.248q5.72-10.296 14.872-16.328 9.257-6.032 19.865-6.032zM582.218 208.08q-26.833 0-42.017-15.6-15.08-15.705-15.08-43.162 0-28.185 14.04-44.306 14.04-16.12 38.585-16.12 22.777 0 35.985 13.832 13.209 13.833 13.209 38.066v13.208h-76.65q.52 16.745 9.047 25.793 8.529 8.944 24.025 8.944 10.193 0 18.929-1.872 8.84-1.976 18.929-6.448v19.865q-8.945 4.264-18.097 6.032-9.152 1.768-20.905 1.768zm-4.472-100.676q-11.648 0-18.72 7.385-6.969 7.384-8.32 21.528h52.209q-.208-14.248-6.864-21.528-6.656-7.385-18.305-7.385zM731.984 173.239q0 16.848-12.273 25.897-12.272 8.944-35.153 8.944-22.985 0-36.921-6.968v-21.113q20.28 9.36 37.753 9.36 22.569 0 22.569-13.624 0-4.368-2.496-7.28-2.496-2.913-8.216-6.033-5.72-3.12-15.913-7.072-19.865-7.696-26.937-15.392-6.968-7.697-6.968-19.97 0-14.768 11.856-22.88 11.96-8.216 32.45-8.216 20.28 0 38.377 8.216l-7.904 18.409q-18.617-7.697-31.306-7.697-19.344 0-19.344 11.025 0 5.408 4.992 9.152 5.096 3.744 22.049 10.296 14.248 5.513 20.696 10.089 6.449 4.576 9.569 10.608 3.12 5.928 3.12 14.249zM859.493 206h-24.545v-70.723q0-13.312-5.408-19.864-5.305-6.553-16.953-6.553-15.393 0-22.673 9.257-7.176 9.152-7.176 30.785V206h-24.441V44.17h24.44V85.25q0 9.88-1.247 21.113h1.56q4.992-8.32 13.832-12.896 8.945-4.576 20.801-4.576 41.81 0 41.81 42.121V206zM920.959 124.669h17.265q17.368 0 25.169-6.448 7.8-6.449 7.8-19.137 0-12.897-8.424-18.513-8.425-5.616-25.377-5.616h-16.433v49.714zm0 20.593V206h-24.857V53.946h42.954q29.433 0 43.577 11.025 14.145 11.024 14.145 33.281 0 28.393-29.537 40.457L1010.194 206h-28.289l-36.401-60.738h-24.545zM1119.814 164.71q0 20.281-14.664 31.826-14.665 11.544-40.458 11.544t-42.225-8.008v-23.505q10.4 4.888 22.049 7.696 11.752 2.808 21.84 2.808 14.769 0 21.737-5.616 7.072-5.616 7.072-15.08 0-8.529-6.448-14.457-6.448-5.928-26.625-14.04-20.8-8.425-29.329-19.241-8.528-10.817-8.528-26.001 0-19.033 13.52-29.953 13.52-10.92 36.298-10.92 21.84 0 43.473 9.568l-7.904 20.28q-20.28-8.528-36.193-8.528-12.065 0-18.305 5.304-6.24 5.2-6.24 13.833 0 5.928 2.496 10.192 2.496 4.16 8.216 7.904 5.72 3.745 20.593 9.88 16.745 6.969 24.545 13.001 7.8 6.032 11.44 13.625 3.64 7.592 3.64 17.888zM1237.13 164.71q0 20.281-14.664 31.826-14.664 11.544-40.457 11.544t-42.226-8.008v-23.505q10.4 4.888 22.049 7.696 11.752 2.808 21.84 2.808 14.77 0 21.738-5.616 7.072-5.616 7.072-15.08 0-8.529-6.448-14.457-6.449-5.928-26.625-14.04-20.801-8.425-29.33-19.241-8.528-10.817-8.528-26.001 0-19.033 13.52-29.953 13.521-10.92 36.298-10.92 21.841 0 43.474 9.568l-7.904 20.28q-20.281-8.528-36.194-8.528-12.064 0-18.305 5.304-6.24 5.2-6.24 13.833 0 5.928 2.496 10.192 2.496 4.16 8.217 7.904 5.72 3.745 20.592 9.88 16.745 6.969 24.545 13.001 7.8 6.032 11.44 13.625 3.64 7.592 3.64 17.888z"/></g></svg>