<svg xmlns="http://www.w3.org/2000/svg" xml:space="preserve" fill-rule="evenodd" stroke-linejoin="round" stroke-miterlimit="2" clip-rule="evenodd" viewBox="0 0 16 16">
  <path fill="#ffb6c1" d="M7.982 2.465c-3.245 0-5.998 2.074-7.902 5.303a1 1 0 0 0 .002.466c1.904 3.229 4.655 5.301 7.9 5.301 2.628 0 5.236-1.248 7.92-5.246a.925.925 0 0 0-.004-.572c-2.684-3.998-5.288-5.252-7.916-5.252zm0 1.523a4.043 4.043 0 0 1 4.043 4.043 4.043 4.043 0 0 1-4.043 4.041 4.043 4.043 0 0 1-4.043-4.04 4.043 4.043 0 0 1 4.043-4.044z"/>
  <path fill="#ffb6c1" d="M7.982 5.625a2.406 2.406 0 0 0-2.406 2.406 2.406 2.406 0 0 0 2.406 2.407A2.406 2.406 0 0 0 10.39 8.03a2.406 2.406 0 0 0-2.407-2.406zm0 1.566a.838.838 0 0 1 .838.84.838.838 0 0 1-.838.838.838.838 0 0 1-.837-.838.838.838 0 0 1 .837-.84z"/>
</svg>