<svg xmlns="http://www.w3.org/2000/svg" width="16" height="16.001"><path fill="#ffb6c1" d="M68.875 297a1 1 0 0 0-.5.25l-4.906 4a1 1 0 0 0-.063.031s-.326.297-.656.75c-.223.306-.353.832-.5 1.313a1 1 0 0 0-.031.03 1 1 0 0 0-.219.563v.032a1 1 0 0 0 0 .03 1 1 0 0 0 0 .157V312a1 1 0 0 0 1 1h12a1 1 0 0 0 1-1v-7.844a1 1 0 0 0 0-.156 1 1 0 0 0-.219-.656 1 1 0 0 0-.031-.032 5.087 5.087 0 0 0-1.125-2 1 1 0 0 0-.031-.03l-4.97-4.02a1 1 0 0 0-.655-.25 1 1 0 0 0-.094 0zm.125 2.281 4.313 3.531.03.032c.022.025.181.25.344.5L69 306.874l-4.687-3.53c.025-.04.034-.088.062-.125.19-.262.319-.415.344-.438l.031-.031 4.25-3.47zm-5 5.094 4.688 3.531.312.219.313-.219L74 304.375V311H64v-6.625z" color="#000" style="block-progression:tb;text-indent:0;text-align:start;text-transform:none" transform="translate(-61 -296.999)"/></svg>