<svg xmlns="http://www.w3.org/2000/svg" height="16" width="16"><path style="baseline-shift:baseline;block-progression:tb;color:#ffb6c1666;direction:ltr;text-indent:0;text-align:start;enable-background:accumulate;text-transform:none" fill="#ffb6c1" d="M253.91 628.97a1 1 0 0 0-.125.031 1 1 0 0 0-.781 1v1.688a5.966 5.966 0 0 0-5.281-2.688c-.192.01-.373.036-.563.063a6.03 6.03 0 0 0-3.969 2.344c-1.981 2.64-1.422 6.425 1.219 8.406s6.425 1.422 8.406-1.22a1.006 1.006 0 0 0 .18-.59 1.006 1.006 0 0 0 0-.155v-.844h-.906a1.006 1.006 0 0 0-.094 0 1.006 1.006 0 0 0-.812.406c-1.333 1.777-3.817 2.114-5.594.781-1.777-1.332-2.114-3.817-.781-5.593 1.332-1.777 3.817-2.114 5.594-.782.43.322.77.733 1.03 1.188h-1.437a1 1 0 0 0-1 1 1 1 0 0 0 0 .219v.78h6v-5a1 1 0 0 0 0-.187v-.812h-.812a1 1 0 0 0-.281-.031z" transform="translate(-241 -627)"/></svg>