<svg xmlns="http://www.w3.org/2000/svg" height="16" width="16"><g fill="#ffb6c1"><path style="enable-background:new;color:#000" d="M325.06 97.188c0 1.787-.895 3.236-2 3.236s-2-1.449-2-3.236c0-1.787.895-3.236 2-3.236s2 1.449 2 3.236z" transform="matrix(1 0 0 .61803 -319.063 -48.065)"/><path style="enable-background:new;color:#000" d="M563 303v1c0 .55.453 1 1 1a9 9 0 0 1 9 9c0 .55.453 1 1 1h1v-1c0-6.075-4.925-11-11-11h-1zm0 4v1c0 .55.453 1 1 1a5 5 0 0 1 5 5c0 .55.453 1 1 1h1v-1a7 7 0 0 0-7-7h-1z" transform="translate(-561 -301)"/></g></svg>