<svg xmlns="http://www.w3.org/2000/svg" height="16" width="16"><g fill="#ffb6c1"><path style="baseline-shift:baseline;block-progression:tb;color:#ffb6c1666;direction:ltr;text-indent:0;text-align:start;enable-background:new;text-transform:none" d="M447.51 196c-3.029 0-5.51 2.479-5.51 5.505 0 3.025 2.481 5.504 5.51 5.504s5.51-2.479 5.51-5.504c0-3.026-2.481-5.505-5.51-5.505zm0 2.009c1.947 0 3.5 1.55 3.5 3.495s-1.553 3.496-3.5 3.496-3.5-1.55-3.5-3.496a3.479 3.479 0 0 1 3.5-3.495z" transform="translate(-441 -195)"/><path style="baseline-shift:baseline;block-progression:tb;color:#ffb6c1666;direction:ltr;text-indent:0;text-align:start;enable-background:new;text-transform:none" d="M450.81 204a1 1 0 0 0-.5 1.719l4 4a1.006 1.006 0 1 0 1.406-1.438l-4-4a1 1 0 0 0-.91-.28z" transform="translate(-441 -195)"/></g></svg>