<svg xmlns="http://www.w3.org/2000/svg" height="16" width="16">
<g fill="#ffb6c1" transform="translate(-441.0004,-195)">
<path style="baseline-shift:baseline;block-progression:tb;color:#ffb6c1666;direction:ltr;text-indent:0;text-align:start;enable-background:new;text-transform:none;" d="m447.51,196c-3.0289,0-5.5107,2.479-5.5107,5.5045,0,3.0254,2.4819,5.5045,5.5107,5.5045s5.5107-2.479,5.5107-5.5045c0-3.0254-2.4819-5.5045-5.5107-5.5045zm0,2.0089c1.9474,0,3.4995,1.5504,3.4995,3.4955s-1.5522,3.4955-3.4995,3.4955c-1.9474,0-3.4995-1.5504-3.4995-3.4955,0-1.9452,1.5522-3.4955,3.4995-3.4955z"/>
<path style="baseline-shift:baseline;block-progression:tb;color:#ffb6c1666;direction:ltr;text-indent:0;text-align:start;enable-background:new;text-transform:none;" d="m450.81,204a1.0001,1.0001,0,0,0,-0.5,1.7188l4,4a1.0055,1.0055,0,1,0,1.4062,-1.4375l-4-4a1.0001,1.0001,0,0,0,-0.91,-0.28z"/>
</g>
</svg>