<svg xmlns="http://www.w3.org/2000/svg" width="16" height="16"><g fill="#ffb6c1" color="#000"><path d="M5.969 7.967a2.969 2.969 0 1 1-5.938 0 2.969 2.969 0 0 1 5.938 0zm9.969 5a2.969 2.969 0 1 1-5.938 0 2.969 2.969 0 0 1 5.938 0zm0-10a2.969 2.969 0 1 1-5.938 0 2.969 2.969 0 0 1 5.938 0z"/><path d="m593.62 198.16-10.062 4.875-1.813.906 1.813.906 10.031 5.063.906-1.813-8.219-4.156 8.22-4-.876-1.78z" style="block-progression:tb;text-indent:0;text-align:start;text-transform:none" transform="translate(-581 -196)"/></g></svg>