<svg xmlns="http://www.w3.org/2000/svg" viewBox="0 0 16 16"><g fill="#ffb6c1" color="#ffb6c1"><path d="M0 1v13h6c.175 0 .525.152.813.344.287.192.468.375.468.375l.719.719.719-.75S9.615 14 10 14h6V1h-6c-.877 0-1.56.348-2.031.688-.03-.021-.031-.011-.063-.032C7.446 1.353 6.828 1 6 1H0zm2 2h4c.138 0 .515.147.813.344.297.196.5.375.5.375l.718.687.688-.718S9.619 3 10 3h4v9h-4c-.877 0-1.56.347-2.031.688-.02-.014-.011-.018-.031-.032C7.478 12.348 6.835 12 6 12H2V3z"/><g transform="matrix(-1 0 0 1 -181 -867)"><rect height="2" rx=".375" width="3" x="-187" y="872"/><rect height="2" rx=".375" width="3" x="-187" y="875"/><rect height="2" rx=".375" width="3" x="-194" y="872"/><rect height="2" rx=".375" width="3" x="-194" y="875"/></g></g></svg>