<svg xmlns="http://www.w3.org/2000/svg" viewBox="0 0 16 16"><g transform="translate(-181-867)" fill="#ffb6c1" color="#ffb6c1"><path d="m 181,868 0,1 0,11 0,1 1,0 5,0 c 0.1754,0 0.52538,0.15166 0.8125,0.34375 0.28712,0.19209 0.46875,0.375 0.46875,0.375 L 189,882.4375 l 0.71875,-0.75 c 0,0 0.8963,-0.6875 1.28125,-0.6875 l 5,0 1,0 0,-1 0,-11 0,-1 -1,0 -5,0 c -0.87652,0 -1.56017,0.34756 -2.03125,0.6875 -0.0301,-0.0207 -0.031,-0.0105 -0.0625,-0.0312 C 188.44557,868.35254 187.82811,868 187,868 l -5,0 -1,0 z m 2,2 4,0 c 0.13821,0 0.51476,0.14746 0.8125,0.34375 0.29774,0.19629 0.5,0.375 0.5,0.375 l 0.71875,0.6875 0.6875,-0.71875 c 0,0 0.89975,-0.6875 1.28125,-0.6875 l 4,0 0,9 -4,0 c -0.87693,0 -1.56008,0.34735 -2.03125,0.6875 -0.0196,-0.0135 -0.011,-0.0177 -0.0312,-0.0312 C 188.47725,879.34834 187.83512,879 187,879 l -4,0 0,-9 z"/><g transform="scale(-1 1)"><rect height="2" rx=".375" width="3" x="-187" y="872"/><rect height="2" rx=".375" width="3" x="-187" y="875"/><rect height="2" rx=".375" width="3" x="-194" y="872"/><rect height="2" rx=".375" width="3" x="-194" y="875"/></g></g></svg>