<svg xmlns="http://www.w3.org/2000/svg" width="14.031" height="12.989">
  <path fill="#666" d="M69.003 398.01a1.03 1.03 0 0 0-.665.24c-.166.138-.277.32-.39.5-.224.357-.392.768-.565 1.203-.173.435-.347.888-.504 1.232a2.606 2.606 0 0 1-.36.588 2.621 2.621 0 0 1-.695.152c-.388.035-.881.05-1.363.07-.482.02-.97.036-1.393.128-.211.038-.415.11-.604.21a.987.987 0 0 0-.45.53.994.994 0 0 0 .036.7c.085.196.227.366.368.524.283.317.633.606 1.008.899.375.293.777.559 1.068.81.29.251.454.508.459.523.018.235 0 .472-.055.702-.085.367-.223.812-.352 1.26-.13.449-.252.902-.292 1.319-.02.208-.043.407.005.614a.987.987 0 0 0 1.067.752c.22-.018.436-.07.636-.152.4-.162.801-.428 1.206-.682.405-.254.808-.522 1.146-.711.337-.19.648-.269.664-.269.016 0 .303.095.639.288.336.192.725.465 1.128.722.402.257.82.497 1.218.663.199.082.389.15.607.17.219.02.48-.03.696-.18a.947.947 0 0 0 .389-.56c.05-.206.043-.435.025-.643-.037-.417-.16-.864-.284-1.314-.126-.45-.262-.887-.345-1.255a2.64 2.64 0 0 1-.066-.701c.005-.015.187-.253.48-.501.293-.249.676-.538 1.054-.827.378-.29.767-.572 1.053-.886a1.93 1.93 0 0 0 .329-.53.916.916 0 0 0 .055-.672c-.082-.245-.271-.413-.46-.523a1.965 1.965 0 0 0-.577-.23c-.422-.095-.914-.14-1.396-.164-.482-.024-.946-.039-1.334-.077a3.698 3.698 0 0 1-.729-.14 2.713 2.713 0 0 1-.338-.582 28.41 28.41 0 0 1-.496-1.224c-.168-.437-.334-.865-.556-1.224a2.01 2.01 0 0 0-.398-.494 1.061 1.061 0 0 0-.669-.258z" style="color:#000;text-indent:0;text-align:start;text-transform:none;direction:ltr;baseline-shift:baseline;enable-background:accumulate;fill:#0062bf;fill-opacity:1" transform="translate(-61.966 -398.01)"/>
</svg>
