<svg xmlns="http://www.w3.org/2000/svg" xmlns:xlink="http://www.w3.org/1999/xlink" width="251.372" height="252.762">
  <defs>
    <linearGradient id="a" x1="115.7" x2="72.873" y1="14.64" y2="53.018" gradientUnits="userSpaceOnUse">
      <stop offset="0" stop-color="#0090ff"/>
      <stop offset="1" stop-color="#0062be"/>
    </linearGradient>
    <linearGradient xlink:href="#a" id="c" x1="115.7" x2="72.873" y1="14.64" y2="53.018" gradientUnits="userSpaceOnUse"/>
    <linearGradient xlink:href="#a" id="d" x1="115.7" x2="72.873" y1="14.64" y2="53.018" gradientUnits="userSpaceOnUse"/>
    <linearGradient xlink:href="#a" id="b" x1="115.7" x2="72.873" y1="14.64" y2="53.018" gradientUnits="userSpaceOnUse"/>
  </defs>
  <g fill="#fff">
    <path d="M112.07 3.389v24.454c61.808.071 111.883 50.169 111.917 111.988h26.065C249.258 64.335 187.883 3.39 112.198 3.39h-.135z"/>
    <path d="M112.07 48.466v25.528c36.359.217 65.803 29.546 66.306 65.837h26.738c-.36-50.53-41.486-91.365-92.1-91.365-.316 0-.624-.003-.94 0zM100.4 28.21C44.098 34.303.22 81.82 0 139.69h20.902c-.002-.237 0-.474 0-.712 0-46.475 34.63-84.807 79.496-90.688V28.211z"/>
    <path d="M100.4 65.462c-35.297 6.105-62.165 36.772-62.27 73.79H57.66c.206-25.85 18.45-47.405 42.738-52.778ZM112.854 108.804c-16.682 0-30.176 13.493-30.176 30.175 0 16.682 13.493 30.23 30.176 30.23 16.681 0 30.23-13.548 30.23-30.23 0-16.682-13.548-30.175-30.23-30.175zM165.467 151.047c-5.197 24.498-26.827 42.916-52.833 43.121v20.464h.659c37.587 0 68.772-27.558 74.339-63.587h-22.165Z"/>
    <path d="M203.107 151.047c-5.896 44.696-43.998 79.278-90.248 79.496v22.219c58.433-.112 106.39-44.693 111.865-101.717H203.11z"/>
  </g>
  <g fill="url(#a)" style="fill:url(#b)" transform="translate(3.386 19.682) scale(1.71606)">
    <path d="M64.102-11.469v14.25c36.018.042 65.198 29.235 65.218 65.259h15.189c-.463-43.994-36.228-79.509-80.332-79.509h-.078z" style="fill:url(#c)"/>
    <path d="M64.102 14.799v14.876c21.188.126 38.346 17.217 38.639 38.365h15.581c-.21-29.445-24.175-53.241-53.669-53.241-.185 0-.364-.002-.548 0z" style="fill:url(#d)"/>
  </g>
  <g fill="#222">
    <path d="M101.72 24.821C45.418 30.915 1.54 78.432 1.32 136.302h20.902c-.002-.238 0-.475 0-.713 0-46.475 34.63-84.806 79.496-90.688V24.823z"/>
    <path d="M101.72 62.073c-35.297 6.105-62.165 36.773-62.27 73.79H58.98c.206-25.85 18.45-47.405 42.738-52.777ZM114.174 105.415c-16.682 0-30.176 13.493-30.176 30.175 0 16.682 13.493 30.23 30.176 30.23 16.681 0 30.23-13.547 30.23-30.23 0-16.681-13.548-30.175-30.23-30.175zM166.787 147.658c-5.198 24.498-26.827 42.916-52.833 43.122v20.463c.219.002.44 0 .659 0 37.587 0 68.772-27.558 74.339-63.586h-22.165Z"/>
    <path d="M204.427 147.658c-5.896 44.696-43.999 79.278-90.248 79.496v22.219c58.433-.112 106.39-44.693 111.865-101.716H204.43z"/>
  </g>
</svg>
