<svg xmlns="http://www.w3.org/2000/svg" xmlns:xlink="http://www.w3.org/1999/xlink" viewBox="0 0 59.4 59.7">
  <defs>
    <linearGradient id="a">
      <stop offset="0" stop-color="#0090ff"/>
      <stop offset="1" stop-color="#0062be"/>
    </linearGradient>
    <linearGradient xlink:href="#a" id="b" x1="115.7" x2="72.873" y1="14.64" y2="53.018" gradientUnits="userSpaceOnUse"/>
  </defs>
  <g fill="#FFF">
    <path d="M26.806 1.425V7.2c14.6.017 26.43 11.851 26.438 26.455H59.4C59.213 15.822 44.715 1.425 26.836 1.425h-.031z"/>
    <path d="M26.806 12.073v6.03c8.59.052 15.544 6.98 15.663 15.553h6.316c-.085-11.937-9.8-21.583-21.756-21.583h-.222zM24.05 7.288C10.75 8.728.384 19.952.332 33.622H5.27v-.168c0-10.978 8.18-20.033 18.779-21.423V7.288z"/>
    <path d="M24.05 16.088c-8.338 1.442-14.685 8.686-14.71 17.43h4.614c.048-6.106 4.358-11.198 10.095-12.467v-4.963zM26.991 26.326a7.123 7.123 0 0 0-7.128 7.128c0 3.94 3.188 7.141 7.128 7.141 3.941 0 7.141-3.2 7.141-7.14 0-3.941-3.2-7.129-7.14-7.129zM39.42 36.305c-1.228 5.787-6.337 10.138-12.48 10.186v4.834h.155c8.88 0 16.246-6.51 17.56-15.02H39.42z"/>
    <path d="M48.311 36.305c-1.393 10.558-10.393 18.727-21.318 18.779v5.248c13.803-.026 25.131-10.557 26.425-24.027h-5.106z"/>
  </g>
  <g fill="url(#b)" transform="translate(1.133 5.273) scale(.40537)">
    <path d="M64.102-11.469v14.25c36.018.042 65.198 29.235 65.218 65.259h15.189c-.463-43.994-36.228-79.509-80.332-79.509h-.078z"/>
    <path d="M64.102 14.799v14.876c21.188.126 38.346 17.217 38.639 38.365h15.581c-.21-29.445-24.175-53.241-53.669-53.241-.185 0-.364-.002-.548 0z"/>
  </g>
  <g fill="#222">
    <path d="M24.361 6.488C11.061 7.927.697 19.152.645 32.822h4.937v-.169c0-10.978 8.18-20.033 18.779-21.422V6.488z"/>
    <path d="M24.361 15.287c-8.338 1.442-14.684 8.687-14.71 17.431h4.614c.05-6.106 4.359-11.198 10.096-12.467v-4.964zM27.303 25.526a7.123 7.123 0 0 0-7.128 7.128c0 3.94 3.187 7.14 7.128 7.14 3.94 0 7.141-3.2 7.141-7.14 0-3.94-3.2-7.128-7.14-7.128zM39.732 35.505c-1.228 5.786-6.337 10.137-12.48 10.186v4.834h.155c8.879 0 16.245-6.51 17.56-15.02h-5.235z"/>
    <path d="M48.623 35.505C47.23 46.063 38.23 54.232 27.304 54.283v5.249c13.804-.027 25.132-10.558 26.426-24.028h-5.106z"/>
  </g>
</svg>
