<svg xmlns="http://www.w3.org/2000/svg" width="15.8" height="15.8">
  <path fill="#666" d="M7.884 2.978c-3.434 0-6.38 1.986-7.843 4.906a8.997 8.997 0 0 0 3 3.438l1.062-1.063-.094-.062a7.438 7.438 0 0 1-2.281-2.313 7.438 7.438 0 0 1 2.281-2.312c.06-.038.127-.057.188-.094-.153.42-.25.87-.25 1.344 0 1 .386 1.9 1 2.594l1.656-1.657c-.06.008-.126.032-.187.032a1.464 1.464 0 0 1-1.47-1.47c0-.814.654-1.468 1.47-1.468.815 0 1.468.654 1.468 1.469 0 .061-.024.128-.031.187l3-3a8.728 8.728 0 0 0-2.969-.53zm5.97 2.344L12.79 6.384a7.49 7.49 0 0 1 1.28 1.5 7.441 7.441 0 0 1-2.28 2.313 7.314 7.314 0 0 1-3.907 1.156h-.062l-1.344 1.344a8.58 8.58 0 0 0 1.406.125c3.434 0 6.412-2.017 7.875-4.938a9.026 9.026 0 0 0-1.906-2.562zM11.79 7.384l-3.313 3.313a3.934 3.934 0 0 0 3.313-3.313ZM1.428 13.365 12.236 2.487l2.136-.052-11.096 10.93Z"/>
</svg>
