<?xml version="1.0" encoding="UTF-8" standalone="no"?>
<svg
   xmlns:dc="http://purl.org/dc/elements/1.1/"
   xmlns:cc="http://creativecommons.org/ns#"
   xmlns:rdf="http://www.w3.org/1999/02/22-rdf-syntax-ns#"
   xmlns:svg="http://www.w3.org/2000/svg"
   xmlns="http://www.w3.org/2000/svg"
   xmlns:sodipodi="http://sodipodi.sourceforge.net/DTD/sodipodi-0.dtd"
   xmlns:inkscape="http://www.inkscape.org/namespaces/inkscape"
   height="16"
   width="16"
   id="svg2"
   version="1.1"
   inkscape:version="0.48.4 r9939"
   sodipodi:docname="read.svg">
  <metadata
     id="metadata14">
    <rdf:RDF>
      <cc:Work
         rdf:about="">
        <dc:format>image/svg+xml</dc:format>
        <dc:type
           rdf:resource="http://purl.org/dc/dcmitype/StillImage" />
      </cc:Work>
    </rdf:RDF>
  </metadata>
  <defs
     id="defs12" />
  <sodipodi:namedview
     pagecolor="#ffffff"
     bordercolor="#666666"
     borderopacity="1"
     objecttolerance="10"
     gridtolerance="10"
     guidetolerance="10"
     inkscape:pageopacity="0"
     inkscape:pageshadow="2"
     inkscape:window-width="1366"
     inkscape:window-height="746"
     id="namedview10"
     showgrid="false"
     showguides="true"
     inkscape:guide-bbox="true"
     inkscape:zoom="20.85965"
     inkscape:cx="1.4146405"
     inkscape:cy="1.9030696"
     inkscape:window-x="0"
     inkscape:window-y="0"
     inkscape:window-maximized="1"
     inkscape:current-layer="svg2">
    <sodipodi:guide
       orientation="0,1"
       position="18.02523,13.039528"
       id="guide4011" />
    <sodipodi:guide
       orientation="0,1"
       position="10.738435,2.1093355"
       id="guide4013" />
  </sodipodi:namedview>
  <path
     style="fill:#666666;fill-opacity:1"
     d="M 7.96875 3.53125 C 4.5348428 3.53125 1.5876066 5.5165625 0.125 8.4375 C 0.82219215 9.8298459 1.8542852 11.018132 3.125 11.875 L 4.1875 10.8125 C 4.1557149 10.792908 4.1252734 10.770107 4.09375 10.75 C 3.1686838 10.159963 2.4013362 9.3681638 1.8125 8.4375 C 2.4013064 7.5068362 3.1686838 6.7150381 4.09375 6.125 C 4.153999 6.086558 4.2200207 6.0678159 4.28125 6.03125 C 4.1281272 6.4514645 4.03125 6.9017961 4.03125 7.375 C 4.03125 8.3743663 4.4176287 9.2745486 5.03125 9.96875 L 6.6875 8.3125 C 6.6279286 8.3198156 6.5615492 8.34375 6.5 8.34375 C 5.6847243 8.34375 5.03125 7.6902761 5.03125 6.875 C 5.03125 6.0597241 5.6847243 5.40625 6.5 5.40625 C 7.315274 5.40625 7.96875 6.0597241 7.96875 6.875 C 7.96875 6.9365493 7.9448156 7.0029284 7.9375 7.0625 L 10.9375 4.0625 C 10.012284 3.7268614 9.0067293 3.53125 7.96875 3.53125 z M 13.9375 5.875 L 12.875 6.9375 C 13.361343 7.384153 13.800475 7.875184 14.15625 8.4375 C 13.567444 9.3681312 12.800096 10.159902 11.875 10.75 C 10.712608 11.491404 9.3458636 11.90625 7.96875 11.90625 C 7.9474196 11.90625 7.9275631 11.906438 7.90625 11.90625 L 6.5625 13.25 C 7.0252716 13.326399 7.484852 13.375 7.96875 13.375 C 11.402597 13.375 14.381083 11.358437 15.84375 8.4375 C 15.35848 7.4683588 14.717496 6.6019095 13.9375 5.875 z M 11.875 7.9375 L 8.5625 11.25 C 10.272165 10.995832 11.624635 9.6484033 11.875 7.9375 z "
     id="path3167" />
  <path
     style="fill:#666666;fill-opacity:1;stroke:none"
     d="M 2.4921273,13.890664 13.300845,3.0127581 15.437224,2.9604715 4.3408683,13.890664 z"
     id="path2990"
     inkscape:connector-curvature="0"
     inkscape:transform-center-x="12.094976"
     inkscape:transform-center-y="-3.2041508"
     sodipodi:nodetypes="ccccc" />
</svg>
