<?xml version="1.0" encoding="UTF-8" standalone="no"?>
<svg
   xmlns:dc="http://purl.org/dc/elements/1.1/"
   xmlns:cc="http://creativecommons.org/ns#"
   xmlns:rdf="http://www.w3.org/1999/02/22-rdf-syntax-ns#"
   xmlns:svg="http://www.w3.org/2000/svg"
   xmlns="http://www.w3.org/2000/svg"
   xmlns:sodipodi="http://sodipodi.sourceforge.net/DTD/sodipodi-0.dtd"
   xmlns:inkscape="http://www.inkscape.org/namespaces/inkscape"
   height="16"
   width="16"
   id="svg2"
   version="1.1"
   inkscape:version="0.48.4 r9939"
   sodipodi:docname="unread.svg">
  <metadata
     id="metadata14">
    <rdf:RDF>
      <cc:Work
         rdf:about="">
        <dc:format>image/svg+xml</dc:format>
        <dc:type
           rdf:resource="http://purl.org/dc/dcmitype/StillImage" />
      </cc:Work>
    </rdf:RDF>
  </metadata>
  <defs
     id="defs12" />
  <sodipodi:namedview
     pagecolor="#ffffff"
     bordercolor="#666666"
     borderopacity="1"
     objecttolerance="10"
     gridtolerance="10"
     guidetolerance="10"
     inkscape:pageopacity="0"
     inkscape:pageshadow="2"
     inkscape:window-width="1366"
     inkscape:window-height="745"
     id="namedview10"
     showgrid="false"
     showguides="true"
     inkscape:guide-bbox="true"
     inkscape:zoom="20.85965"
     inkscape:cx="3.2842788"
     inkscape:cy="5.738225"
     inkscape:window-x="0"
     inkscape:window-y="0"
     inkscape:window-maximized="1"
     inkscape:current-layer="svg2">
    <sodipodi:guide
       orientation="0,1"
       position="18.02523,13.039528"
       id="guide4011" />
    <sodipodi:guide
       orientation="0,1"
       position="10.738435,2.1093355"
       id="guide4013" />
  </sodipodi:namedview>
  <path
     style="fill:#666666;fill-opacity:1"
     inkscape:connector-curvature="0"
     d="m 7.9824408,3.5290339 c -3.4339072,0 -6.4102945,1.9996258 -7.87290106,4.9205633 C 1.5721463,11.370534 4.5485336,13.37016 7.9824408,13.37016 c 3.4338472,0 6.4102342,-1.999626 7.8729012,-4.9205628 C 14.392765,5.5286597 11.416288,3.5290339 7.9824408,3.5290339 z m 3.8818632,2.6094964 c 0.925096,0.590068 1.709004,1.3804357 2.29781,2.3110669 -0.588806,0.9306312 -1.372744,1.7209988 -2.29784,2.3110968 -1.162392,0.741404 -2.5047196,1.133295 -3.8818332,1.133295 -1.377143,0 -2.7194718,-0.391891 -3.8818628,-1.133326 C 3.1755118,10.170626 2.3916036,9.380261 1.8027674,8.4495972 2.3915738,7.5189334 3.1755118,6.7285684 4.100578,6.1385303 4.160827,6.1000883 4.221686,6.0628483 4.2829153,6.0262824 c -0.1531228,0.4202145 -0.236925,0.873738 -0.236925,1.3469419 0,2.1740274 1.7624231,3.9364497 3.9364505,3.9364497 2.1740272,0 3.9364512,-1.7624223 3.9364512,-3.9364497 0,-0.4732039 -0.0838,-0.9267274 -0.236925,-1.3469745 0.0612,0.036566 0.122061,0.073839 0.182337,0.1122805 z M 7.9824408,6.8811665 c 0,0.8152761 -0.660894,1.4761705 -1.476168,1.4761705 -0.8152757,0 -1.4761697,-0.6608944 -1.4761697,-1.4761705 0,-0.8152759 0.660894,-1.4761676 1.4761697,-1.4761676 0.815274,0 1.476168,0.6608917 1.476168,1.4761676 z"
     id="path3167" />
</svg>
