<?xml version="1.0"?>
<!--Icons from directory ""-->
<svg xmlns="http://www.w3.org/2000/svg" width="16" height="528" viewBox="0 0 16 528"><svg width="16" height="16" id="add" y="0"><g transform="translate(-60 -726)"><path style="color:#666666" d="m67 729v4h-4v2h4v4h2v-4h4v-2h-4v-4h-2z" fill="#666"/></g></svg><svg width="16" height="16" id="all" y="16"><g transform="translate(-40 -746)" fill="#bebebe"><rect y="749" width="9.9996" style="color:#bebebe" x="43" height="2.0002"/><rect y="753" width="9.9996" style="color:#bebebe" x="43" height="2.0002"/><rect y="757" width="9.9996" style="color:#bebebe" x="43" height="2.0002"/></g></svg><svg width="16" height="16" id="bookmark-add" y="32"><g transform="translate(-141 -807)" fill="#bebebe"><path d="m143 807v13l4-4 4 4v-4-1h-2v-4h2v-4z"/><path d="m152 810v2h-2v2h2v2h2v-2h2v-2h-2v-2h-2z"/></g></svg><svg width="16" height="16" id="bookmark" y="48"><g transform="translate(-41 -397)"><path style="color:#000000" transform="matrix(1.0472 -.0087158 .0087158 1.0472 -504.35 220.15)" fill="#f1c40f" d="m530.95 186.71c-0.77941 0.55189-3.1576-1.906-4.1125-1.9179-0.95532-0.0119-3.3949 2.3858-4.161 1.8149-0.76573-0.57072 0.83698-3.592 0.55319-4.5039-0.2839-0.91223-3.3182-2.4915-3.0119-3.3965 0.30617-0.90461 3.6749-0.31399 4.4544-0.86567 0.77986-0.5519 1.3442-3.9257 2.2995-3.914 0.95494 0.0116 1.4342 3.398 2.1998 3.9689 0.76588 0.57114 4.1489 0.0653 4.4331 0.97746 0.28402 0.9118-2.7885 2.414-3.0949 3.3186-0.30652 0.90489 1.22 3.966 0.44027 4.5182z"/></g></svg><svg width="16" height="16" id="category-white" y="64"><g transform="translate(-442,-176)"><g transform="translate(234 -820)"><path d="m208.53 997c-0.28913 0-0.53125 0.24212-0.53125 0.53125v13.938c0 0.2985 0.23264 0.5312 0.53125 0.5312h14.938c0.2986 0 0.53125-0.2326 0.53125-0.5312v-8.9376c0-0.2891-0.24212-0.5312-0.53125-0.5312h-12.469v7.5c0 0.277-0.223 0.5-0.5 0.5s-0.5-0.223-0.5-0.5v-8c0-0.277 0.223-0.5 0.5-0.5h11.5v-1.4062c0-0.3272-0.26666-0.5938-0.59375-0.5938h-7.4062v-1.4688c0-0.39-0.24-0.63-0.53-0.63z" fill="#FFF"/></g></g></svg><svg width="16" height="16" id="category" y="80"><g transform="translate(-442,-176)"><g transform="translate(234 -820)"><path d="m208.53 997c-0.28913 0-0.53125 0.24212-0.53125 0.53125v13.938c0 0.2985 0.23264 0.5312 0.53125 0.5312h14.938c0.2986 0 0.53125-0.2326 0.53125-0.5312v-8.9376c0-0.2891-0.24212-0.5312-0.53125-0.5312h-12.469v7.5c0 0.277-0.223 0.5-0.5 0.5s-0.5-0.223-0.5-0.5v-8c0-0.277 0.223-0.5 0.5-0.5h11.5v-1.4062c0-0.3272-0.26666-0.5938-0.59375-0.5938h-7.4062v-1.4688c0-0.39-0.24-0.63-0.53-0.63z" fill="#666"/></g></g></svg><svg width="16" height="16" id="close" y="96"><g transform="translate(-60,-518)"><g transform="translate(19,-242)"><path style="block-progression:tb;text-indent:0;color:#bebebe;enable-background:new;text-transform:none" fill="#bebebe" d="m45 764h1c0.01037-0.00012 0.02079-0.00046 0.03125 0 0.25495 0.0112 0.50987 0.12858 0.6875 0.3125l2.282 2.28 2.312-2.28c0.266-0.23 0.447-0.3 0.688-0.31h1v1c0 0.28647-0.03434 0.55065-0.25 0.75l-2.2812 2.2812 2.25 2.25c0.188 0.19 0.281 0.45 0.281 0.72v1h-1c-0.2653-0.00001-0.53059-0.0931-0.71875-0.28125l-2.281-2.28-2.281 2.28c-0.188 0.19-0.454 0.28-0.719 0.28h-1v-1c-0.000003-0.26529 0.09306-0.53058 0.28125-0.71875l2.2812-2.25-2.281-2.28c-0.21-0.19-0.303-0.47-0.281-0.75v-1z"/></g></g></svg><svg width="16" height="16" id="configure" y="112"><g transform="translate(-441 -401)"><path style="color:#666666" fill="#666" d="m449 402c-0.22065 0-0.44081 0.0113-0.65625 0.0312l-0.40625 2.0938c-0.33446 0.0733-0.66305 0.17589-0.96875 0.3125l-1.5312-1.4688c-0.38863 0.23011-0.72695 0.51408-1.0625 0.8125l0.90625 1.9062c-0.22242 0.24899-0.42425 0.5225-0.59375 0.8125l-2.0938-0.28125c-0.17772 0.40877-0.30872 0.83637-0.40625 1.2812l1.8438 1c-0.0171 0.16809-0.0312 0.3274-0.0312 0.5s0.0142 0.33191 0.0312 0.5l-1.8438 1c0.0975 0.44488 0.22853 0.87248 0.40625 1.2812l2.0938-0.28125c0.1695 0.29 0.37133 0.56351 0.59375 0.8125l-0.90625 1.9062c0.33555 0.29842 0.67387 0.58239 1.0625 0.8125l1.5312-1.4688c0.3057 0.13661 0.63429 0.23916 0.96875 0.3125l0.40625 2.0938c0.21544 0.02 0.4356 0.0312 0.65625 0.0312s0.44081-0.0113 0.65625-0.0312l0.40625-2.0938c0.33446-0.0733 0.66305-0.17589 0.96875-0.3125l1.5312 1.4688c0.38863-0.23011 0.72695-0.51408 1.0625-0.8125l-0.90625-1.9062c0.22242-0.24899 0.42425-0.5225 0.59375-0.8125l2.0938 0.28125c0.17772-0.40877 0.30872-0.83637 0.40625-1.2812l-1.8438-1c0.0171-0.16809 0.0312-0.3274 0.0312-0.5s-0.0142-0.33191-0.0312-0.5l1.8438-1c-0.0975-0.44488-0.22853-0.87248-0.40625-1.2812l-2.0938 0.28125c-0.1695-0.29-0.37133-0.56351-0.59375-0.8125l0.90625-1.9062c-0.33555-0.29842-0.67387-0.58239-1.0625-0.8125l-1.5312 1.4688c-0.3057-0.13661-0.63429-0.23916-0.96875-0.3125l-0.40625-2.0938c-0.21544-0.02-0.4356-0.0312-0.65625-0.0312zm0 4c1.6568 0 3 1.3432 3 3s-1.3432 3-3 3-3-1.3432-3-3 1.3432-3 3-3z"/></g></svg><svg width="16" height="16" id="down" y="128"><g transform="translate(-181 -747)"><path style="block-progression:tb;text-indent:0;color:#bebebe;enable-background:new;text-transform:none" fill="#bebebe" d="m195.03 751v1c-0.00091 0.0111 0.00059 0.021-0.00009 0.0312-0.0112 0.25496-0.12835 0.50994-0.31251 0.6875l-5.7188 6.2977-5.7188-6.2977c-0.18821-0.1881-0.28121-0.45346-0.28122-0.71875v-1h1c0.26531 0.00007 0.53059 0.0931 0.71873 0.28131l4.2812 4.829 4.2813-4.829c0.19464-0.21073 0.46925-0.30315 0.74998-0.2813z"/></g></svg><svg viewBox="0 0 256 256" width="16" height="16" id="favicon" y="144"><title>Logo FreshRSS</title><circle cy="128" cx="128" r="128" fill="#FFF"/><circle cy="128" cx="128" r="33" fill="#0062BE"/><g stroke="#0062BE" stroke-width="24" fill="none"><g stroke-opacity=".3"><path d="m12 128a116 116 0 1 1 116 116"/><path d="m54 128a74 74 0 1 1 74 74"/></g><path d="m128 12a116 116 0 0 1 116 116"/><path d="m128 54a74 74 0 0 1 74 74"/></g></svg><svg width="16" height="16" id="help" y="160"><g transform="translate(-182,-490)" fill="#bebebe"><path style="block-progression:tb;text-indent:0;color:#bebebe;text-transform:none" d="m190 490c-4.4147 0-8 3.5853-8 8s3.5853 8 8 8 8-3.5853 8-8-3.5853-8-8-8zm0 2c3.3413 0 6 2.6587 6 6s-2.6587 6-6 6-6-2.6587-6-6 2.6587-6 6-6z"/><path style="block-progression:tb;text-indent:0;color:#bebebe;text-transform:none" d="m189.34 495c-1.28 0-2.34 1.06-2.34 2.34v1.3125c0 1.2861 1.0576 2.3438 2.3438 2.3438h1.3125c1.29 0.01 2.35-1.05 2.35-2.33v-1.3125c0-1.29-1.06-2.35-2.34-2.35h-1.3125zm0 1h1.3125c0.74942 0 1.3438 0.59433 1.3438 1.3438v1.3125c0.01 0.76-0.58 1.35-1.33 1.35h-1.3125c-0.76 0-1.35-0.59-1.35-1.34v-1.3125c0-0.76 0.59-1.35 1.34-1.35z"/><path d="m186.72 491.44c-1.5103 0.6073-2.6811 1.7985-3.2812 3.3125l3.75 1.875c0.25196-0.64029 0.74249-1.1706 1.375-1.4375l-1.8438-3.75zm6.5625 0-1.8438 3.75c0.63251 0.26694 1.123 0.79721 1.375 1.4375l3.75-1.875c-0.60015-1.514-1.7709-2.7052-3.2812-3.3125zm-6.0938 8-3.75 1.875c0.60709 1.4886 1.789 2.65 3.2812 3.25l1.875-3.75c-0.62682-0.25556-1.1433-0.75203-1.4062-1.375zm5.625 0c-0.26291 0.62297-0.77943 1.1194-1.4062 1.375l1.875 3.75c1.4923-0.60005 2.6742-1.7614 3.2812-3.25l-3.75-1.875z"/></g></svg><svg viewBox="0 0 256 256" width="16" height="16" id="icon" y="176"><title>Logo FreshRSS</title><circle cy="128" cx="128" r="33" fill="#0062BE"/><g stroke="#0062BE" stroke-width="24" fill="none"><g stroke-opacity=".3"><path d="m12 128a116 116 0 1 1 116 116"/><path d="m54 128a74 74 0 1 1 74 74"/></g><path d="m128 12a116 116 0 0 1 116 116"/><path d="m128 54a74 74 0 0 1 74 74"/></g></svg><svg height="16" width="16" version="1.1" id="import" y="192"><g transform="translate(-80,-648)" fill="#fff"><path style="block-progression:tb;text-transform:none;text-indent:0" d="m84.406 657a0.5 0.5 0 0 0 -0.312 0.219l-1 1.5a0.5 0.5 0 1 0 0.813 0.563l1-1.5a0.5 0.5 0 0 0 -0.501 -0.78zm7 0a0.5 0.5 0 0 0 -0.312 0.781l1 1.5a0.5 0.5 0 1 0 0.813 -0.562l-1-1.5a0.5 0.5 0 0 0 -0.501 -0.22z"/><g transform="translate(-80,110)"><path style="block-progression:tb;text-transform:none;text-indent:0" d="m167 539v5.563l-1.281-1.281c-0.19-0.19-0.46-0.28-0.72-0.28h-1v1c0 0.265 0.093 0.531 0.281 0.719l3 3 0.281 0.281h0.875l0.281-0.281 3-3c0.19-0.19 0.28-0.46 0.28-0.72v-1h-1c-0.265 0-0.531 0.093-0.719 0.281l-1.28 1.28v-5.56z"/><path d="m163 549v4h10v-4zm3.344 1.438c0.021-0.001 0.042-0.001 0.063 0 0.291-0.056 0.599 0.204 0.594 0.5v0.063h2v-0.062c-0.004-0.264 0.236-0.507 0.5-0.507s0.504 0.243 0.5 0.507v0.06c0 0.545-0.455 1-1 1h-2c-0.545 0-1-0.455-1-1v-0.062c-0.011-0.217 0.137-0.432 0.344-0.5z"/></g></g></svg><svg width="16" height="16" id="key" y="208"><g transform="translate(-341 -257)" fill="#666"><path style="block-progression:tb;text-indent:0;color:#000000;text-transform:none" d="m346 260c-2.7496 0-5 2.2504-5 5s2.2504 5 5 5c1.5862 0 2.9034-0.84459 3.8125-2h5.5938l0.21875-0.75 1.0312-4 0.3125-1.25h-7.1562c-0.90914-1.1554-2.2263-2-3.8125-2zm0 2c1.1158 0 2.0379 0.59507 2.5625 1.5l0.3125 0.5h5.5313l-0.53125 2h-5l-0.3125 0.5c-0.52462 0.90493-1.4466 1.5-2.5625 1.5-1.6687 0-3-1.3313-3-3s1.3313-3 3-3z"/><path opacity=".35" style="color:#000000" d="m355.5 265h-5.5l-0.56 2h5.56z"/><path style="color:#000000" d="m346 265c0 0.55228-0.44772 1-1 1s-1-0.44772-1-1 0.44772-1 1-1 1 0.44772 1 1z"/></g></svg><svg width="16" height="16" id="link" y="224"><g transform="translate(-183,-529)" fill="#bebebe"><path style="color:#000000" display="block" d="m191 533.85v10.38l-2.344-2.2882-1.3394 2.7346c-0.32808 0.73962-2.0337 0.14492-1.5487-0.84412l1.3255-2.8393h-2.9579l6.8645-7.1436z"/><path style="block-progression:tb;text-indent:0;color:#000000;text-transform:none" d="m190.16 530.06c-3.8266 0.46006-6.5788 3.9578-6.0938 7.7812 0.13127 1.0347 0.29377 1.3818 0.29377 1.3818l1.675-1.6318c-0.33104-2.7534 1.6216-5.2315 4.375-5.5625 2.7534-0.33104 5.2315 1.6216 5.5625 4.375 0.31355 2.608-1.3913 5.0249-3.9688 5.5312l0.0312 2s0.52086-0.1059 0.62354-0.13097c3.4156-0.83385 5.7063-4.1273 5.2827-7.6503-0.46006-3.8266-3.9547-6.5538-7.7812-6.0938z"/><path opacity=".3" style="color:#000000" d="m187.11 536.81v-0.20574l-0.19826 0.0186c0.0165-0.13095 0.0329-0.26167 0.0496-0.3926h-0.11578l-0.11556 0.14959-0.11578 0.0559-0.1653-0.0932-0.0165-0.20575 0.0331-0.22438 0.24798-0.18688h0.19826l0.0329-0.11229 0.24786 0.0559 0.18183 0.2246 0.0331-0.37419 0.31401-0.26167 0.11567-0.28055 0.23133-0.0934 0.1322-0.18688 0.29738-0.0564 0.14885-0.22415h-0.44623l0.28094-0.13095h0.19814l0.28106-0.0937 0.0331-0.11186-0.0992-0.0937-0.11567-0.0375 0.0331-0.11208-0.0826-0.16822-0.19837 0.0746 0.0331-0.14947-0.23134-0.13096-0.18171 0.3177 0.0165 0.11229-0.18171 0.075-0.11578 0.24302-0.0495-0.22438-0.31402-0.13095-0.0496-0.16822 0.41315-0.24325 0.18182-0.16822 0.0165-0.20563-0.0991-0.0562-0.13219-0.0188-0.0826 0.20575s-0.1382 0.0271-0.17373 0.0358c-0.45378 0.41804-1.3707 1.3204-1.5837 3.024 0.008 0.0395 0.15441 0.26854 0.15441 0.26854l0.347 0.20552 0.347 0.0937m3.9661-4.3003-0.4298-0.16833-0.49552 0.0561-0.61161 0.16822-0.11567 0.11229 0.38008 0.26167v0.14959l-0.14875 0.14959 0.19846 0.39294 0.13188-0.075 0.16561-0.26168c0.2553-0.0789 0.4842-0.16833 0.72686-0.28053l0.19846-0.5048m2.5292 0.34192-0.375 0.0937-0.21875 0.15625v0.125l-0.375 0.25 0.0937 0.34375 0.21875-0.15625 0.125 0.15625 0.15625 0.0937 0.0937-0.28125-0.0625-0.15625 0.0625-0.0937 0.21875-0.1875h0.0937l-0.0937 0.21875v0.1875c0.0892-0.0242 0.1588-0.051 0.25-0.0625l-0.25 0.1875v0.125l-0.3125 0.21875-0.28125-0.0625v-0.15625l-0.125 0.0625 0.0625 0.15625h-0.21875l-0.125 0.21875-0.15625 0.15625-0.0937 0.0312v0.1875l0.0312 0.15625h-0.0312v0.53125l0.0625-0.0312 0.0937-0.21875 0.1875-0.125 0.0312-0.0937 0.28125-0.0625 0.15625 0.1875 0.1875 0.0937-0.0937 0.1875 0.15625-0.0312 0.0625-0.21875-0.1875-0.21875h0.0625l0.21875 0.15625 0.0312 0.21875 0.15625 0.21875 0.0625-0.3125 0.0937-0.0312c0.0959 0.0996 0.1692 0.23163 0.25 0.34375h0.28125l0.1875 0.125-0.0937 0.0937-0.15625 0.15625h-0.25l-0.34375-0.0937h-0.1875l-0.125 0.15625-0.34375-0.375-0.25-0.0625-0.375 0.0625-0.15625 0.0937v2.4062l0.0312 0.0312 0.25-0.15625 0.0937 0.0937h0.28125l0.125 0.15625-0.0937 0.3125 0.1875 0.1875v0.375l0.125 0.25-0.0937 0.25c-0.009 0.16159 0 0.30714 0 0.46875 0.0795 0.21894 0.14355 0.43575 0.21875 0.65625l0.0625 0.34375v0.1875h0.125l0.21875-0.125h0.25l0.375-0.4375-0.0312-0.15625 0.25-0.21875-0.1875-0.1875 0.21875-0.1875 0.21875-0.125 0.0937-0.125-0.0625-0.25v-0.59375l0.1875-0.375 0.1875-0.25 0.25-0.5625v-0.15625c-0.11654 0.0146-0.22972 0.0231-0.34375 0.0312-0.0722 0.005-0.14446 0-0.21875 0-0.12359-0.25961-0.2183-0.50966-0.3125-0.78125l-0.15625-0.1875-0.0937-0.3125 0.0625-0.0625 0.21875 0.25 0.25 0.5625 0.15625 0.15625-0.0625 0.21875 0.15625 0.15625 0.25-0.25 0.3125-0.21875 0.15625-0.1875v-0.21875c-0.0389-0.0732-0.0547-0.14545-0.0937-0.21875l-0.15625 0.1875-0.125-0.15625-0.1875-0.125v-0.28125l0.21875 0.21875 0.21875-0.0312c0.10166 0.0923 0.19205 0.20751 0.28125 0.3125l0.15625-0.1875c0-0.17463-0.19976-1.0204-0.625-1.75-0.42526-0.72932-1.1562-1.4062-1.1562-1.4062l-0.0625 0.0937-0.21875 0.21875-0.25-0.25h0.25l0.125-0.125-0.46875-0.0937-0.25-0.0937z"/></g></svg><svg width="16" height="16" id="login" y="240"><g transform="translate(-181 -237)" fill="#bebebe"><path style="color:#bebebe" d="m184 244c-0.554 0-1 0.446-1 1v6h12v-5.9988c0-0.554-0.446-1-1-1h-10z"/><path style="block-progression:tb;text-indent:0;color:#bebebe;text-transform:none" d="m188 238c-1.6447 0-3 1.3553-3 3v7c0 1.6447 1.3553 3 3 3h2c1.6447 0 3-1.3553 3-3v-7c0-1.6447-1.3553-3-3-3h-2zm0 2h2c0.5713 0 1 0.4287 1 1v7c0 0.5713-0.4287 1-1 1h-2c-0.5713 0-1-0.4287-1-1v-7c0-0.5713 0.4287-1 1-1z"/></g></svg><svg width="16" height="16" id="logout" y="256"><g transform="translate(-201 -237)" fill="#bebebe"><path style="color:#bebebe" d="m204 246c-0.554 0-1 0.446-1 1v6h12v-5.9988c0-0.554-0.446-1-1-1h-10z"/><path style="block-progression:tb;text-indent:0;color:#bebebe;text-transform:none" d="m208 237c-1.6447 0-3 1.3553-3 3v3h2v-3c0-0.57129 0.42873-1 1-1h2c0.57127 0 1 0.42871 1 1v7h2v-7c0-1.6447-1.3553-3-3-3h-2z"/></g></svg><svg width="16" height="16" id="next" y="272"><g transform="translate(-121 -747)"><path style="block-progression:tb;text-indent:0;color:#bebebe;enable-background:new;text-transform:none" fill="#bebebe" d="m125 749h1c0.0104-0.00012 0.0208-0.00046 0.0313 0 0.25495 0.0112 0.50987 0.12858 0.6875 0.3125l6.2977 5.7188-6.2977 5.7188c-0.18816 0.18819-0.45346 0.28125-0.71875 0.28125h-1v-1c0-0.26529 0.0931-0.53058 0.28125-0.71875l4.829-4.2812-4.829-4.2812c-0.21074-0.19463-0.30316-0.46925-0.28125-0.75z"/></g></svg><svg width="16" height="16" id="non-starred" y="288"><g transform="translate(-61 -397)"><path style="block-progression:tb;text-indent:0;color:#000000;text-transform:none" d="m69.003 398.01c-0.2659-0.00099-0.49859 0.1006-0.6647 0.2393-0.16611 0.13869-0.27742 0.32137-0.38968 0.50028-0.22453 0.35782-0.39269 0.76873-0.56546 1.2036-0.17277 0.43483-0.34713 0.88766-0.5046 1.2323-0.15747 0.34465-0.3456 0.57871-0.35862 0.58776-0.01287 0.009-0.30722 0.117-0.69576 0.15181-0.38855 0.0348-0.88122 0.0492-1.3632 0.0694-0.48202 0.0202-0.9703 0.0362-1.393 0.12817-0.21138 0.046-0.4154 0.10148-0.60434 0.20956s-0.36689 0.28631-0.45004 0.53002-0.04901 0.50627 0.03636 0.70157c0.08537 0.19531 0.22656 0.36514 0.3682 0.52344 0.2833 0.31663 0.6327 0.60557 1.0079 0.89849s0.77671 0.55926 1.0678 0.81027c0.29104 0.25101 0.45422 0.50796 0.45912 0.52271 0.0048 0.0146 0.03119 0.33498-0.05456 0.70231-0.08575 0.36732-0.2238 0.81174-0.35282 1.2603-0.12902 0.44861-0.25176 0.90196-0.2917 1.3184-0.01997 0.20819-0.04285 0.40729 0.0053 0.61409 0.04814 0.20679 0.1845 0.43007 0.39902 0.58168 0.21451 0.15161 0.44936 0.1881 0.66823 0.1701s0.43535-0.0703 0.63515-0.15132c0.39961-0.16214 0.80177-0.42851 1.2064-0.68231 0.40465-0.2538 0.80822-0.52155 1.1456-0.71107 0.33734-0.18952 0.6484-0.2686 0.66445-0.26854 0.01586 0.00006 0.30338 0.0951 0.63894 0.28732 0.33556 0.19221 0.72532 0.46503 1.1276 0.72205 0.40229 0.25702 0.81996 0.49752 1.218 0.66284 0.19903 0.0827 0.38893 0.15086 0.60762 0.17059 0.2187 0.0197 0.47978-0.031 0.69551-0.18105 0.21572-0.15001 0.33928-0.35235 0.38918-0.55877s0.04291-0.43517 0.02476-0.64358c-0.03632-0.41683-0.15899-0.86394-0.2841-1.3137-0.12511-0.44978-0.26165-0.88661-0.34421-1.2548-0.08256-0.36813-0.07169-0.68662-0.06666-0.70133 0.005-0.0145 0.18746-0.25247 0.4806-0.50101 0.29313-0.24854 0.67599-0.53755 1.0536-0.82731 0.37764-0.28976 0.76716-0.57158 1.0531-0.88579 0.14298-0.1571 0.2418-0.33444 0.32882-0.52904s0.136-0.42874 0.05481-0.67306-0.27108-0.41314-0.45912-0.52272-0.36679-0.18158-0.57782-0.22931c-0.42206-0.0955-0.91359-0.14009-1.3956-0.16426-0.48198-0.0242-0.94584-0.039-1.3342-0.077s-0.71565-0.13122-0.72859-0.14037c-0.01279-0.009-0.18402-0.23636-0.3384-0.58217s-0.32658-0.78819-0.49548-1.2243c-0.1689-0.4361-0.33477-0.86429-0.55609-1.2238-0.11067-0.17977-0.23335-0.35397-0.39826-0.49396s-0.40309-0.25684-0.66899-0.25783zm0.0086 0.99424c0.0422 0.0358 0.10671 0.13602 0.1841 0.26173 0.15477 0.25141 0.33068 0.6272 0.49397 1.0488 0.16329 0.42163 0.31905 0.88645 0.49598 1.2828 0.17693 0.39633 0.31456 0.73379 0.6753 0.98889 0.36072 0.25509 0.77019 0.29763 1.2152 0.34118 0.44506 0.0435 0.92882 0.0532 1.3948 0.0765 0.46599 0.0234 0.91824 0.0697 1.2135 0.13647 0.14763 0.0334 0.25558 0.0572 0.30381 0.0853-0.02227 0.0498-0.07958 0.15478-0.17956 0.26464-0.19997 0.21973-0.53749 0.48746-0.90261 0.7676-0.36511 0.28015-0.77804 0.57219-1.114 0.85704-0.33595 0.28485-0.63992 0.53221-0.77987 0.94209-0.13995 0.40986-0.05396 0.77681 0.04065 1.1987s0.25406 0.87813 0.37502 1.313c0.12096 0.43486 0.22688 0.84692 0.25228 1.1385 0.01156 0.13264-0.01699 0.23485-0.02778 0.29267-0.05993-0.008-0.1764-0.0324-0.30381-0.0853-0.27836-0.11561-0.64649-0.32808-1.0354-0.57657-0.38894-0.24849-0.8039-0.53053-1.1885-0.75081-0.38457-0.22028-0.70791-0.39837-1.1551-0.40015-0.44722-0.002-0.79205 0.17245-1.1786 0.38965-0.38659 0.21719-0.78438 0.49517-1.1756 0.74055-0.39123 0.24538-0.77636 0.4507-1.0559 0.56412-0.13977 0.0567-0.24616 0.0856-0.3023 0.0902-0.01026-0.0578-0.01522-0.16008-0.0025-0.29243 0.02793-0.29118 0.13818-0.70893 0.26291-1.1426 0.12473-0.43372 0.25404-0.89785 0.35232-1.3188 0.09828-0.42099 0.18672-0.78846 0.05027-1.1994-0.13644-0.41097-0.43218-0.64202-0.76571-0.92967-0.33353-0.28766-0.70551-0.58555-1.0683-0.86876-0.36275-0.2832-0.7178-0.56075-0.91597-0.78224-0.09908-0.11075-0.16221-0.21163-0.1841-0.26173 0.04834-0.0276 0.15448-0.058 0.3023-0.0902 0.29562-0.0643 0.74518-0.10714 1.2112-0.1267 0.46603-0.0196 0.94824-0.0298 1.3935-0.0697 0.44531-0.0399 0.84679-0.0499 1.2097-0.30216 0.36289-0.25221 0.5383-0.60511 0.71876-1.0001 0.18046-0.39497 0.33731-0.84115 0.50435-1.2616 0.16704-0.42041 0.31848-0.83556 0.47556-1.0859 0.07853-0.12515 0.16751-0.20007 0.21012-0.23565z" fill="#bebebe"/></g></svg><svg width="16" height="16" id="prev" y="304"><g transform="translate(-301 -747)"><path style="block-progression:tb;text-indent:0;color:#bebebe;enable-background:new;text-transform:none" fill="#bebebe" d="m313.01 749h-1c-0.0104-0.00012-0.0208-0.00046-0.0313 0-0.25495 0.0112-0.50987 0.12858-0.6875 0.3125l-6.2977 5.7188 6.2977 5.7188c0.18816 0.18819 0.45346 0.28125 0.71875 0.28125h1v-1c0-0.26529-0.0931-0.53058-0.28125-0.71875l-4.829-4.2812 4.829-4.2812c0.21074-0.19463 0.30316-0.46925 0.28125-0.75z"/></g></svg><svg width="16" height="16" id="read" y="320"><g transform="translate(-61 -297)"><path opacity=".35" style="block-progression:tb;text-indent:0;color:#000000;text-transform:none" d="m68.875 297a1.0001 1.0001 0 0 0 -0.5 0.25l-4.9062 4a1.0001 1.0001 0 0 0 -0.0625 0.0312s-0.32587 0.29728-0.65625 0.75c-0.22334 0.30605-0.3527 0.8316-0.5 1.3125a1.0001 1.0001 0 0 0 -0.03125 0.0312 1.0001 1.0001 0 0 0 -0.21875 0.5625c-0.00051 0.0118 0.00036 0.0195 0 0.0312a1.0001 1.0001 0 0 0 0 0.0312 1.0001 1.0001 0 0 0 0 0.15625v7.8438a1.0001 1.0001 0 0 0 1 1h12a1.0001 1.0001 0 0 0 1 -1v-7.8438a1.0001 1.0001 0 0 0 0 -0.15625 1.0001 1.0001 0 0 0 -0.21875 -0.65625 1.0001 1.0001 0 0 0 -0.03125 -0.0312c-0.32774-1.1879-1.125-2-1.125-2a1.0001 1.0001 0 0 0 -0.0312 -0.0312l-4.969-4.02a1.0001 1.0001 0 0 0 -0.65625 -0.25 1.0001 1.0001 0 0 0 -0.0937 0zm0.125 2.2812 4.3125 3.5312 0.0312 0.0312c0.021 0.0255 0.18032 0.24952 0.34375 0.5l-4.6874 3.5312-4.6875-3.5312c0.0259-0.0394 0.0349-0.0872 0.0625-0.125 0.1908-0.26146 0.31874-0.41421 0.34375-0.4375l0.03125-0.0312 4.25-3.4688zm-5 5.0938 4.6875 3.5312 0.3125 0.21875 0.3125-0.21875 4.6875-3.5312v6.625h-10v-6.625z" fill="#bebebe"/></g></svg><svg width="16" height="16" id="refresh" y="336"><g transform="translate(-241 -627)"><path style="block-progression:tb;text-indent:0;color:#666666;text-transform:none" d="m253.91 628.97a1.0001 1.0001 0 0 0 -0.125 0.0312 1.0001 1.0001 0 0 0 -0.78125 1v1.6875c-0.38225-0.57796-0.84927-1.0822-1.4062-1.5-1.1556-0.86677-2.532-1.2523-3.875-1.1875-0.19186 0.009-0.37223 0.0353-0.5625 0.0625-1.5222 0.21741-2.9782 1.023-3.9688 2.3438-1.9812 2.6414-1.4227 6.425 1.2188 8.4062s6.425 1.4227 8.4062-1.2188a1.0063 1.0063 0 0 0 0.18 -0.59 1.0063 1.0063 0 0 0 0 -0.15625v-0.84375h-0.9062a1.0063 1.0063 0 0 0 -0.0937 0 1.0063 1.0063 0 0 0 -0.8125 0.40625c-1.3326 1.7767-3.817 2.1139-5.5938 0.78125-1.7767-1.3326-2.1139-3.817-0.78125-5.5938 1.3326-1.7767 3.817-2.1139 5.5938-0.78125 0.42946 0.32212 0.76954 0.73295 1.0312 1.1875h-1.4375a1.0001 1.0001 0 0 0 -1 1 1.0001 1.0001 0 0 0 0 0.21875v0.78125h6v-5a1.0001 1.0001 0 0 0 0 -0.1875v-0.8125h-0.8125a1.0001 1.0001 0 0 0 -0.28125 -0.0312z" fill="#666"/></g></svg><svg width="16" height="16" id="rss" y="352"><g fill="#666" transform="translate(-561 -301)"><path style="color:#000000;enable-background:new" d="m325.06 97.188c0 1.7872-0.89543 3.2361-2 3.2361s-2-1.4488-2-3.2361c0-1.7872 0.89543-3.2361 2-3.2361s2 1.4488 2 3.2361z" transform="matrix(1 0 0 .61803 241.94 252.93)"/><path style="color:#000000;enable-background:new" d="m563 303v1c0 0.55016 0.45347 1 1 1 4.9706 0 9 4.0294 9 9 0 0.55016 0.45347 1 1 1h1v-1c0-6.0751-4.9249-11-11-11h-1zm0 4v1c0 0.55016 0.45347 1 1 1 2.7614 0 5 2.2386 5 5 0 0.55016 0.45347 1 1 1h1v-1c0-3.866-3.134-7-7-7h-1z"/></g></svg><svg width="16" height="16" id="search" y="368"><g transform="translate(-441 -195)" fill="#666"><path style="block-progression:tb;text-indent:0;color:#666666;enable-background:new;text-transform:none" d="m447.51 196c-3.0289 0-5.5107 2.479-5.5107 5.5045 0 3.0254 2.4819 5.5045 5.5107 5.5045s5.5107-2.479 5.5107-5.5045c0-3.0254-2.4819-5.5045-5.5107-5.5045zm0 2.0089c1.9474 0 3.4995 1.5504 3.4995 3.4955s-1.5522 3.4955-3.4995 3.4955c-1.9474 0-3.4995-1.5504-3.4995-3.4955 0-1.9452 1.5522-3.4955 3.4995-3.4955z"/><path style="block-progression:tb;text-indent:0;color:#666666;enable-background:new;text-transform:none" d="m450.81 204a1.0001 1.0001 0 0 0 -0.5 1.7188l4 4a1.0055 1.0055 0 1 0 1.4062 -1.4375l-4-4a1.0001 1.0001 0 0 0 -0.91 -0.28z"/></g></svg><svg width="16" height="16" id="share" y="384"><g transform="translate(-581 -196)" fill="#bebebe"><g><path style="color:#000000;enable-background:new" transform="matrix(1.5079 0 0 1.5079 148.16 -64.491)" d="m291 178.03c0 1.0873-0.88144 1.9688-1.9688 1.9688-1.0873 0-1.9688-0.88144-1.9688-1.9688 0-1.0873 0.88144-1.9688 1.9688-1.9688 1.0873 0 1.9688 0.88144 1.9688 1.9688z"/><path style="color:#000000;enable-background:new" transform="matrix(1.5079 0 0 1.5079 158.13 -59.491)" d="m291 178.03c0 1.0873-0.88144 1.9688-1.9688 1.9688-1.0873 0-1.9688-0.88144-1.9688-1.9688 0-1.0873 0.88144-1.9688 1.9688-1.9688 1.0873 0 1.9688 0.88144 1.9688 1.9688z"/><path style="color:#000000;enable-background:new" transform="matrix(1.5079 0 0 1.5079 158.13 -69.491)" d="m291 178.03c0 1.0873-0.88144 1.9688-1.9688 1.9688-1.0873 0-1.9688-0.88144-1.9688-1.9688 0-1.0873 0.88144-1.9688 1.9688-1.9688 1.0873 0 1.9688 0.88144 1.9688 1.9688z"/></g><path style="block-progression:tb;text-indent:0;color:#000000;text-transform:none" d="m593.62 198.16-10.062 4.875-1.8125 0.90625 1.8125 0.90625 10.031 5.0625 0.90625-1.8125-8.2188-4.1562 8.2188-4-0.875-1.7812z"/></g></svg><svg width="16" height="16" id="starred" y="400"><g transform="translate(-41 -397)"><path style="color:#000000" transform="matrix(1.0472 -.0087158 .0087158 1.0472 -504.35 220.15)" fill="#f1c40f" d="m530.95 186.71c-0.77941 0.55189-3.1576-1.906-4.1125-1.9179-0.95532-0.0119-3.3949 2.3858-4.161 1.8149-0.76573-0.57072 0.83698-3.592 0.55319-4.5039-0.2839-0.91223-3.3182-2.4915-3.0119-3.3965 0.30617-0.90461 3.6749-0.31399 4.4544-0.86567 0.77986-0.5519 1.3442-3.9257 2.2995-3.914 0.95494 0.0116 1.4342 3.398 2.1998 3.9689 0.76588 0.57114 4.1489 0.0653 4.4331 0.97746 0.28402 0.9118-2.7885 2.414-3.0949 3.3186-0.30652 0.90489 1.22 3.966 0.44027 4.5182z"/></g></svg><svg width="16" height="16" id="stats" y="416"><g transform="translate(-142,-490)" fill="#bebebe"><path style="block-progression:tb;text-indent:0;color:#bebebe;text-transform:none" d="m144.19 490c-1.21 0-2.19 1.02-2.19 2.22v10.562c0 1.2008 0.98238 2.2188 2.1875 2.2188h11.625c1.2051 0 2.1875-1.0179 2.1875-2.2188v-10.562c-0.01-1.2-0.99-2.22-2.2-2.22h-11.625zm0 2h11.625c0.12026 0 0.1875 0.08 0.1875 0.21875v10.562c-0.01 0.14-0.08 0.22-0.2 0.22h-11.625c-0.12026 0-0.1875-0.08-0.1875-0.21875v-10.562c0.01-0.14 0.08-0.22 0.2-0.22z"/><path style="block-progression:tb;text-indent:0;color:#000000;text-transform:none" d="m151.31 493.97a0.50005 0.50005 0 0 0 -0.34375 0.34375l-1.6875 6.0938-0.875-1.1875a0.50005 0.50005 0 0 0 -0.4 -0.21h-3v1h2.75l1.3125 1.7812a0.50005 0.50005 0 0 0 0.875 -0.15625l1.5312-5.4375 1.0625 3.4688a0.50005 0.50005 0 0 0 0.47 0.35h2v-1h-1.625l-1.4375-4.6875a0.50005 0.50005 0 0 0 -0.625 -0.34375z"/></g></svg><svg width="16" height="16" id="tag" y="432"><g transform="translate(-141 -807)"><path d="m149 809v13l4-4 4 4c0.0525-6.8494-0.0285-10.584 0-13z" fill="#bebebe"/></g></svg><svg width="16" height="16" id="unread" y="448"><g transform="translate(-41 -297)" fill="#e74c3c"><path style="block-progression:tb;text-indent:0;color:#000000;text-transform:none" d="m43.781 301a1.0001 1.0001 0 0 0 -0.40625 1.7812l5 4 0.625 0.5 0.625-0.5 5-4a1.0005 1.0005 0 1 0 -1.25 -1.5625l-4.375 3.5-4.375-3.5a1.0001 1.0001 0 0 0 -0.844 -0.22z"/><path style="block-progression:tb;text-indent:0;color:#000000;text-transform:none" d="m42.906 300a1.0001 1.0001 0 0 0 -0.906 1v9a1.0001 1.0001 0 0 0 1 1h12a1.0001 1.0001 0 0 0 1 -1v-9a1.0001 1.0001 0 0 0 -1 -1h-12a1.0001 1.0001 0 0 0 -0.09375 0zm1.094 2h10v7h-10v-7z"/></g></svg><svg width="16" height="16" id="up" y="464"><g transform="translate(-201 -747)"><path style="block-progression:tb;text-indent:0;color:#bebebe;enable-background:new;text-transform:none" fill="#bebebe" d="m215.03 759v-1c-0.00091-0.0111 0.00059-0.021-0.00009-0.0312-0.0112-0.25496-0.12835-0.50994-0.31251-0.6875l-5.7188-6.2977-5.7188 6.2977c-0.18821 0.1881-0.28121 0.45346-0.28122 0.71875v1h1c0.26531-0.00007 0.53059-0.0931 0.71873-0.28131l4.2812-4.829 4.2813 4.829c0.19464 0.21073 0.46925 0.30315 0.74998 0.2813z"/></g></svg><svg viewBox="0 0 16 16" width="16" height="16" id="view-global" y="480"><g transform="translate(-61-867)" fill="#666"><rect rx=".385" ry=".379" height="2" width="2" y="870" x="64"/><rect rx=".385" ry=".379" height="2" width="2" y="870" x="68"/><rect rx=".385" ry=".379" height="2" width="2" y="870" x="72"/><rect rx=".385" ry=".379" height="2" width="2" y="874.02" x="64"/><rect rx=".385" ry=".379" height="2" width="2" y="874.02" x="68"/><rect rx=".385" ry=".379" height="2" width="2" y="874.02" x="72"/><rect rx=".385" ry=".379" height="2" width="2" y="878" x="64"/><rect rx=".385" ry=".379" height="2" width="2" y="878" x="68"/><rect rx=".385" ry=".379" height="2" width="2" y="878" x="72"/></g></svg><svg viewBox="0 0 16 16" width="16" height="16" id="view-normal" y="496"><g color="#666" transform="translate(-40-746)" fill="#666"><path d="m43 749h10v2h-10z"/><path d="m43 753h10v2h-10z"/><path d="m43 757h10v2h-10z"/></g></svg><svg viewBox="0 0 16 16" width="16" height="16" id="view-reader" y="512"><g color="#666" transform="translate(-181-867)" fill="#666"><path d="m181 868v1 11 1h1 5c0.1754 0 0.52538 0.15166 0.8125 0.34375s0.46875 0.375 0.46875 0.375l0.72 0.72 0.71875-0.75s0.8963-0.6875 1.2812-0.6875h5 1v-1-11-1h-1-5c-0.87652 0-1.5602 0.34756-2.0312 0.6875-0.0301-0.0207-0.031-0.0105-0.0625-0.0312-0.46-0.31-1.08-0.66-1.91-0.66h-5-1zm2 2h4c0.13821 0 0.51476 0.14746 0.8125 0.34375s0.5 0.375 0.5 0.375l0.71875 0.6875 0.6875-0.71875s0.89975-0.6875 1.2812-0.6875h4v9h-4c-0.87693 0-1.5601 0.34735-2.0312 0.6875-0.0196-0.0135-0.011-0.0177-0.0312-0.0312-0.46-0.31-1.1-0.66-1.94-0.66h-4v-9z"/><g transform="scale(-1 1)"><rect y="872" width="3" rx=".375" x="-187" height="2"/><rect y="875" width="3" rx=".375" x="-187" height="2"/><rect y="872" width="3" rx=".375" x="-194" height="2"/><rect y="875" width="3" rx=".375" x="-194" height="2"/></g></g></svg></svg>
