<!-- Created with Inkscape (http://www.inkscape.org/) -->
<svg xmlns="http://www.w3.org/2000/svg" xmlns:xlink="http://www.w3.org/1999/xlink" viewBox="0 0 59.4 59.7">
<defs>
<linearGradient id="linearGradient3796">
<stop stop-color="#0090ff" offset="0"/>
<stop stop-color="#0062be" offset="1"/>
</linearGradient>
<linearGradient id="linearGradient3802" y2="53.018" xlink:href="#linearGradient3796" gradientUnits="userSpaceOnUse" x2="72.873" y1="14.64" x1="115.7"/>
</defs>
<g fill="#FFF" transform="matrix(0.41471269,0,0,0.41471269,0.4367596,36.849335)">
<g transform="matrix(0.9774773,0,0,0.9774773,0.92631875,-74.208835)">
<path d="m64.102-11.469,0,14.25c36.018,0.0418,65.198,29.235,65.218,65.259h15.189c-0.46275-43.994-36.228-79.509-80.332-79.509-0.02635,0-0.05196-0.000025-0.0783,0z"/>
<path d="m64.102,14.799,0,14.876c21.188,0.12639,38.346,17.217,38.639,38.365h15.581c-0.21-29.445-24.175-53.241-53.669-53.241-0.18468,0-0.36384-0.0019-0.54807,0z"/>
</g>
<g transform="translate(-4.1395349,-75.482558)">
<path d="M61.077,4.2013c-32.069,3.4709-57.062,30.537-57.188,63.5h11.906c-0.001-0.13569,0-0.27032,0-0.40625,0-26.472,19.725-48.306,45.281-51.656v-11.437z"/>
<path d="m61.077,25.42c-20.105,3.4776-35.409,20.946-35.469,42.031h11.125c0.11711-14.724,10.509-27.002,24.344-30.062v-11.969z"/>
<path d="m68.171,50.108c-9.502,0-17.188,7.6855-17.188,17.188,0,9.502,7.6855,17.219,17.188,17.219,9.502,0,17.219-7.7167,17.219-17.219,0-9.502-7.7167-17.188-17.219-17.188z"/>
<path d="m98.14,74.17c-2.9607,13.954-15.281,24.445-30.094,24.562v11.656c0.12455,0.001,0.2502,0,0.375,0,21.41,0,39.173-15.697,42.344-36.219h-12.625z"/>
<path d="m119.58,74.17c-3.3587,25.459-25.062,45.157-51.406,45.281v12.656c33.284-0.0636,60.6-25.457,63.719-57.938h-12.312z"/>
</g>
</g>
<g fill="url(#linearGradient3802)" transform="matrix(0.40537224,0,0,0.40537224,1.1327158,5.273491)">
<path d="m64.102-11.469,0,14.25c36.018,0.0418,65.198,29.235,65.218,65.259h15.189c-0.46275-43.994-36.228-79.509-80.332-79.509-0.02635,0-0.05196-0.000025-0.0783,0z"/>
<path d="m64.102,14.799,0,14.876c21.188,0.12639,38.346,17.217,38.639,38.365h15.581c-0.21-29.445-24.175-53.241-53.669-53.241-0.18468,0-0.36384-0.0019-0.54807,0z"/>
</g>
<g fill="#222" transform="matrix(0.41471269,0,0,0.41471269,-0.96815804,4.7452623)">
<path d="M61.077,4.2013c-32.069,3.4709-57.062,30.537-57.188,63.5h11.906c-0.001-0.13569,0-0.27032,0-0.40625,0-26.472,19.725-48.306,45.281-51.656v-11.437z"/>
<path d="m61.077,25.42c-20.105,3.4776-35.409,20.946-35.469,42.031h11.125c0.11711-14.724,10.509-27.002,24.344-30.062v-11.969z"/>
<path d="m68.171,50.108c-9.502,0-17.188,7.6855-17.188,17.188,0,9.502,7.6855,17.219,17.188,17.219,9.502,0,17.219-7.7167,17.219-17.219,0-9.502-7.7167-17.188-17.219-17.188z"/>
<path d="m98.14,74.17c-2.9607,13.954-15.281,24.445-30.094,24.562v11.656c0.12455,0.001,0.2502,0,0.375,0,21.41,0,39.173-15.697,42.344-36.219h-12.625z"/>
<path d="m119.58,74.17c-3.3587,25.459-25.062,45.157-51.406,45.281v12.656c33.284-0.0636,60.6-25.457,63.719-57.938h-12.312z"/>
</g>
</svg>
