<?xml version="1.0" encoding="UTF-8" standalone="no"?>
<svg
   xmlns:dc="http://purl.org/dc/elements/1.1/"
   xmlns:cc="http://creativecommons.org/ns#"
   xmlns:rdf="http://www.w3.org/1999/02/22-rdf-syntax-ns#"
   xmlns:svg="http://www.w3.org/2000/svg"
   xmlns="http://www.w3.org/2000/svg"
   xmlns:sodipodi="http://sodipodi.sourceforge.net/DTD/sodipodi-0.dtd"
   xmlns:inkscape="http://www.inkscape.org/namespaces/inkscape"
   width="17"
   height="17"
   viewBox="0 0 17 17"
   version="1.1"
   id="svg5"
   sodipodi:docname="rss.svg"
   inkscape:version="0.92.3 (unknown)">
  <metadata
     id="metadata11">
    <rdf:RDF>
      <cc:Work
         rdf:about="">
        <dc:format>image/svg+xml</dc:format>
        <dc:type
           rdf:resource="http://purl.org/dc/dcmitype/StillImage" />
        <dc:title></dc:title>
      </cc:Work>
    </rdf:RDF>
  </metadata>
  <defs
     id="defs9" />
  <sodipodi:namedview
     pagecolor="#ffffff"
     bordercolor="#666666"
     borderopacity="1"
     objecttolerance="10"
     gridtolerance="10"
     guidetolerance="10"
     inkscape:pageopacity="0"
     inkscape:pageshadow="2"
     inkscape:window-width="841"
     inkscape:window-height="480"
     id="namedview7"
     showgrid="false"
     inkscape:zoom="14.75"
     inkscape:cx="8"
     inkscape:cy="8"
     inkscape:window-x="0"
     inkscape:window-y="27"
     inkscape:window-maximized="0"
     inkscape:current-layer="svg5" />
  <g
     id="surface2"
     transform="translate(0,-1)">
    <path
       style="fill:#515151;fill-opacity:1;fill-rule:nonzero;stroke:none"
       d="m 4.246094,15.433594 c 0,1.101562 -0.898438,2 -2,2 -1.105469,0 -2,-0.898438 -2,-2 0,-1.105469 0.894531,-2 2,-2 1.101562,0 2,0.894531 2,2 m 5,2 c 0,-4.984375 -4.019532,-9 -9,-9 v -2 c 6.0625,0 11,4.933594 11,11 z m 5.5,0 c 0,-8.019532 -6.480469,-14.5 -14.5,-14.5 v -2 c 9.097656,0 16.5,7.398437 16.5,16.5 z m 0,0"
       id="path2"
       inkscape:connector-curvature="0" />
  </g>
</svg>
