<svg xmlns="http://www.w3.org/2000/svg" xmlns:xlink="http://www.w3.org/1999/xlink" width="15" height="15" viewBox="0 0 15 15" version="1.1">
<g id="surface2">
<path style=" stroke:none;fill-rule:nonzero;fill:rgb(94.901961%,94.901961%,94.901961%);fill-opacity:1;" d="M 6 12 L 9 12 L 9 15 L 6 15 Z M 12 12 L 15 12 L 15 15 L 12 15 Z M 0 12 L 3 12 L 3 15 L 0 15 Z M 6 6 L 9 6 L 9 9 L 6 9 Z M 12 6 L 15 6 L 15 9 L 12 9 Z M 0 6 L 3 6 L 3 9 L 0 9 Z M 6 0 L 9 0 L 9 3 L 6 3 Z M 12 0 L 15 0 L 15 3 L 12 3 Z M 0 0 L 3 0 L 3 3 L 0 3 Z M 0 0 "/>
</g>
</svg>